<?xml version="1.0" encoding="utf-8"?>
<!-- Generator: Adobe Illustrator 26.3.1, SVG Export Plug-In . SVG Version: 6.00 Build 0)  -->
<svg version="1.1" id="Layer_1" xmlns="http://www.w3.org/2000/svg" xmlns:xlink="http://www.w3.org/1999/xlink" x="0px" y="0px"
	 viewBox="0 0 566.9 566.9" style="enable-background:new 0 0 566.9 566.9;" xml:space="preserve">
<style type="text/css">
	.st0{fill:#F48120;}
	.st1{fill:#231F20;}
	.st2{fill:#FFFFFF;}
</style>
<g>
	<path class="st0" d="M260.5,351.5c0-4.7-4.1-7.1-12.2-7.1h-29.8v23.3c0,4.2,4.2,6.4,12.7,6.4h18.5c3.6,0,6.3-0.6,8.1-1.7
		c1.8-1.1,2.7-2.9,2.7-5.1V351.5z M268.2,367.5c0,8.8-7.1,13.1-21.3,13.1h-14.3c-14.6,0-21.9-4.3-21.9-12.8v-39.8
		c0-2.3,1.3-3.4,3.9-3.4c2.5,0,3.8,1.1,3.8,3.4v10.1h28.4c14.2,0,21.3,4.4,21.3,13.1V367.5z"/>
	<path class="st0" d="M291.5,377.6c0,2.3-1.3,3.4-3.8,3.4c-2.6,0-3.9-1.1-3.9-3.4v-49.6c0-2.3,1.3-3.4,3.8-3.4
		c2.6,0,3.9,1.1,3.9,3.4V377.6z"/>
	<path class="st0" d="M355.3,350.6c0-4.1-3.6-6.1-10.9-6.1h-17.7c-7.9,0-11.9,2.3-11.9,6.9v16.4c0,4.3,4,6.5,11.9,6.5h17.7
		c7.3,0,10.9-2.2,10.9-6.5V350.6z M363.3,367.7c0,8.6-6.7,12.9-20.1,12.9h-15.6c-13.6,0-20.5-4.3-20.5-12.9v-16.4
		c0-8.8,6.9-13.2,20.7-13.2h15.4c13.4,0,20.1,4.4,20.1,13.1V367.7z"/>
	<path class="st0" d="M399.9,380.6c-14,0-21-4.2-21-12.6v-17.4c0-8.3,6.4-12.5,19.1-12.5h28.4c2.4,0,3.7,1,3.7,3.1
		c0,2.2-1.2,3.3-3.7,3.3H397c-6.9,0-10.4,2-10.4,5.9v17.4c0,4.3,4,6.5,11.9,6.5h28c2.2,0,3.3,1.1,3.3,3.4c0,2-1.1,3-3.3,3H399.9z"/>
	<path class="st0" d="M456.3,358.6l31.9,16.1c0.5,0.3,0.9,0.7,1.2,1.2c0.3,0.5,0.4,0.9,0.4,1.4c0,1-0.4,1.8-1.1,2.6
		c-0.7,0.8-1.6,1.2-2.6,1.2c-0.5,0-1.1-0.2-1.8-0.5l-33.8-17.4v14.5c0,2.3-1.3,3.4-3.8,3.4c-2.6,0-3.9-1.1-3.9-3.4v-49.6
		c0-2.3,1.3-3.4,3.9-3.4c2.5,0,3.8,1.1,3.8,3.4v26.5l34.3-16.5c0.5-0.3,1-0.5,1.4-0.5c0.9,0,1.7,0.4,2.5,1.2
		c0.7,0.8,1.1,1.6,1.1,2.4c0,0.5-0.1,1-0.4,1.4c-0.3,0.5-0.8,0.8-1.4,1.1L456.3,358.6z"/>
	<path class="st0" d="M551.4,369.3c0,7.5-5.4,11.3-16.3,11.3h-32.7c-2.3,0-3.4-1-3.4-3.1c0-2.2,1.1-3.3,3.4-3.3h34
		c4.7,0,7-1.6,7-4.9v-2.5c0-3.1-2.6-4.7-7.9-4.7h-18c-12,0-18-3.6-18-10.8v-2.9c0-6.9,5.7-10.4,17.2-10.4h9.1c2.2,0,3.3,1.1,3.3,3.2
		c0,2.1-1.1,3.2-3.3,3.2H515c-5.1,0-7.6,1.3-7.6,4v2.7c0,3.1,3,4.6,9,4.6h18.4c11.2,0,16.8,3.7,16.8,11V369.3z"/>
	<path class="st1" d="M465,229.3c-3-2.4-6.8-3.2-11-3.2h-7.6c-4.2,0-8,0.8-11,3.2c-3.1,2.4-4.5,6.3-4.4,10.1
		c-0.1,3.8,1.4,7.7,4.4,10.1c3,2.4,6.8,3.1,11,3.2l7.6,0c4.2,0,8-0.8,11-3.2c3.1-2.4,4.5-6.3,4.4-10.1
		C469.5,235.5,468,231.6,465,229.3 M464,185.9c-3.6,0-5.4,1.7-5.4,5v28.8c0,3.2,1.9,4.7,5.7,4.7c3.5,0,5.2-1.6,5.2-4.7v-28.8
		C469.4,187.6,467.6,185.9,464,185.9 M331.5,229.3c-3-2.4-6.8-3.1-11-3.2l-7.6,0c-4.2,0-8,0.8-11,3.2c-3.1,2.4-4.5,6.3-4.4,10.1
		c-0.1,3.8,1.4,7.7,4.4,10.1c3,2.4,6.8,3.1,11,3.2h7.6c4.2,0,8-0.8,11-3.2c3.1-2.4,4.5-6.3,4.4-10.1
		C336,235.5,334.5,231.6,331.5,229.3 M302.6,254.3c-3.5,0-5.2,1.6-5.2,4.7V305c0,3.3,1.8,5,5.4,5c3.6,0,5.4-1.7,5.4-5V259
		C308.2,255.9,306.3,254.3,302.6,254.3 M195.9,229.3c-3-2.4-6.8-3.1-11-3.2l-7.6,0c-4.2,0-8,0.8-11,3.2c-3.1,2.4-4.5,6.3-4.4,10.1
		c-0.1,3.8,1.4,7.7,4.4,10.1c3,2.4,6.8,3.1,11,3.2h7.6c4.2,0,8-0.8,11-3.2c3.1-2.4,4.5-6.3,4.4-10.1
		C200.4,235.5,199,231.6,195.9,229.3 M528.4,273.3h-26.6c-8.7,0-13-2.2-13-6.7v-3.9c0-3.9,3.7-5.8,11.1-5.8h15.8
		c3.2,0,4.9-1.5,4.9-4.6c0-3.1-1.6-4.6-4.9-4.6h-13.2c-16.6,0-25,5-25,15v4.2c0,10.4,8.7,15.6,26.1,15.6h26.1
		c7.6,0,11.4,2.3,11.4,6.8v3.7c0,4.7-3.4,7-10.2,7h-49.3c-3.3,0-5,1.6-5,4.9c0,3,1.7,4.5,5,4.5h47.4c15.8,0,23.7-5.5,23.7-16.4v-3.7
		C552.8,278.6,544.6,273.3,528.4,273.3 M409.1,288.1c0,7.9-4.5,11.9-13.6,11.9h-37.1c-9.4,0-14.1-2.6-14.1-7.9v-8.4
		c0-5.5,4.4-8.3,13.2-8.3h51.6V288.1z M393.6,247.7h-11.9c-2.7,0-4,1.5-4,4.5c0,3.2,1.3,4.7,4,4.7h13.6c8.4,0,13,3,13.7,9.1h-49
		c-18.1,0-27.1,6-27.1,18v8c0,11.6,9.2,17.3,27.7,17.3h32.9c17.5,0,26.2-6,26.2-18v-25.2C419.8,253.8,411,247.7,393.6,247.7
		 M167,254.3c-3.5,0-5.2,1.6-5.2,4.7V305c0,3.3,1.8,5,5.4,5c3.6,0,5.4-1.7,5.4-5V259C172.7,255.9,170.8,254.3,167,254.3 M231,256.9
		h42.7c3.5,0,5.3-1.6,5.3-4.7c0-3-1.8-4.5-5.3-4.5h-41.2c-18.5,0-27.7,6-27.7,18.1v25.3c0,12.2,10.2,18.3,30.5,18.3h38.5
		c3.2,0,4.9-1.5,4.9-4.4c0-3.3-1.6-5-4.9-5h-40.6c-11.5,0-17.2-3.1-17.2-9.4v-25.2C216,259.8,221,256.9,231,256.9 M129.8,228
		c-3.7,0-5.5,1.7-5.5,5v72c0,3.3,1.9,5,5.7,5c3.7,0,5.5-1.7,5.5-5v-72C135.5,229.7,133.6,228,129.8,228 M90.4,288.1
		c0,7.9-4.5,11.9-13.6,11.9H39.7c-9.4,0-14.1-2.6-14.1-7.9v-8.4c0-5.5,4.4-8.3,13.2-8.3h51.6V288.1z M74.8,247.7H62.9
		c-2.7,0-4,1.5-4,4.5c0,3.2,1.3,4.7,4,4.7h13.6c8.4,0,13,3,13.7,9.1h-49c-18.1,0-27.1,6-27.1,18v8c0,11.6,9.2,17.3,27.7,17.3h32.9
		c17.5,0,26.2-6,26.2-18v-25.2C101.1,253.8,92.3,247.7,74.8,247.7"/>
	<path class="st2" d="M325.8,236.4c-0.6-0.5-2.3-1.2-5.3-1.2h-7.6c-3.1,0-4.7,0.7-5.3,1.2c-0.6,0.5-0.9,1-1,3c0.1,2,0.4,2.4,1,3
		c0.6,0.5,2.3,1.2,5.3,1.2h7.6c3.1,0,4.7-0.7,5.3-1.2c0.6-0.5,0.9-1,1-3C326.7,237.3,326.3,236.9,325.8,236.4 M190.2,236.4
		c-0.6-0.5-2.3-1.2-5.3-1.2h-7.6c-3.1,0-4.7,0.7-5.3,1.2c-0.6,0.5-0.9,1-1,3c0.1,2,0.4,2.4,1,3c0.6,0.5,2.3,1.2,5.3,1.2h7.6
		c3.1,0,4.7-0.7,5.3-1.2c0.6-0.5,0.9-1,1-3C191.2,237.3,190.8,236.9,190.2,236.4"/>
</g>
</svg>
