<?xml version="1.0" encoding="utf-8"?>
<!-- Generator: Adobe Illustrator 26.3.1, SVG Export Plug-In . SVG Version: 6.00 Build 0)  -->
<svg version="1.1" id="Layer_1" xmlns="http://www.w3.org/2000/svg" xmlns:xlink="http://www.w3.org/1999/xlink" x="0px" y="0px"
	 viewBox="0 0 566.9 566.9" style="enable-background:new 0 0 566.9 566.9;" xml:space="preserve">
<style type="text/css">
	.st0{fill:#58595B;}
	.st1{fill:#B39A71;}
</style>
<g>
	<g>
		<path class="st0" d="M52.7,541.7c0,3.4-1.2,6.2-3.7,8.1c-2.5,2-5.9,3-10.3,3c-4.1,0-7.7-0.8-10.8-2.3V543c2.6,1.1,4.7,2,6.5,2.4
			c1.8,0.5,3.4,0.7,4.9,0.7c1.8,0,3.1-0.3,4.1-1c0.9-0.7,1.4-1.7,1.4-3c0-0.7-0.2-1.4-0.6-2c-0.4-0.6-1-1.1-1.8-1.7
			c-0.8-0.5-2.5-1.4-4.9-2.6c-2.3-1.1-4.1-2.1-5.2-3.2c-1.2-1-2.1-2.2-2.8-3.5c-0.7-1.3-1-2.9-1-4.7c0-3.4,1.1-6,3.4-7.9
			c2.3-1.9,5.4-2.9,9.5-2.9c2,0,3.9,0.2,5.7,0.7c1.8,0.5,3.7,1.1,5.6,2l-2.6,6.3c-2-0.8-3.7-1.4-5-1.7c-1.3-0.3-2.6-0.5-3.9-0.5
			c-1.5,0-2.7,0.4-3.5,1.1c-0.8,0.7-1.2,1.6-1.2,2.8c0,0.7,0.2,1.3,0.5,1.9c0.3,0.5,0.9,1,1.6,1.5c0.7,0.5,2.4,1.4,5.1,2.7
			c3.6,1.7,6,3.4,7.3,5.1C52,537.1,52.7,539.2,52.7,541.7z"/>
		<path class="st0" d="M86.8,552.2H64.9v-38.1h21.9v6.6H73v8.4h12.9v6.6H73v9.8h13.9V552.2z"/>
		<path class="st0" d="M116.3,520.3c-3,0-5.4,1.1-7.1,3.4c-1.7,2.3-2.5,5.5-2.5,9.6c0,8.5,3.2,12.7,9.6,12.7c2.7,0,5.9-0.7,9.7-2
			v6.8c-3.1,1.3-6.6,2-10.5,2c-5.5,0-9.8-1.7-12.7-5c-2.9-3.4-4.4-8.2-4.4-14.5c0-4,0.7-7.4,2.2-10.4c1.4-3,3.5-5.3,6.2-6.9
			c2.7-1.6,5.9-2.4,9.5-2.4c3.7,0,7.4,0.9,11.2,2.7l-2.6,6.6c-1.4-0.7-2.9-1.3-4.3-1.8C119.1,520.6,117.7,520.3,116.3,520.3z"/>
		<path class="st0" d="M170.5,514.1v24.7c0,2.8-0.6,5.3-1.9,7.4c-1.3,2.1-3.1,3.7-5.5,4.9c-2.4,1.1-5.2,1.7-8.4,1.7
			c-4.9,0-8.7-1.3-11.4-3.8c-2.7-2.5-4.1-5.9-4.1-10.3v-24.6h8.1v23.3c0,2.9,0.6,5.1,1.8,6.5c1.2,1.4,3.1,2.1,5.9,2.1
			c2.6,0,4.6-0.7,5.7-2.1c1.2-1.4,1.8-3.5,1.8-6.5v-23.3H170.5z"/>
		<path class="st0" d="M193.2,537.6v14.6h-8.1v-38.1h11.1c5.2,0,9,0.9,11.5,2.8c2.5,1.9,3.7,4.7,3.7,8.6c0,2.2-0.6,4.2-1.9,6
			c-1.2,1.7-3,3.1-5.2,4.1c5.7,8.6,9.5,14.1,11.2,16.6h-9l-9.1-14.6H193.2z M193.2,531h2.6c2.6,0,4.4-0.4,5.7-1.3
			c1.2-0.9,1.8-2.2,1.8-4c0-1.8-0.6-3.1-1.9-3.9s-3.2-1.1-5.8-1.1h-2.4V531z"/>
		<path class="st0" d="M225.7,552.2v-38.1h8.1v38.1H225.7z"/>
		<path class="st0" d="M263.4,552.2h-8.1v-31.4H245v-6.7h28.8v6.7h-10.3V552.2z"/>
		<path class="st0" d="M296.9,529.8l8-15.7h8.7l-12.6,23.3v14.8h-8v-14.6l-12.6-23.5h8.8L296.9,529.8z"/>
		<path class="st1" d="M357.5,552.2h-8.1v-31.4h-10.3v-6.7h28.8v6.7h-10.3V552.2z"/>
		<path class="st1" d="M401,552.2h-21.9v-38.1H401v6.6h-13.9v8.4h12.9v6.6h-12.9v9.8H401V552.2z"/>
		<path class="st1" d="M437.6,552.2l-2.8-9.1H421l-2.8,9.1h-8.7L423,514h9.9l13.5,38.3H437.6z M433,536.4c-2.6-8.2-4-12.9-4.3-13.9
			c-0.3-1.1-0.6-1.9-0.7-2.6c-0.6,2.2-2.2,7.7-4.9,16.5H433z"/>
		<path class="st1" d="M472.6,552.2l-9.2-29.9h-0.2c0.3,6.1,0.5,10.1,0.5,12.2v17.7h-7.2v-38.1h11l9,29.1h0.2l9.6-29.1h11v38.1h-7.5
			v-18c0-0.9,0-1.8,0-2.9c0-1.1,0.1-4.1,0.4-8.9h-0.2l-9.8,29.8H472.6z"/>
	</g>
	<path class="st0" d="M289.7,313.6L289.7,313.6c-8.8,11-1,27.4,13.2,27.4h88.6c14.6,0,26.4,11.8,26.4,26.4v37
		c0,14.6-11.8,26.4-26.4,26.4H289.7v0c-8.8,11-1,27.4,13.2,27.4h156c26.8,0,48.4-21.7,48.4-48.4v-47.7c0-26.8-21.7-48.4-48.4-48.4
		H289.7z"/>
	<path class="st0" d="M140.7,313.6h-5.5H29.1l0,0c-8.7,10.3-1.4,26,12,26h67.6c14.6,0,26.4,11.8,26.4,26.4v76.2c0,8.8,7.2,16,16,16
		h57.5c8.8,0,16-7.2,16-16v-80.1c0-26.8-21.7-48.4-48.4-48.4H140.7z"/>
	<path class="st0" d="M419.5,131.8l-19.6,19.4c-9.3,9.2-24.3,9.2-33.6-0.1l-49.7-49.7h0c-14.3,0-21.5,17.3-11.3,27.4l58.4,58.4
		l-16.7,16.6c-10.3,10.2-24.2,16-38.7,16h-5.3c-14.1,0-22,16.4-13.2,27.4l0,0h84.1c25.6,0,50.1-10.1,68.2-28.2l99.9-99.8
		c4.9-4.9,1.6-13.4-5.4-13.6l-46-1.5C464.1,103,438.3,113.1,419.5,131.8z"/>
	<path class="st0" d="M92,113.3l-4,7.5l-27.9-15c-12.6-6.8-28.3-2-35.1,10.6l-1.3,2.5l29.5,15.8l18,9.6l3.2,1.7l-51.7,96.4h15.4
		c10.5,0,20.2-5.8,25.2-15.1l25.2-46.9c6.2-11.5,20.6-15.8,32.1-9.6l44.4,23.9c6.3,3.4,10.2,9.9,10.2,17.1v6.5h0
		c-14.5,0-26.2,11.7-26.2,26.2v2.5h62.7c19.2,0,34.8-15.6,34.8-34.8v-33c0-24-12.9-46.1-33.8-57.8L162.1,93
		C137.2,78.9,105.5,88.1,92,113.3z"/>
	<path class="st1" d="M198,44.9l-37.8-30.7h-39.6c-10.6,0-20.9,4-28.7,11.2L73.9,41.8c-4.3,3.9-5.6,10.2-3.2,15.5l13,29.1l33.4-10.7
		H198l-37.8-30.7H198z"/>
	<g>
		<path class="st1" d="M237.3,232.4c-0.4-0.3-0.8-0.6-1.3-0.9C236,232.2,236.5,232.4,237.3,232.4z"/>
		<path class="st1" d="M243,237.4c-1.7,7.3-10.1,16.8-25.5,19c-12.2,1.7-24.9,8.9-26.9,23.1c-0.4,3.2-0.7,5.5-0.7,9.3
			c2.1-2.5,7.8-6.8,16.4-6.8h15c14.5,0,28.6-9.3,28.7-25.4C250.1,249.3,247.4,242.3,243,237.4z"/>
	</g>
</g>
</svg>
