<?xml version="1.0" encoding="utf-8"?>
<!-- Generator: Adobe Illustrator 26.3.1, SVG Export Plug-In . SVG Version: 6.00 Build 0)  -->
<svg version="1.1" id="Layer_1" xmlns="http://www.w3.org/2000/svg" xmlns:xlink="http://www.w3.org/1999/xlink" x="0px" y="0px"
	 viewBox="0 0 566.9 566.9" style="enable-background:new 0 0 566.9 566.9;" xml:space="preserve">
<style type="text/css">
	.st0{fill:#474748;}
</style>
<g>
	<path class="st0" d="M425.5,458.7c0-4.8-1.8-8.9-4.8-11.6c-3.7-3.3-9.2-4.9-17.5-4.9c-5.3,0-11,0.5-15,1.3v59.7h7.8v-26.2h7.4
		c7.1,0.3,10.4,3.4,12.2,11.7c1.6,7.5,3,12.6,3.9,14.4h8.1c-1.3-2.3-2.7-8.2-4.7-16.6c-1.4-6.3-4.2-10.6-8.8-12.2V474
		C420.5,471.8,425.5,466.5,425.5,458.7z M404.1,470.9h-8v-22.1c1.3-0.4,3.9-0.6,7.7-0.6c8.3,0,13.9,3.4,13.9,11.2
		C417.7,466.4,412.4,470.9,404.1,470.9z"/>
	<rect x="322.6" y="442.6" class="st0" width="7.9" height="60.5"/>
	<polygon class="st0" points="351.9,474.7 375.3,474.7 375.3,468.3 351.9,468.3 351.9,449.1 376.8,449.1 376.8,442.6 344,442.6 
		344,503.1 378.1,503.1 378.1,496.5 351.9,496.5 	"/>
	<path class="st0" d="M316.6,529.7c-1.2,2.4-2.3,4.4-3.1,6.4h-0.1c-1-2.2-1.9-4.1-3.1-6.4l-4.4-8.6h-4.6l9.9,17.9v13.2h4.1V539
		l10.4-17.9h-4.5L316.6,529.7z"/>
	<path class="st0" d="M342.2,523.9c2.6,0,4.8,0.6,6.2,1.3l1-3.3c-1.1-0.6-3.6-1.4-7.4-1.4c-9.7,0-16.3,6.6-16.3,16.4
		c0,10.3,6.6,15.8,15.4,15.8c3.8,0,6.8-0.7,8.2-1.5l-0.8-3.2c-1.6,0.8-4.1,1.3-6.6,1.3c-7.5,0-11.9-4.9-11.9-12.5
		C330,528.6,334.9,523.9,342.2,523.9z"/>
	<polygon class="st0" points="276.3,524.5 285.8,524.5 285.8,552.2 289.9,552.2 289.9,524.5 299.4,524.5 299.4,521.1 276.3,521.1 	
		"/>
	<polygon class="st0" points="260.4,537.6 272.5,537.6 272.5,534.3 260.4,534.3 260.4,524.4 273.2,524.4 273.2,521.1 256.4,521.1 
		256.4,552.2 273.9,552.2 273.9,548.9 260.4,548.9 	"/>
	<polygon class="st0" points="357.6,548.7 374.9,523.5 374.9,521.1 353.8,521.1 353.8,524.4 369.6,524.4 369.6,524.6 352.3,549.9 
		352.3,552.2 375.1,552.2 375.1,548.9 357.6,548.9 	"/>
	<polygon class="st0" points="414.5,537.6 426.6,537.6 426.6,534.3 414.5,534.3 414.5,524.4 427.4,524.4 427.4,521.1 410.5,521.1 
		410.5,552.2 428,552.2 428,548.9 414.5,548.9 	"/>
	<path class="st0" d="M243.1,521.1l-5.6,15.1c-1.4,3.9-2.5,7.4-3.3,10.5h-0.1c-0.8-3.2-1.9-6.7-3.1-10.5l-5.3-15.1h-5.1l-2.2,31.2
		h3.8l0.8-13.4c0.3-4.7,0.5-9.9,0.6-13.8h0.1c0.9,3.7,2.1,7.7,3.6,12.1l5.1,14.8h3.1l5.5-15.1c1.6-4.3,2.8-8.2,3.9-11.8h0.1
		c0,3.8,0.3,9.1,0.5,13.5l0.7,13.7h4l-1.9-31.2H243.1z"/>
	<path class="st0" d="M399.7,534.1c0,4.9,0.1,8.6,0.5,12.8l-0.1,0c-1.4-3.2-3.3-6.5-5.6-10.1l-10-15.8H380v31.2h3.8v-13.3
		c0-5.2,0-8.9-0.3-12.9l0.1,0c1.5,3.4,3.6,6.9,5.8,10.4l9.9,15.8h4.1v-31.2h-3.8V534.1z"/>
	<polygon class="st0" points="280.2,442.6 280.2,503.1 313.9,503.1 313.9,496.5 288.1,496.5 288.1,442.6 	"/>
	<polygon class="st0" points="210.9,503.1 210.9,449.2 229.4,449.2 229.4,442.6 184.6,442.6 184.6,449.2 203,449.2 203,503.1 	"/>
	<path class="st0" d="M153.2,484h21.5l6.5,19h8.3l-20.6-60.5h-9.3l-20.6,60.5h8.1L153.2,484z M160.8,460.5c1.3-3.7,2.2-7.4,3.1-10.9
		h0.2c0.9,3.5,1.8,7.1,3.1,11l6,17.4h-18.3L160.8,460.5z"/>
	<polygon class="st0" points="268.8,449.1 268.8,442.6 236,442.6 236,503.1 270.1,503.1 270.1,496.5 243.9,496.5 243.9,474.7 
		267.3,474.7 267.3,468.3 243.9,468.3 243.9,449.1 	"/>
	<path class="st0" d="M177.1,520.5c-8.3,0-14.4,6.5-14.4,16.4c0,9.4,5.7,15.9,14,15.9c8,0,14.5-5.7,14.5-16.4
		C191.1,527,185.6,520.5,177.1,520.5z M176.9,549.5c-6.4,0-10-6-10-12.7c0-6.8,3.3-13,10-13c6.7,0,10,6.5,10,12.7
		C186.9,543.6,183.3,549.5,176.9,549.5z"/>
	<path class="st0" d="M205.7,534.6c-4.3-1.7-6.2-3.1-6.2-6c0-2.1,1.6-4.7,5.9-4.7c2.8,0,4.9,0.9,5.9,1.5l1.1-3.3
		c-1.3-0.8-3.7-1.5-6.9-1.5c-6.1,0-10.1,3.6-10.1,8.5c0,4.4,3.1,7,8.2,8.9c4.2,1.6,5.9,3.3,5.9,6.2c0,3.1-2.4,5.3-6.5,5.3
		c-2.8,0-5.4-0.9-7.2-2l-1.1,3.4c1.7,1.1,5,2,8,2c7.4,0,10.9-4.2,10.9-9C213.6,539.2,211,536.6,205.7,534.6z"/>
	<path class="st0" d="M161.3,521.1h-5l-9.5,11.7c-0.8,1-1.6,2.1-2.5,3.3h-0.1v-15h-4v31.2h4v-11.9l3-3.4l10.2,15.3h4.8l-12.2-18
		L161.3,521.1z"/>
	<path class="st0" d="M283.5,391c50.4,0,97.7-19.6,133.3-55.2c35.6-35.6,55.2-82.9,55.2-133.2c0-50.3-19.6-97.6-55.2-133.2
		c-35.6-35.6-83-55.2-133.3-55.2c-50.4,0-97.7,19.6-133.3,55.2c-35.6,35.6-55.2,82.9-55.2,133.2c0,50.3,19.6,97.7,55.2,133.2
		C185.7,371.4,233.1,391,283.5,391z M283.5,19.8c100.9,0,183,82,183,182.8c0,100.8-82.1,182.8-183,182.8c-100.9,0-183-82-183-182.8
		C100.5,101.8,182.6,19.8,283.5,19.8z"/>
	<path class="st0" d="M283.5,374.2c94.9,0,171.8-76.8,171.8-171.6c0-94.8-76.9-171.6-171.8-171.6c-94.9,0-171.8,76.8-171.8,171.6
		C111.7,297.4,188.6,374.2,283.5,374.2z M348.6,289.7c-22.4,7.1-45.1,14.4-46.7,14.9v0c-0.7,0.2-1.7,0.5-2.8,0.5
		c-1.6,0-3.4-0.5-5.2-2.7c-1.8-2.2-3.6-6.5-4.4-14.2c-0.2-2-0.3-3.8-0.3-5.4c0-6.5,1.5-9.7,3.1-11.3c1.5-1.6,3.4-1.9,4.9-1.9h0.1
		c0.4,0,0.8,0,1.1,0.1c2.7,0.3,62.2,6.4,85.7,8.8C375.5,281.1,362.1,285.4,348.6,289.7z M348.1,265.7c-23.3-2.7-47.1-5.4-48.7-5.6
		c-1.1-0.1-2.9-0.5-4.2-1.6c-1.3-1.1-2.6-3-2.6-7.2c0-2.7,0.6-6.4,2.2-11.2c2.1-6.3,4.4-10,6.4-12c2-2,3.7-2.5,5.2-2.5
		c1.7,0,3.2,0.7,4.1,1.2c2.3,1.3,54.1,31.3,74.5,43.1C376,268.9,362.1,267.3,348.1,265.7z M357.4,243.5c-20.2-12-40.7-24.2-42.2-25
		c-1.5-0.9-3.8-2.6-3.8-6c0-2.8,1.6-7.4,7.8-14.1c6.6-7.3,11.3-9.1,14-9c3,0,4.8,2,5.7,3.3c1.6,2.2,36.5,50.7,50.3,69.8
		C381.6,257.9,369.6,250.7,357.4,243.5z M377.3,169.3c1.1,1.2,1.5,2.8,1.7,3.8c0.3,1.6,5.1,25,9.8,48c2.8,13.9,5.6,27.6,7.4,36.3
		c-13.6-19.3-47.9-68.2-49.5-70.4v0c-0.7-1-1.6-2.6-1.6-4.5c0-1.4,0.5-3.2,2.4-5.3c1.9-2.1,5.4-4.6,11.1-7c5.6-2.4,9.6-3.2,12.5-3.2
		C374.6,167,376.2,168.1,377.3,169.3z M360.1,139.1c1.1,1,2.7,2.8,2.7,5.3c0,2.7-1.9,7.3-10.6,13.7c-6.6,4.8-11.1,6.2-14,6.2
		c-4.2,0-5.7-2.9-6.5-4.5c-0.7-1.5-10.5-23.3-20.2-44.7c-5.8-12.9-11.6-25.7-15.2-33.7C313.8,97.2,358.1,137.3,360.1,139.1z
		 M303.2,118.8c9.4,21.5,19,43.4,19.7,44.9v0c0.4,0.8,0.8,2.1,0.8,3.5c0,1.6-0.5,3.3-2.6,5.2c-2.2,1.9-6.2,4-13.2,5.4
		c-3.6,0.7-6.5,1.1-8.9,1.1c-5.6,0-7.9-1.6-9.1-3.2c-1.2-1.6-1.4-3.6-1.4-4.8c0-2.7-0.1-62.4-0.1-86.1
		C291.9,93,297.6,105.8,303.2,118.8z M177.7,261.2c14.1-18.9,49.8-66.9,51.4-69c1-1.3,2.7-3.2,5.7-3.2c2.8,0,7.4,1.8,14,9.2
		c6,6.7,7.6,11.3,7.6,14.1c0,3.6-2.4,5.2-3.9,6.1C250.1,219.7,198.2,249.4,177.7,261.2z M257.2,226.8c0.9-0.5,2.4-1.2,4-1.2
		c1.5,0,3.2,0.5,5.2,2.5c2,2.1,4.3,5.8,6.3,12.2c1.5,4.7,2,8.2,2,10.9c0,4.4-1.3,6.3-2.7,7.4c-1.4,1.1-3.2,1.5-4.3,1.6
		c-2.7,0.3-62.2,6.1-85.7,8.4C202.6,257.2,254.9,228.1,257.2,226.8z M277.1,288.6c-0.9,7.6-2.8,11.8-4.6,14
		c-1.8,2.2-3.6,2.6-5.2,2.7c-1.2,0-2.2-0.3-3-0.5c-1.6-0.5-24.2-8.1-46.5-15.6c-13.4-4.5-26.7-9-35.1-11.8c23.5-2,83.1-7.2,85.8-7.4
		c0.3,0,0.6,0,1,0c1.5,0,3.4,0.3,4.9,1.8c1.5,1.5,3,4.6,3.1,10.9C277.5,284.3,277.4,286.3,277.1,288.6z M278.9,170.8
		c0,1.2-0.2,3.2-1.4,4.7c-1.2,1.5-3.5,3.1-9,3.1c-2.4,0-5.4-0.3-9.1-1.1c-7-1.5-11-3.6-13.1-5.5c-2.1-1.9-2.6-3.6-2.6-5.2
		c0-1.4,0.5-2.7,0.8-3.5c0.7-1.5,10.5-23.3,20-44.7c5.8-12.9,11.5-25.7,15.1-33.8C279.5,108.4,278.9,168.2,278.9,170.8z
		 M207.6,138.5L207.6,138.5c2-1.8,46.7-41.5,64.3-57.2c-9.9,21.4-35,75.7-36.1,78.1c-0.8,1.7-2.3,4.5-6.5,4.5c-2.9,0-7.4-1.4-14-6.3
		c-8.6-6.4-10.5-11-10.5-13.7C204.8,141.2,206.5,139.4,207.6,138.5z M189.4,172.1c0.2-1,0.7-2.6,1.8-3.8c1.1-1.2,2.7-2.2,6-2.3
		c2.9,0,7,0.9,12.6,3.4c11.4,5.2,13.3,9.7,13.3,12.4c0,1.9-1,3.6-1.7,4.5c-1.6,2.2-36.7,50.5-50.6,69.6
		C175.9,233,188.8,174.7,189.4,172.1z"/>
</g>
</svg>
