<?xml version="1.0" encoding="utf-8"?>
<!-- Generator: Adobe Illustrator 26.3.1, SVG Export Plug-In . SVG Version: 6.00 Build 0)  -->
<svg version="1.1" id="Layer_1" xmlns="http://www.w3.org/2000/svg" xmlns:xlink="http://www.w3.org/1999/xlink" x="0px" y="0px"
	 viewBox="0 0 566.9 566.9" style="enable-background:new 0 0 566.9 566.9;" xml:space="preserve">
<path d="M302.2,317.5c-0.2,0-0.3,0.1-0.5,0.2c-0.2,0.2-0.3,0.6-0.3,1v6.8c0,3.7-0.6,6.4-1.8,8.2c-0.8,1.2-1.7,1.8-2.8,1.8
	c-0.5,0-0.9-0.2-1.1-0.6c-0.4-0.5-0.6-1.4-0.6-2.7v-43.1h6.8c0.2,0,0.4-0.1,0.6-0.2c0.1-0.1,0.2-0.2,0.2-0.4c0-0.1-0.1-0.3-0.2-0.4
	c-0.1-0.1-0.3-0.2-0.6-0.2h-6.8V269c0-0.2-0.1-0.3-0.2-0.4c-0.1-0.1-0.2-0.1-0.4-0.1c-0.2,0-0.3,0.1-0.4,0.2l-0.1,2.1
	c0,0.7-0.4,2.1-1,4c-0.9,2.6-1.9,5-3.1,6.9c-1.2,2-3.1,4-5.7,6c-0.3,0.2-0.4,0.5-0.4,0.7c0,0.2,0.1,0.3,0.2,0.5
	c0.2,0.1,0.4,0.2,0.6,0.2h2.2V329c0,3.1,0.7,5.5,2.2,7.2c1.1,1.3,2.8,1.9,5.1,1.9c2.5,0,4.5-1.1,6.2-3.2c1.7-2.2,2.5-5.8,2.5-11.1
	v-5.1c0-0.4-0.1-0.8-0.3-1C302.6,317.6,302.4,317.5,302.2,317.5 M252.6,317.5c-0.2,0-0.3,0.1-0.5,0.2c-0.2,0.2-0.3,0.6-0.3,1v6.8
	c0,3.7-0.6,6.4-1.8,8.2c-0.8,1.2-1.7,1.8-2.8,1.8c-0.5,0-0.9-0.2-1.1-0.6c-0.4-0.5-0.6-1.4-0.6-2.7v-43.1h6.9c0.2,0,0.4-0.1,0.6-0.2
	c0.1-0.1,0.2-0.2,0.2-0.4c0-0.1-0.1-0.3-0.2-0.4c-0.1-0.1-0.3-0.2-0.6-0.2h-6.9V269c0-0.2-0.1-0.3-0.2-0.4c-0.1-0.1-0.2-0.1-0.4-0.1
	c-0.2,0-0.3,0.1-0.4,0.2l-0.1,2.1c0,0.7-0.4,2.1-1,4c-0.9,2.6-1.9,5-3.1,6.9c-1.2,2-3.1,4-5.7,6c-0.3,0.2-0.4,0.5-0.4,0.7
	c0,0.2,0.1,0.3,0.2,0.5c0.2,0.1,0.4,0.2,0.6,0.2h2.2V329c0,3.1,0.7,5.5,2.2,7.2c1.1,1.3,2.8,1.9,5.1,1.9c2.5,0,4.5-1.1,6.2-3.2
	c1.7-2.2,2.5-5.8,2.5-11.1v-5.1c0-0.4-0.1-0.8-0.3-1C252.9,317.6,252.8,317.5,252.6,317.5 M498,336.4h-1.8V268H486
	c-0.2,0-0.3,0.1-0.5,0.2c-0.1,0.1-0.2,0.2-0.2,0.4c0,0.2,0.1,0.3,0.2,0.4c0.1,0.1,0.3,0.2,0.5,0.2h1.9v67.2H486
	c-0.2,0-0.3,0.1-0.4,0.2c-0.1,0.1-0.2,0.2-0.2,0.4c0,0.2,0.1,0.3,0.2,0.4c0.1,0.1,0.2,0.2,0.4,0.2h12c0.2,0,0.3-0.1,0.4-0.2
	c0.1-0.1,0.2-0.2,0.2-0.4c0-0.2-0.1-0.3-0.2-0.4C498.3,336.5,498.1,336.4,498,336.4 M346.8,311.7h-4.8V292c0-1.2,0.2-2.1,0.8-2.7
	c0.5-0.6,1.1-0.9,1.8-0.9c0.7,0,1.2,0.2,1.5,0.7c0.5,0.6,0.7,1.6,0.7,2.9V311.7z M344.9,287.4c-2.7,0-5.1,1.4-7,4.1
	c-2.7,3.8-4.1,9.4-4.1,16.8v6.8c0,9.6,1,15.9,3,18.8c2,2.9,4.5,4.3,7.6,4.3c3.3,0,5.9-1.9,7.8-5.6c1.9-3.7,2.9-8.4,2.9-13.9
	c0-0.9-0.1-1.5-0.2-1.8c-0.1-0.2-0.3-0.3-0.5-0.3c-0.2,0-0.4,0.1-0.6,0.4c-0.1,0.2-0.2,1.3-0.3,3.1c-0.2,5.6-1.4,10.1-3.6,13.4
	c-1.4,1.9-2.9,2.9-4.6,2.9c-1.1,0-1.8-0.3-2.3-1c-0.6-0.9-0.9-2.6-0.9-5.3v-17.2h13v-7.6c0-5-0.9-9.2-2.7-12.7
	C350.7,289.2,348.2,287.4,344.9,287.4 M552.2,288.1c-0.1-0.1-0.3-0.2-0.4-0.2h-7c-0.2,0-0.3,0.1-0.3,0.2c-0.1,0.1-0.1,0.3-0.1,0.5
	c0,0.2,0,0.3,0.1,0.5l0.7,0.2c0.9,0.1,1.5,0.5,2,1.2c0.4,0.6,0.7,1.8,0.7,3.5c0,0.9-0.1,1.8-0.2,2.8l-4,27.9l-4.2-35.6h2.1
	c0.2,0,0.3-0.1,0.4-0.2c0.1-0.1,0.2-0.2,0.2-0.4c0-0.1-0.1-0.3-0.2-0.4c-0.1-0.1-0.2-0.2-0.4-0.2h-12.4c-0.3,0.2-0.5,0.4-0.5,0.6
	c0,0.2,0.2,0.4,0.5,0.6h2.1l5.7,48.5h5l-1,5.6c-0.6,3.8-1.7,6.6-3.1,8.3c-1.1,1.3-2.2,1.9-3.3,1.9c-0.3,0-0.6-0.1-0.8-0.2
	c-0.2-0.1-0.3-0.3-0.3-0.5c0-0.3,0.2-0.6,0.6-0.8c1.6-1,2.4-2.4,2.4-4.3c0-1.2-0.4-2.2-1.1-3c-0.8-0.8-1.6-1.2-2.7-1.2
	c-1,0-2,0.4-2.8,1.3c-0.8,0.9-1.2,2.1-1.2,3.7c0,1.9,0.5,3.4,1.5,4.6c1,1.2,2.2,1.7,3.5,1.7c1.7,0,3.3-0.9,4.9-2.6
	c1.6-1.7,2.6-4.4,3.1-7.9l6.9-48.7c0.3-2.2,0.9-4.1,1.8-5.5c0.3-0.5,0.7-0.9,1.1-1c0.2,0,0.4-0.1,0.5-0.2c0.1-0.1,0.1-0.2,0.1-0.4
	C552.4,288.4,552.4,288.3,552.2,288.1 M454.8,288h-5.4c-0.1-1.4-0.7-3.6-1.9-6.6c-1.2-3-1.8-5.5-1.8-7.3c0-1.6,0.4-2.8,1.2-3.8
	c0.8-0.9,1.7-1.4,2.7-1.4c0.6,0,1.2,0.2,1.7,0.5c0.5,0.3,0.9,0.8,1.2,1.4c-1.4,0-2.4,0.4-3.1,1.1c-0.7,0.7-1,1.8-1,3.2
	c0,1.2,0.3,2.1,1,2.8c0.6,0.7,1.4,1,2.3,1c0.9,0,1.7-0.4,2.5-1.3c0.7-0.9,1.1-2.1,1.1-3.6c0-1.8-0.6-3.4-1.8-4.6
	c-1.2-1.2-2.5-1.9-4-1.9c-2.1,0-3.9,1.1-5.6,3.2c-1.7,2.1-2.5,5.4-2.5,9.9v7.4h-2.3c-0.3,0.2-0.5,0.5-0.5,0.7c0,0.1,0.2,0.3,0.5,0.5
	h2.3v47.3h-2.3c-0.2,0.2-0.4,0.4-0.4,0.6l0.1,0.4l0.2,0.1h15.9c0.1-0.2,0.2-0.4,0.2-0.6l-0.1-0.5l-5.5-0.1v-47.3h5.4
	c0.3-0.2,0.5-0.4,0.5-0.6C455.2,288.3,455.1,288.2,454.8,288 M402.9,287.4c-1,0-2,0.4-2.9,1.2c-0.9,0.8-1.9,2.6-2.9,5.4V288H387
	c-0.2,0-0.3,0.1-0.4,0.2c-0.1,0.1-0.2,0.2-0.2,0.4c0,0.2,0,0.3,0.2,0.4c0.1,0.1,0.3,0.2,0.4,0.2h1.9v47.3H387
	c-0.2,0-0.3,0.1-0.4,0.2c-0.1,0.1-0.2,0.2-0.2,0.4c0,0.2,0.1,0.3,0.2,0.4c0.1,0.1,0.2,0.2,0.4,0.2h12.4c0.2,0,0.4-0.1,0.6-0.2
	l0.1-0.4c0-0.1-0.1-0.3-0.2-0.4c-0.1-0.1-0.3-0.2-0.5-0.2H397V303c0-3.1,0.4-5.8,1.1-8.3c0.7-2.4,1.5-4.1,2.4-5
	c0.5-0.6,1.1-0.8,1.7-0.8c0.3,0,0.6,0.1,0.8,0.3c0.2,0.2,0.3,0.4,0.3,0.7c0,0.3-0.3,1-0.9,1.9c-1.2,1.8-1.8,3.7-1.8,5.7
	c0,2,0.4,3.5,1.3,4.6c0.6,0.8,1.4,1.2,2.3,1.2c1.1,0,2.2-0.6,3.1-1.8c0.9-1.2,1.4-2.9,1.4-5.2c0-2.7-0.7-5-2.1-6.8
	C405.5,288.1,404.3,287.4,402.9,287.4 M194.5,311.7h-4.8V292c0-1.2,0.3-2.1,0.8-2.7c0.5-0.6,1.1-0.9,1.8-0.9c0.7,0,1.2,0.2,1.5,0.7
	c0.5,0.6,0.7,1.6,0.7,2.9V311.7z M192.6,287.4c-2.7,0-5.1,1.4-7,4.1c-2.7,3.8-4.1,9.4-4.1,16.8v6.8c0,9.6,1,15.9,3,18.8
	c2,2.9,4.5,4.3,7.6,4.3c3.3,0,5.9-1.9,7.8-5.6c1.9-3.7,2.9-8.4,2.9-13.9c0-0.9-0.1-1.5-0.2-1.8c-0.1-0.2-0.3-0.3-0.5-0.3
	c-0.2,0-0.4,0.1-0.6,0.4c-0.1,0.2-0.2,1.3-0.3,3.1c-0.2,5.6-1.4,10.1-3.6,13.4c-1.4,1.9-2.9,2.9-4.6,2.9c-1,0-1.8-0.3-2.3-1
	c-0.6-0.9-0.9-2.6-0.9-5.3v-17.2h13v-7.6c0-5-0.9-9.2-2.7-12.7C198.4,289.2,195.8,287.4,192.6,287.4 M62.3,211.8
	c7,1.5,10.2,7.4,10.2,19.5c0,0,0,77.9,0,77.9c-0.1,16.5-9.6,28.6-24.2,28.8c0,0,0,0,0,0c-15,0-23.4-14-23.4-28.9
	c0-15,8.4-28.9,23.4-28.9h12.6c1.6,0,2.2,0.1,2.2-1c0-1-0.7-1-2.2-1l-12.6,0c-10.8,0-15.9-9.6-15.9-20.4c0-10.8,5.1-20.4,15.9-20.8
	c5.7-0.2,11.5,2.4,14.9,6.6c0.6,0.7,1.6,0.9,2.3,0.5c1-0.5,0.6-1.4,0.1-2.1c-4.2-5-10.3-6.9-17.2-6.9c-13.9,0-26.9,7-26.9,22.7
	c0,12.7,7.6,19.6,14.7,21c-12,4.9-22.1,13-22.1,30.3c0,21,16.3,30.9,34.4,30.9c0,0,0,0,0,0c23.8,0,30.6-14.4,30.6-29.7v-77.9
	C78.9,215.9,70.2,211.8,62.3,211.8 M129.5,278.8c7.1-1.4,14.7-8.3,14.7-21c0-15.7-13-22.7-26.9-22.7c-7,0-13.1,1.9-17.2,6.9
	c-0.5,0.6-0.9,1.6,0.1,2.1c0.7,0.3,1.7,0.2,2.3-0.5c3.4-4.2,9.2-6.8,14.9-6.6c10.8,0.4,15.9,10,15.9,20.8c0,10.8-5.1,20.4-15.9,20.4
	l-12.6,0c-1.6,0-2.2-0.1-2.2,1c0,1,0.7,1,2.2,1h12.6c15,0,23.4,14,23.4,28.9c0,15-8.4,28.9-23.4,28.9c0,0,0,0,0,0
	c-14.6-0.1-24.1-12.3-24.2-28.8c0,0,0-77.9,0-77.9c0-12.1,3.2-18,10.2-19.5c-8,0-16.6,4-16.6,20.5v77.9c0,15.3,6.8,29.7,30.6,29.7
	c0,0,0,0,0,0c18.1,0,34.4-9.8,34.4-30.9C151.6,291.8,141.4,283.6,129.5,278.8"/>
</svg>
