<?xml version="1.0" encoding="utf-8"?>
<!-- Generator: Adobe Illustrator 26.3.1, SVG Export Plug-In . SVG Version: 6.00 Build 0)  -->
<svg version="1.1" id="Layer_1" xmlns="http://www.w3.org/2000/svg" xmlns:xlink="http://www.w3.org/1999/xlink" x="0px" y="0px"
	 viewBox="0 0 566.9 566.9" style="enable-background:new 0 0 566.9 566.9;" xml:space="preserve">
<style type="text/css">
	.st0{fill:#EC1C24;}
	.st1{fill:#231F20;}
</style>
<g>
	<g>
		<polygon class="st0" points="160.8,246.1 184.9,239.7 178,213.9 152.2,220.8 159,246.1 128.5,246.1 128.5,272.8 155.2,272.8 
			155.2,299.5 181.9,299.5 181.9,272.8 208.6,272.8 208.6,246.1 		"/>
		<path class="st1" d="M26.4,290.6c1,0.2,2.8,0.2,4.3,0.2c11.2,0.1,18.5-6,18.5-19c0-11.3-6.6-17.2-17.2-17.2
			c-2.7,0-4.5,0.2-5.5,0.5V290.6z M14.2,246.5c4.5-0.7,10.4-1.2,16.5-1.2c10.4,0,17.1,1.9,22.3,5.8c5.6,4.2,9.2,10.9,9.2,20.4
			c0,10.4-3.8,17.5-8.9,22c-5.7,4.7-14.5,7-25.1,7c-6.4,0-10.9-0.4-13.9-0.8V246.5z"/>
		<path class="st1" d="M82.3,269.7h4.8c6.1,0,9.7-3.1,9.7-7.8c0-4.9-3.4-7.5-9-7.5c-3,0-4.7,0.2-5.5,0.4V269.7z M70.2,246.4
			c3.9-0.6,9.7-1.1,16.3-1.1c8,0,13.7,1.2,17.5,4.3c3.3,2.6,5.1,6.4,5.1,11.4c0,6.8-4.9,11.6-9.6,13.3v0.2c3.8,1.5,5.9,5.1,7.2,10.1
			c1.7,6.2,3.3,13.3,4.3,15.4H98.6c-0.8-1.6-2.2-6-3.7-12.6c-1.5-6.8-3.9-8.6-8.9-8.7h-3.6v21.3H70.2V246.4z"/>
		<path class="st1" d="M237.4,299.9l-12.9-54.2h13.1l4.1,22.3c1.2,6.5,2.3,13.5,3.2,19h0.2c0.9-5.9,2.2-12.4,3.5-19.1l4.6-22.1h13
			l4.3,22.8c1.2,6.4,2.1,12.1,2.9,18.2h0.2c0.8-6,2-12.4,3.1-18.9l4.4-22.1h12.5l-14,54.2h-13.3l-4.6-23.3c-1-5.5-1.9-10.5-2.6-16.7
			h-0.2c-1,6.1-1.8,11.3-3.1,16.7l-5.1,23.3H237.4z"/>
		<path class="st1" d="M322.1,276.8l-3.4-11.5c-1-3.2-1.9-7.2-2.7-10.5h-0.2c-0.8,3.2-1.6,7.3-2.5,10.5l-3.2,11.5H322.1z M308.4,286
			l-3.9,13.9h-12.6l16.5-54.2h16.1l16.9,54.2h-13.3l-4.2-13.9H308.4z"/>
		<path class="st1" d="M360.7,269.7h4.8c6.1,0,9.7-3.1,9.7-7.8c0-4.9-3.4-7.5-9-7.5c-3,0-4.7,0.2-5.5,0.4V269.7z M348.5,246.4
			c3.9-0.6,9.7-1.1,16.3-1.1c8,0,13.7,1.2,17.5,4.3c3.3,2.6,5.1,6.4,5.1,11.4c0,6.8-4.9,11.6-9.6,13.3v0.2c3.8,1.5,5.9,5.1,7.2,10.1
			c1.7,6.2,3.3,13.3,4.3,15.4h-12.6c-0.8-1.6-2.2-6-3.7-12.6c-1.5-6.8-3.9-8.6-8.9-8.7h-3.6v21.3h-12.1V246.4z"/>
		<path class="st1" d="M396.6,287.2c3.2,1.7,8.4,3.4,13.6,3.4c5.6,0,8.6-2.3,8.6-5.9c0-3.4-2.6-5.3-9.1-7.6c-9-3.2-15-8.2-15-16.1
			c0-9.3,7.8-16.3,20.5-16.3c6.2,0,10.6,1.2,13.8,2.7l-2.7,9.8c-2.1-1-6-2.6-11.3-2.6c-5.3,0-7.9,2.5-7.9,5.2c0,3.5,3,5,10.1,7.6
			c9.6,3.5,14,8.5,14,16.2c0,9.1-6.9,16.8-21.8,16.8c-6.2,0-12.3-1.7-15.4-3.4L396.6,287.2z"/>
		<path class="st1" d="M466,276.8l-3.4-11.5c-1-3.2-1.9-7.2-2.7-10.5h-0.2c-0.8,3.2-1.6,7.3-2.5,10.5l-3.2,11.5H466z M452.3,286
			l-3.9,13.9h-12.6l16.5-54.2h16.1l16.9,54.2H472l-4.2-13.9H452.3z"/>
		<path class="st1" d="M496.4,299.9l-12.9-54.2h13.1l4.1,22.3c1.2,6.5,2.3,13.5,3.2,19h0.2c0.9-5.9,2.2-12.4,3.5-19.1l4.6-22.1h13
			l4.3,22.8c1.2,6.4,2.1,12.1,2.9,18.2h0.2c0.8-6,2-12.4,3.1-18.9l4.4-22.1h12.5l-14,54.2h-13.3l-4.6-23.3c-1-5.5-1.9-10.5-2.6-16.7
			h-0.2c-1,6.1-1.8,11.3-3.1,16.7l-5.1,23.3H496.4z"/>
	</g>
	<rect x="14.2" y="315.1" class="st1" width="526.3" height="1.3"/>
	<g>
		<path class="st1" d="M16.2,329.7h2.3v8.5h0.1c0.5-0.7,0.9-1.3,1.4-1.9l5.4-6.6H28l-6.4,7.4l6.8,10.1h-2.7l-5.8-8.6l-1.7,1.9v6.7
			h-2.3V329.7z"/>
		<path class="st1" d="M30.4,328.8h2.3v18.5h-2.3V328.8z"/>
		<path class="st1" d="M39.1,331.1c0,0.8-0.5,1.4-1.5,1.4c-0.8,0-1.4-0.6-1.4-1.4c0-0.8,0.6-1.4,1.4-1.4
			C38.6,329.7,39.1,330.3,39.1,331.1z M36.6,347.3v-12.6h2.3v12.6H36.6z"/>
		<path class="st1" d="M42.7,338.1c0-1.3,0-2.4-0.1-3.4h2l0.1,2.1h0.1c0.6-1.2,2.1-2.4,4.2-2.4c1.7,0,4.5,1,4.5,5.4v7.5h-2.3V340
			c0-2-0.8-3.7-2.9-3.7c-1.5,0-2.7,1.1-3.1,2.3c-0.1,0.3-0.2,0.7-0.2,1.1v7.6h-2.3V338.1z"/>
		<path class="st1" d="M59.7,331.1c0,0.8-0.5,1.4-1.5,1.4c-0.8,0-1.4-0.6-1.4-1.4c0-0.8,0.6-1.4,1.4-1.4
			C59.1,329.7,59.7,330.3,59.7,331.1z M57.1,347.3v-12.6h2.3v12.6H57.1z"/>
		<path class="st1" d="M65.5,340.5L65.5,340.5c0.4-0.4,0.8-1,1.2-1.4l3.7-4.3h2.8l-4.9,5.2l5.5,7.4H71l-4.3-6l-1.2,1.3v4.7h-2.3
			v-18.5h2.3V340.5z"/>
		<path class="st1" d="M82.9,347.3l-0.2-1.6h-0.1c-0.7,1-2.1,1.9-3.9,1.9c-2.6,0-3.9-1.8-3.9-3.6c0-3,2.7-4.7,7.6-4.7V339
			c0-1-0.3-2.9-2.9-2.9c-1.2,0-2.4,0.4-3.3,0.9l-0.5-1.5c1-0.7,2.6-1.1,4.1-1.1c3.9,0,4.8,2.6,4.8,5.2v4.7c0,1.1,0.1,2.2,0.2,3H82.9
			z M82.5,340.8c-2.5-0.1-5.3,0.4-5.3,2.8c0,1.5,1,2.2,2.2,2.2c1.6,0,2.7-1,3-2.1c0.1-0.2,0.1-0.5,0.1-0.7V340.8z"/>
		<path class="st1" d="M93.7,344.5c1,0.6,2.5,1.1,4.1,1.1c2.3,0,3.7-1.2,3.7-3c0-1.6-0.9-2.6-3.3-3.5c-2.9-1-4.6-2.5-4.6-5
			c0-2.7,2.3-4.8,5.7-4.8c1.8,0,3.1,0.4,3.9,0.9l-0.6,1.8c-0.6-0.3-1.7-0.8-3.3-0.8c-2.4,0-3.3,1.4-3.3,2.6c0,1.6,1.1,2.4,3.5,3.4
			c3,1.1,4.5,2.6,4.5,5.2c0,2.7-2,5-6.1,5c-1.7,0-3.5-0.5-4.5-1.1L93.7,344.5z"/>
		<path class="st1" d="M106.8,338.8c0-1.6-0.1-2.9-0.1-4.1h2.1l0.1,2.2h0.1c0.9-1.5,2.4-2.4,4.5-2.4c3,0,5.3,2.6,5.3,6.4
			c0,4.5-2.8,6.8-5.7,6.8c-1.7,0-3.1-0.7-3.9-2H109v6.8h-2.3V338.8z M109,342.1c0,0.3,0.1,0.7,0.1,0.9c0.4,1.6,1.8,2.7,3.4,2.7
			c2.4,0,3.8-2,3.8-4.9c0-2.5-1.3-4.7-3.7-4.7c-1.6,0-3,1.1-3.5,2.8c-0.1,0.3-0.2,0.6-0.2,0.9V342.1z"/>
		<path class="st1" d="M122.8,341.4c0.1,3.1,2,4.4,4.3,4.4c1.6,0,2.6-0.3,3.5-0.7l0.4,1.6c-0.8,0.4-2.2,0.8-4.2,0.8
			c-3.9,0-6.2-2.5-6.2-6.3c0-3.8,2.2-6.8,5.9-6.8c4.1,0,5.2,3.6,5.2,5.9c0,0.5-0.1,0.8-0.1,1.1H122.8z M129.6,339.7
			c0-1.5-0.6-3.7-3.2-3.7c-2.3,0-3.3,2.1-3.5,3.7H129.6z"/>
		<path class="st1" d="M143.6,346.8c-0.6,0.3-1.9,0.7-3.6,0.7c-3.8,0-6.3-2.6-6.3-6.4c0-3.9,2.7-6.7,6.8-6.7c1.4,0,2.6,0.3,3.2,0.7
			l-0.5,1.8c-0.5-0.3-1.4-0.6-2.7-0.6c-2.9,0-4.5,2.1-4.5,4.8c0,2.9,1.9,4.7,4.4,4.7c1.3,0,2.2-0.3,2.8-0.6L143.6,346.8z"/>
		<path class="st1" d="M143.2,350.9c1-0.1,2-0.4,2.5-1c0.6-0.7,0.9-1.7,0.9-4.7v-10.5h2.3v11.4c0,2.4-0.4,4-1.5,5.2
			c-1,1-2.7,1.4-3.9,1.4L143.2,350.9z M149.1,331.1c0,0.8-0.5,1.4-1.4,1.4c-0.9,0-1.4-0.7-1.4-1.4c0-0.8,0.6-1.4,1.5-1.4
			C148.6,329.7,149.1,330.3,149.1,331.1z"/>
		<path class="st1" d="M159.6,347.3l-0.2-1.6h-0.1c-0.7,1-2.1,1.9-3.9,1.9c-2.6,0-3.9-1.8-3.9-3.6c0-3,2.7-4.7,7.6-4.7V339
			c0-1-0.3-2.9-2.9-2.9c-1.2,0-2.4,0.4-3.3,0.9l-0.5-1.5c1-0.7,2.6-1.1,4.1-1.1c3.9,0,4.8,2.6,4.8,5.2v4.7c0,1.1,0.1,2.2,0.2,3
			H159.6z M159.2,340.8c-2.5-0.1-5.3,0.4-5.3,2.8c0,1.5,1,2.2,2.2,2.2c1.6,0,2.7-1,3-2.1c0.1-0.2,0.1-0.5,0.1-0.7V340.8z"/>
		<path class="st1" d="M165.1,328.8h2.3v18.5h-2.3V328.8z"/>
		<path class="st1" d="M173.8,331.1c0,0.8-0.5,1.4-1.5,1.4c-0.8,0-1.4-0.6-1.4-1.4c0-0.8,0.6-1.4,1.4-1.4
			C173.3,329.7,173.8,330.3,173.8,331.1z M171.3,347.3v-12.6h2.3v12.6H171.3z"/>
		<path class="st1" d="M177.1,344.9c0.7,0.4,1.9,0.9,3,0.9c1.7,0,2.4-0.8,2.4-1.9c0-1.1-0.7-1.7-2.3-2.3c-2.3-0.8-3.3-2.1-3.3-3.6
			c0-2,1.6-3.7,4.3-3.7c1.3,0,2.4,0.4,3.1,0.8l-0.6,1.7c-0.5-0.3-1.4-0.7-2.6-0.7c-1.4,0-2.1,0.8-2.1,1.7c0,1,0.8,1.5,2.4,2.1
			c2.2,0.8,3.3,1.9,3.3,3.8c0,2.2-1.7,3.8-4.7,3.8c-1.4,0-2.7-0.3-3.5-0.9L177.1,344.9z"/>
		<path class="st1" d="M190.4,331.1v3.6h3.3v1.7h-3.3v6.8c0,1.6,0.4,2.4,1.7,2.4c0.6,0,1-0.1,1.3-0.2l0.1,1.7
			c-0.4,0.2-1.1,0.3-2,0.3c-1.1,0-1.9-0.3-2.5-1c-0.7-0.7-0.9-1.8-0.9-3.3v-6.9h-2v-1.7h2v-3L190.4,331.1z"/>
		<path class="st1" d="M197.4,334.7l2.8,7.4c0.3,0.8,0.6,1.8,0.8,2.6h0.1c0.2-0.8,0.5-1.7,0.8-2.6l2.5-7.4h2.4l-3.4,9
			c-1.6,4.3-2.8,6.5-4.3,7.9c-1.1,1-2.2,1.4-2.8,1.5l-0.6-1.9c0.6-0.2,1.3-0.5,2-1.1c0.6-0.5,1.4-1.4,1.9-2.6
			c0.1-0.2,0.2-0.4,0.2-0.5s-0.1-0.3-0.2-0.6l-4.7-11.6H197.4z"/>
		<path class="st1" d="M217.5,346.8c-0.6,0.3-1.9,0.7-3.6,0.7c-3.8,0-6.3-2.6-6.3-6.4c0-3.9,2.7-6.7,6.8-6.7c1.4,0,2.6,0.3,3.2,0.7
			l-0.5,1.8c-0.5-0.3-1.4-0.6-2.7-0.6c-2.9,0-4.5,2.1-4.5,4.8c0,2.9,1.9,4.7,4.4,4.7c1.3,0,2.2-0.3,2.8-0.6L217.5,346.8z"/>
		<path class="st1" d="M218.7,345.9l5.7-7.4c0.5-0.7,1.1-1.3,1.6-2v-0.1h-6.8v-1.8h9.6l0,1.4l-5.6,7.3c-0.5,0.7-1,1.3-1.6,2v0.1h7.4
			v1.8h-10.2V345.9z"/>
		<path class="st1" d="M231.3,338.1c0-1.3,0-2.4-0.1-3.4h2l0.1,2.1h0.1c0.6-1.2,2.1-2.4,4.2-2.4c1.7,0,4.5,1,4.5,5.4v7.5h-2.3V340
			c0-2-0.8-3.7-2.9-3.7c-1.5,0-2.7,1.1-3.1,2.3c-0.1,0.3-0.2,0.7-0.2,1.1v7.6h-2.3V338.1z"/>
		<path class="st1" d="M252.7,347.3l-0.2-1.6h-0.1c-0.7,1-2.1,1.9-3.9,1.9c-2.6,0-3.9-1.8-3.9-3.6c0-3,2.7-4.7,7.6-4.7V339
			c0-1-0.3-2.9-2.9-2.9c-1.2,0-2.4,0.4-3.3,0.9l-0.5-1.5c1-0.7,2.6-1.1,4.1-1.1c3.9,0,4.8,2.6,4.8,5.2v4.7c0,1.1,0.1,2.2,0.2,3
			H252.7z M252.4,340.8c-2.5-0.1-5.3,0.4-5.3,2.8c0,1.5,1,2.2,2.2,2.2c1.6,0,2.7-1,3-2.1c0.1-0.2,0.1-0.5,0.1-0.7V340.8z"/>
		<path class="st1" d="M266.4,331.1c0,0.8-0.5,1.4-1.5,1.4c-0.8,0-1.4-0.6-1.4-1.4c0-0.8,0.6-1.4,1.4-1.4
			C265.8,329.7,266.4,330.3,266.4,331.1z M263.8,347.3v-12.6h2.3v12.6H263.8z"/>
		<path class="st1" d="M287.8,346.7c-0.8,0.4-2.5,0.8-4.6,0.8c-4.9,0-8.7-3.1-8.7-8.9c0-5.5,3.7-9.2,9.2-9.2c2.2,0,3.6,0.5,4.2,0.8
			l-0.5,1.8c-0.9-0.4-2.1-0.7-3.5-0.7c-4.1,0-6.8,2.6-6.8,7.2c0,4.3,2.5,7.1,6.7,7.1c1.4,0,2.8-0.3,3.7-0.7L287.8,346.7z"/>
		<path class="st1" d="M291.5,341.4c0.1,3.1,2,4.4,4.3,4.4c1.6,0,2.6-0.3,3.5-0.7l0.4,1.6c-0.8,0.4-2.2,0.8-4.2,0.8
			c-3.9,0-6.2-2.5-6.2-6.3c0-3.8,2.2-6.8,5.9-6.8c4.1,0,5.2,3.6,5.2,5.9c0,0.5-0.1,0.8-0.1,1.1H291.5z M298.2,339.7
			c0-1.5-0.6-3.7-3.2-3.7c-2.3,0-3.3,2.1-3.5,3.7H298.2z"/>
		<path class="st1" d="M303.3,338.1c0-1.3,0-2.4-0.1-3.4h2l0.1,2.1h0.1c0.6-1.2,2.1-2.4,4.2-2.4c1.7,0,4.5,1,4.5,5.4v7.5h-2.3V340
			c0-2-0.8-3.7-2.9-3.7c-1.5,0-2.7,1.1-3.1,2.3c-0.1,0.3-0.2,0.7-0.2,1.1v7.6h-2.3V338.1z"/>
		<path class="st1" d="M320.4,331.1v3.6h3.3v1.7h-3.3v6.8c0,1.6,0.4,2.4,1.7,2.4c0.6,0,1-0.1,1.3-0.2l0.1,1.7
			c-0.4,0.2-1.1,0.3-2,0.3c-1.1,0-1.9-0.3-2.5-1c-0.7-0.7-0.9-1.8-0.9-3.3v-6.9h-2v-1.7h2v-3L320.4,331.1z"/>
		<path class="st1" d="M326.2,338.6c0-1.5,0-2.8-0.1-3.9h2l0.1,2.5h0.1c0.6-1.7,2-2.8,3.5-2.8c0.3,0,0.4,0,0.7,0.1v2.2
			c-0.2-0.1-0.5-0.1-0.8-0.1c-1.6,0-2.8,1.2-3.1,2.9c-0.1,0.3-0.1,0.7-0.1,1.1v6.7h-2.3V338.6z"/>
		<path class="st1" d="M345.3,343.8c0,1.3,0,2.4,0.1,3.4h-2l-0.1-2.1h-0.1c-0.6,1-1.9,2.3-4.2,2.3c-2,0-4.3-1.1-4.3-5.5v-7.4h2.3v7
			c0,2.4,0.7,4,2.8,4c1.5,0,2.6-1.1,3-2.1c0.1-0.3,0.2-0.8,0.2-1.2v-7.7h2.3V343.8z"/>
		<path class="st1" d="M349.1,338.1c0-1.3,0-2.4-0.1-3.4h2l0.1,2h0.1c0.7-1.2,1.9-2.3,4-2.3c1.7,0,3,1,3.6,2.5h0.1
			c0.4-0.7,0.9-1.3,1.4-1.6c0.8-0.6,1.6-0.9,2.8-0.9c1.7,0,4.1,1.1,4.1,5.5v7.4h-2.2v-7.1c0-2.4-0.9-3.9-2.7-3.9
			c-1.3,0-2.3,1-2.7,2.1c-0.1,0.3-0.2,0.7-0.2,1.1v7.8H357v-7.5c0-2-0.9-3.5-2.6-3.5c-1.4,0-2.5,1.1-2.8,2.3
			c-0.1,0.3-0.2,0.7-0.2,1.1v7.6h-2.2V338.1z"/>
		<path class="st1" d="M376.4,330c1.1-0.2,2.8-0.4,4.3-0.4c2.4,0,4,0.4,5.1,1.4c0.9,0.8,1.4,2,1.4,3.3c0,2.3-1.5,3.9-3.3,4.5v0.1
			c1.4,0.5,2.2,1.7,2.6,3.5c0.6,2.4,1,4.1,1.4,4.8h-2.3c-0.3-0.5-0.7-2-1.2-4.2c-0.5-2.4-1.5-3.3-3.5-3.4h-2.1v7.6h-2.3V330z
			 M378.6,338h2.3c2.4,0,4-1.3,4-3.3c0-2.3-1.6-3.3-4-3.3c-1.1,0-1.9,0.1-2.2,0.2V338z"/>
		<path class="st1" d="M391.7,341.4c0.1,3.1,2,4.4,4.3,4.4c1.6,0,2.6-0.3,3.5-0.7l0.4,1.6c-0.8,0.4-2.2,0.8-4.2,0.8
			c-3.9,0-6.2-2.5-6.2-6.3c0-3.8,2.2-6.8,5.9-6.8c4.1,0,5.2,3.6,5.2,5.9c0,0.5-0.1,0.8-0.1,1.1H391.7z M398.4,339.7
			c0-1.5-0.6-3.7-3.2-3.7c-2.3,0-3.3,2.1-3.5,3.7H398.4z"/>
		<path class="st1" d="M403.4,328.8h2.3v7.9h0.1c0.4-0.7,0.9-1.2,1.6-1.6c0.7-0.4,1.5-0.7,2.3-0.7c1.7,0,4.4,1,4.4,5.4v7.5h-2.3V340
			c0-2-0.8-3.7-2.9-3.7c-1.5,0-2.7,1-3.1,2.3c-0.1,0.3-0.2,0.7-0.2,1.1v7.6h-2.3V328.8z"/>
		<path class="st1" d="M424.9,347.3l-0.2-1.6h-0.1c-0.7,1-2.1,1.9-3.9,1.9c-2.6,0-3.9-1.8-3.9-3.6c0-3,2.7-4.7,7.6-4.7V339
			c0-1-0.3-2.9-2.9-2.9c-1.2,0-2.4,0.4-3.3,0.9l-0.5-1.5c1-0.7,2.5-1.1,4.1-1.1c3.9,0,4.8,2.6,4.8,5.2v4.7c0,1.1,0.1,2.2,0.2,3
			H424.9z M424.5,340.8c-2.5-0.1-5.3,0.4-5.3,2.8c0,1.5,1,2.2,2.2,2.2c1.6,0,2.7-1,3-2.1c0.1-0.2,0.1-0.5,0.1-0.7V340.8z"/>
		<path class="st1" d="M430.3,347.3c0.1-0.9,0.1-2.1,0.1-3.3v-15.2h2.3v7.9h0.1c0.8-1.4,2.3-2.3,4.3-2.3c3.1,0,5.3,2.6,5.3,6.4
			c0,4.5-2.8,6.7-5.7,6.7c-1.8,0-3.3-0.7-4.2-2.4h-0.1l-0.1,2.1H430.3z M432.7,342.2c0,0.3,0.1,0.6,0.1,0.8c0.4,1.6,1.8,2.7,3.4,2.7
			c2.4,0,3.8-2,3.8-4.8c0-2.5-1.3-4.7-3.7-4.7c-1.6,0-3,1.1-3.5,2.8c-0.1,0.3-0.1,0.6-0.1,0.9V342.2z"/>
		<path class="st1" d="M447.8,331.1c0,0.8-0.5,1.4-1.5,1.4c-0.8,0-1.4-0.6-1.4-1.4c0-0.8,0.6-1.4,1.4-1.4
			C447.2,329.7,447.8,330.3,447.8,331.1z M445.2,347.3v-12.6h2.3v12.6H445.2z"/>
		<path class="st1" d="M451.3,328.8h2.3v18.5h-2.3V328.8z"/>
		<path class="st1" d="M460,331.1c0,0.8-0.5,1.4-1.5,1.4c-0.8,0-1.4-0.6-1.4-1.4c0-0.8,0.6-1.4,1.4-1.4
			C459.5,329.7,460,330.3,460,331.1z M457.5,347.3v-12.6h2.3v12.6H457.5z"/>
		<path class="st1" d="M466.3,331.1v3.6h3.3v1.7h-3.3v6.8c0,1.6,0.4,2.4,1.7,2.4c0.6,0,1-0.1,1.3-0.2l0.1,1.7
			c-0.4,0.2-1.1,0.3-2,0.3c-1.1,0-1.9-0.3-2.5-1c-0.7-0.7-0.9-1.8-0.9-3.3v-6.9h-2v-1.7h2v-3L466.3,331.1z"/>
		<path class="st1" d="M479.1,347.3l-0.2-1.6h-0.1c-0.7,1-2.1,1.9-3.9,1.9c-2.6,0-3.9-1.8-3.9-3.6c0-3,2.7-4.7,7.6-4.7V339
			c0-1-0.3-2.9-2.9-2.9c-1.2,0-2.4,0.4-3.3,0.9l-0.5-1.5c1-0.7,2.5-1.1,4.1-1.1c3.9,0,4.8,2.6,4.8,5.2v4.7c0,1.1,0.1,2.2,0.2,3
			H479.1z M478.8,340.8c-2.5-0.1-5.3,0.4-5.3,2.8c0,1.5,1,2.2,2.2,2.2c1.6,0,2.7-1,3-2.1c0.1-0.2,0.1-0.5,0.1-0.7V340.8z"/>
		<path class="st1" d="M493.7,346.8c-0.6,0.3-1.9,0.7-3.6,0.7c-3.8,0-6.3-2.6-6.3-6.4c0-3.9,2.7-6.7,6.8-6.7c1.4,0,2.5,0.3,3.2,0.7
			l-0.5,1.8c-0.5-0.3-1.4-0.6-2.7-0.6c-2.9,0-4.5,2.1-4.5,4.8c0,2.9,1.9,4.7,4.4,4.7c1.3,0,2.2-0.3,2.8-0.6L493.7,346.8z"/>
		<path class="st1" d="M497.7,334.7l2.8,7.4c0.3,0.8,0.6,1.8,0.8,2.6h0.1c0.2-0.8,0.5-1.7,0.8-2.6l2.5-7.4h2.4l-3.4,9
			c-1.6,4.3-2.8,6.5-4.3,7.9c-1.1,1-2.2,1.4-2.8,1.5l-0.6-1.9c0.6-0.2,1.3-0.5,2-1.1c0.6-0.5,1.4-1.4,1.9-2.6
			c0.1-0.2,0.2-0.4,0.2-0.5s-0.1-0.3-0.2-0.6l-4.7-11.6H497.7z"/>
		<path class="st1" d="M506,350.9c1-0.1,2-0.4,2.5-1c0.6-0.7,0.9-1.7,0.9-4.7v-10.5h2.3v11.4c0,2.4-0.4,4-1.5,5.2
			c-1,1-2.7,1.4-3.9,1.4L506,350.9z M511.9,331.1c0,0.8-0.5,1.4-1.4,1.4c-0.9,0-1.4-0.7-1.4-1.4c0-0.8,0.6-1.4,1.5-1.4
			C511.4,329.7,511.9,330.3,511.9,331.1z"/>
		<path class="st1" d="M515.4,338.1c0-1.3,0-2.4-0.1-3.4h2l0.1,2.1h0.1c0.6-1.2,2.1-2.4,4.2-2.4c1.7,0,4.5,1,4.5,5.4v7.5h-2.3V340
			c0-2-0.8-3.7-2.9-3.7c-1.5,0-2.7,1.1-3.1,2.3c-0.1,0.3-0.2,0.7-0.2,1.1v7.6h-2.3V338.1z"/>
		<path class="st1" d="M531.1,341.4c0.1,3.1,2,4.4,4.3,4.4c1.6,0,2.6-0.3,3.5-0.7l0.4,1.6c-0.8,0.4-2.2,0.8-4.2,0.8
			c-3.9,0-6.2-2.5-6.2-6.3c0-3.8,2.2-6.8,5.9-6.8c4.1,0,5.2,3.6,5.2,5.9c0,0.5-0.1,0.8-0.1,1.1H531.1z M537.8,339.7
			c0-1.5-0.6-3.7-3.2-3.7c-2.3,0-3.3,2.1-3.5,3.7H537.8z"/>
	</g>
</g>
</svg>
