<?xml version="1.0" encoding="UTF-8"?><svg id="Layer_1" xmlns="http://www.w3.org/2000/svg" viewBox="0 0 566.93 566.93"><defs><style>.cls-1{fill:#ef506c;}</style></defs><path class="cls-1" d="M212.4,56.52c-6.79-6.79-6.79-17.81,0-24.6,6.79-6.79,17.81-6.79,24.6,0,6.79,6.79,6.79,17.81,0,24.6-6.79,6.79-17.81,6.79-24.6,0Zm-26.33,66.28c14.02,0,25.38-11.36,25.38-25.38s-11.36-25.38-25.38-25.38-25.38,11.36-25.38,25.38,11.36,25.38,25.38,25.38Zm25.15,58.21c0-19.48-15.79-35.27-35.27-35.27s-35.27,15.79-35.27,35.27,15.79,35.27,35.27,35.27,35.27-15.79,35.27-35.27Zm212.98,21.7l-22.59-41.02c-1.36-2.39-2.16-5.15-2.16-8.1,.08-3.75,1.17-7.74,1.74-11.91,7.78-57.3-39.72-127.51-120.3-127.51-8.9,0-16.12,7.22-16.12,16.12s7.22,16.12,16.12,16.12c.86,0,1.73-.06,2.56-.19,.67-.08,1.35-.13,2.03-.13,8.91,0,16.13,7.22,16.13,16.13s-7.22,16.13-16.13,16.13c-3.47,0-6.82-1.14-9.45-3-4.41-3.12-9.77-4.97-15.58-4.97-14.93,0-27.02,12.1-27.02,27.02s12.1,27.02,27.02,27.02c6.08,0,11.86-2.13,16.38-5.52,2.62-1.9,5.84-3.01,9.32-3.01,8.79,0,15.91,7.12,15.91,15.91s-7.12,15.91-15.91,15.91c-1.8,0-3.58-.22-5.2-.78-3.93-1.45-8.16-2.29-12.59-2.29-20.07,0-36.34,16.27-36.34,36.34,0,15.21,9.35,28.21,22.6,33.63,6.72,2.88,11.43,9.55,11.43,17.32,0,10.4-8.43,18.84-18.84,18.84-4.89,0-9.38-1.86-12.73-4.91-6.86-6.69-16.22-10.82-26.56-10.82-21.03,0-38.09,17.05-38.09,38.09s17.05,38.09,38.09,38.09c24.27,0,35.03-9.34,45.26-9.34,5.46,0,9.89,4.42,9.91,9.88h0s0,.02,0,.04c0,27.81-10.87,41.88-41.29,41.88v7.27h123.32v-7.27c-30.42,0-41.29-14.07-41.29-41.88,0-.01,0-.02,0-.04,0-5.48,4.44-9.88,9.91-9.88,15.36,0,17.63,4.45,41.9,4.45,22.09,0,34.73-6.52,40.17-26.99,4.88-18.33,10.71-46.05,10.71-46.05,.8-3.32,3.43-5.93,6.77-6.69,7.39-1.57,12.94-8.14,12.94-16,0-2.87-.74-5.57-2.04-7.91ZM126.4,546.57h-10.96l-1.3,5.11h-15.68l13.47-37.4c.61-1.69,2.21-2.81,4-2.81h10.25c1.8,0,3.41,1.14,4.01,2.83l13.2,37.38h-15.68l-1.3-5.11Zm-2.56-9.66l-1.08-4.2c-.57-2.16-1.36-5.9-1.76-9.83h-.28c-.4,3.92-1.19,7.67-1.76,9.83l-1.08,4.2h5.96Zm121.8-13.52v-11.92h36.46v11.92h-11.53v28.29h-13.4v-28.29h-11.53Zm83.76-11.92v40.21h-13.18v-40.21h13.18Zm33.56,0h15.67l4.66,18.97c.51,2.16,1.36,5.34,1.76,9.26h.28c.4-3.92,1.25-7.1,1.76-9.26l4.54-18.97h15.68l-13.09,37.37c-.6,1.7-2.2,2.84-4.01,2.84h-10.21c-1.81,0-3.42-1.14-4.01-2.85l-13.03-37.36Zm104.32,0l1.19,11.02h-14.43v3.69h12.44v10.39h-12.44v4.09h14.43l-1.19,11.02h-17.91c-4.69,0-8.5-3.8-8.5-8.5v-23.22c0-4.69,3.8-8.5,8.5-8.5h17.91Zm-272.12,41.29c7.38,0,14.25-3.18,17.95-9.71l-9.33-5.53c-.85-.5-1.98-.39-2.61,.37-1.45,1.73-3.26,2.38-5.16,2.38-4.37,0-7.84-3.35-7.84-8.69s3.52-8.74,7.61-8.74c2.08,0,3.95,.66,5.38,2.37,.63,.75,1.76,.87,2.6,.37l9.34-5.52c-3.69-6.53-10.51-9.71-17.89-9.71-11.87,0-21.58,8.35-21.58,21.24s9.54,21.19,21.52,21.19Zm-45.24-155.64l1.94,17.73h-29.02c-2.35,0-4.25,1.9-4.25,4.25v13.24h29.75v17h-29.75v33.76h-20.89v-68.98c0-9.39,7.61-17,17-17h35.22Zm84.98,70.31h-31.09l-5.22,15.66h-24.41l31.41-80.56c1.27-3.26,4.42-5.41,7.92-5.41h12.28c3.52,0,6.67,2.17,7.93,5.45l30.93,80.52h-24.41l-5.34-15.66Zm-5.22-15.79l-5.58-16.39c-1.58-5.1-3.4-11.66-4.62-18.46h-.49c-1.09,6.8-2.91,13.36-4.61,18.46l-5.46,16.39h20.76Zm237.6-54.52l1.94,17.73h-30.48c-2.35,0-4.25,1.9-4.25,4.25v11.78h31.09v17h-31.09v13.24c0,2.35,1.9,4.25,4.25,4.25h30.48l-1.94,17.73h-36.68c-9.39,0-17-7.61-17-17v-51.98c0-9.39,7.61-17,17-17h36.68Zm-176.05,42.99c0-26.96,20.03-45.41,45.54-45.41,16.51,0,30.6,7.17,38.62,21.73l-13.83,8.41c-1.87,1.14-4.3,.65-5.59-1.11-4.56-6.22-10.94-9.25-18.47-9.25-13.12,0-23.44,10.32-23.44,25.62s10.32,25.5,23.8,25.5c7.67,0,13.6-2.53,18.33-9.09,1.31-1.82,3.78-2.37,5.69-1.19l13.74,8.46c-8.38,14.57-22.22,21.61-38.98,21.61-25.62,0-45.42-18.58-45.42-45.29Z"/></svg>