<?xml version="1.0" encoding="UTF-8"?><svg id="Layer_1" xmlns="http://www.w3.org/2000/svg" viewBox="0 0 566.93 566.93"><defs><style>.cls-1{fill:#44b2e8;}</style></defs><path class="cls-1" d="M206.82,512.46v26.64c0,.94,.76,1.7,1.7,1.7h14.46l-1.48,11.95h-19.37c-4.7,0-8.52-3.81-8.52-8.52v-31.78h13.21Zm79.5,35.17h-10.99l-1.31,5.12h-15.71l13.5-37.48c.61-1.69,2.21-2.81,4.01-2.81h10.27c1.8,0,3.41,1.14,4.01,2.84l13.23,37.45h-15.71l-1.31-5.12Zm-2.56-9.68l-1.08-4.21c-.57-2.16-1.37-5.92-1.77-9.85h-.28c-.4,3.93-1.2,7.68-1.77,9.85l-1.08,4.21h5.98Zm57.19-21.24c0-2.35,1.91-4.26,4.26-4.26h11.05c10.42,0,15.19,4.15,15.19,10.76,0,4.04-2.73,7.34-6.66,8.48v.12c5.52,1.36,8.54,4.61,8.54,9.56,0,7.28-5.12,11.38-16.33,11.38h-11.79c-2.35,0-4.26-1.91-4.26-4.26v-31.78Zm14.74,10.88c2.39,0,3.47-1.02,3.47-2.62,0-1.82-1.08-2.84-3.47-2.84h-1.54v5.46h1.54Zm.63,15.08c2.9,0,4.27-1.19,4.27-3.24,0-1.88-1.37-3.07-4.27-3.07h-2.16v6.32h2.16ZM212.25,56.61c-6.81-6.81-6.81-17.84,0-24.65,6.81-6.81,17.84-6.81,24.65,0,6.81,6.81,6.81,17.84,0,24.65-6.81,6.81-17.84,6.81-24.65,0Zm-26.38,66.42c14.05,0,25.43-11.39,25.43-25.43s-11.39-25.43-25.43-25.43-25.43,11.39-25.43,25.43,11.39,25.43,25.43,25.43Zm25.2,58.33c0-19.52-15.82-35.34-35.34-35.34s-35.34,15.82-35.34,35.34,15.82,35.34,35.34,35.34,35.34-15.82,35.34-35.34Zm51.97,131.08h0s0-.02,0-.04v.04Zm161.45-109.34l-22.64-41.1c-1.37-2.39-2.16-5.17-2.16-8.12,.08-3.76,1.17-7.76,1.74-11.93,7.79-57.42-39.8-127.78-120.55-127.78-8.92,0-16.16,7.23-16.16,16.16s7.23,16.16,16.16,16.16c.86,0,1.73-.06,2.56-.19,.67-.08,1.35-.13,2.04-.13,8.93,0,16.17,7.24,16.17,16.17s-7.24,16.17-16.17,16.17c-3.47,0-6.83-1.15-9.47-3.01-4.41-3.12-9.79-4.98-15.61-4.98-14.96,0-27.08,12.12-27.08,27.08s12.12,27.08,27.08,27.08c6.09,0,11.89-2.14,16.41-5.54,2.62-1.9,5.85-3.02,9.34-3.02,8.81,0,15.95,7.14,15.95,15.95s-7.14,15.95-15.95,15.95c-1.8,0-3.59-.22-5.21-.78-3.94-1.46-8.18-2.29-12.62-2.29-20.11,0-36.41,16.3-36.41,36.41,0,15.24,9.37,28.27,22.65,33.7,6.73,2.88,11.46,9.57,11.46,17.36,0,10.43-8.45,18.88-18.88,18.88-4.9,0-9.4-1.86-12.75-4.92-6.88-6.7-16.26-10.84-26.62-10.84-21.08,0-38.17,17.09-38.17,38.17s17.09,38.17,38.17,38.17c24.33,0,35.1-9.36,45.35-9.36,5.47,0,9.91,4.43,9.93,9.9h0s0,.02,0,.04c0,27.87-10.9,41.97-41.38,41.97v7.29h123.58v-7.29c-30.48,0-41.38-14.1-41.38-41.97,0-.01,0-.02,0-.04,0-5.49,4.45-9.9,9.93-9.9,15.39,0,17.66,4.46,41.99,4.46,22.14,0,34.8-6.54,40.26-27.05,4.89-18.37,10.73-46.15,10.73-46.15,.8-3.33,3.44-5.94,6.78-6.7,7.41-1.57,12.97-8.16,12.97-16.04,0-2.88-.74-5.58-2.04-7.93ZM149.64,397.93l1.95,17.77h-29.08c-2.35,0-4.26,1.91-4.26,4.26v13.26h29.81v17.03h-29.81v33.83h-20.93v-69.12c0-9.41,7.62-17.03,17.03-17.03h35.29Zm85.16,70.46h-31.15l-5.23,15.7h-24.46l31.47-80.73c1.27-3.27,4.42-5.42,7.93-5.42h12.3c3.52,0,6.68,2.17,7.95,5.46l31,80.69h-24.46l-5.35-15.7Zm-5.23-15.82l-5.6-16.42c-1.58-5.11-3.41-11.68-4.63-18.5h-.49c-1.09,6.81-2.92,13.38-4.62,18.5l-5.48,16.42h20.81Zm238.09-54.63l1.95,17.77h-30.54c-2.35,0-4.26,1.91-4.26,4.26v11.8h31.15v17.03h-31.15v13.26c0,2.35,1.91,4.26,4.26,4.26h30.54l-1.95,17.77h-36.76c-9.41,0-17.03-7.62-17.03-17.03v-52.09c0-9.41,7.62-17.03,17.03-17.03h36.76Zm-176.42,43.08c0-27.01,20.08-45.51,45.63-45.51,16.55,0,30.66,7.18,38.7,21.78l-13.86,8.43c-1.87,1.14-4.3,.66-5.6-1.11-4.57-6.23-10.96-9.27-18.51-9.27-13.14,0-23.49,10.34-23.49,25.67s10.34,25.55,23.85,25.55c7.68,0,13.63-2.54,18.37-9.11,1.31-1.82,3.79-2.37,5.7-1.19l13.77,8.48c-8.39,14.6-22.27,21.66-39.06,21.66-25.67,0-45.51-18.61-45.51-45.39Z"/></svg>