<?xml version="1.0" encoding="utf-8"?>
<!-- Generator: Adobe Illustrator 26.3.1, SVG Export Plug-In . SVG Version: 6.00 Build 0)  -->
<svg version="1.1" id="Layer_1" xmlns="http://www.w3.org/2000/svg" xmlns:xlink="http://www.w3.org/1999/xlink" x="0px" y="0px"
	 viewBox="0 0 566.9 566.9" style="enable-background:new 0 0 566.9 566.9;" xml:space="preserve">
<style type="text/css">
	.st0{fill:#5A5C61;}
</style>
<path class="st0" d="M290.9,440c0-27,20-45.4,45.5-45.4c16.5,0,30.6,7.2,38.6,21.7l-13.8,8.4c-1.9,1.1-4.3,0.6-5.6-1.1
	c-4.6-6.2-10.9-9.2-18.5-9.2c-13.1,0-23.4,10.3-23.4,25.6c0,15.1,10.3,25.5,23.8,25.5c7.7,0,13.6-2.5,18.3-9.1
	c1.3-1.8,3.8-2.4,5.7-1.2l13.7,8.5c-8.4,14.6-22.2,21.6-39,21.6C310.7,485.3,290.9,466.7,290.9,440 M467,397l1.9,17.7h-30.5
	c-2.3,0-4.2,1.9-4.2,4.2v11.8h31.1v17h-31.1V461c0,2.3,1.9,4.2,4.2,4.2h30.5L467,483h-36.7c-9.4,0-17-7.6-17-17v-52
	c0-9.4,7.6-17,17-17H467z M229.4,451.5l-5.6-16.4c-1.6-5.1-3.4-11.7-4.6-18.5h-0.5c-1.1,6.8-2.9,13.4-4.6,18.5l-5.5,16.4H229.4z
	 M234.6,467.3h-31.1l-5.2,15.7h-24.4l31.4-80.6c1.3-3.3,4.4-5.4,7.9-5.4h12.3c3.5,0,6.7,2.2,7.9,5.4l30.9,80.5h-24.4L234.6,467.3z
	 M149.6,397l1.9,17.7h-29c-2.3,0-4.2,1.9-4.2,4.2v13.2H148v17h-29.8V483H97.4v-69c0-9.4,7.6-17,17-17H149.6z M390.9,551.6h-13.2
	v-40.2h13.2V551.6z M297.8,511.4h14.1l7.1,11.1c1.4,2.1,2.8,4.4,5.3,8.8h0.1c-0.9-4.4-1.1-6.6-1.1-9.9v-10h13.2v40.2h-13.1l-8-11.6
	c-1.5-2.1-2.9-4.4-5.6-8.8h-0.1c0.9,4.4,1.1,6.7,1.1,9.9v10.5h-13.1V511.4z M256.6,551.6h-13.2v-40.2h13.2V551.6z M188.3,511.4v26.6
	c0,0.9,0.8,1.7,1.7,1.7h14.4l-1.5,11.9h-19.3c-4.7,0-8.5-3.8-8.5-8.5v-31.7H188.3z M430.8,531.5c0-12.9,9.7-21.2,21.6-21.2
	c7.4,0,14.2,3.2,17.9,9.7l-9.3,5.5l-2.6-0.4c-1.4-1.7-3.3-2.4-5.4-2.4c-4.1,0-7.6,3.2-7.6,8.7c0,5.3,3.5,8.7,7.8,8.7
	c1.9,0,3.7-0.6,5.2-2.4l2.6-0.4l9.3,5.5c-3.7,6.5-10.6,9.7-17.9,9.7C440.3,552.6,430.8,544.1,430.8,531.5 M96,531.5
	c0-12.9,9.7-21.2,21.6-21.2c7.4,0,14.2,3.2,17.9,9.7l-9.3,5.5l-2.6-0.4c-1.4-1.7-3.3-2.4-5.4-2.4c-4.1,0-7.6,3.2-7.6,8.7
	c0,5.3,3.5,8.7,7.8,8.7c1.9,0,3.7-0.6,5.2-2.4l2.6-0.4l9.3,5.5c-3.7,6.5-10.6,9.7-17.9,9.7C105.6,552.6,96,544.1,96,531.5
	 M423.9,202.6l-22.6-41c-1.4-2.4-2.2-5.1-2.2-8.1c0.1-3.8,1.2-7.8,1.7-11.9c7.8-57.3-39.7-127.5-120.3-127.5
	c-8.9,0-16.1,7.2-16.1,16.1c0,8.9,7.2,16.1,16.1,16.1c0.9,0,1.7-0.1,2.5-0.2l2-0.1c8.9,0,16.1,7.2,16.1,16.2
	c0,8.9-7.2,16.1-16.1,16.1c-3.5,0-6.8-1.1-9.4-3c-4.4-3.1-9.8-5-15.6-5c-14.9,0-27,12.1-27,27c0,14.9,12.1,27,27,27
	c6.1,0,11.9-2.1,16.4-5.5c2.6-1.9,5.8-3,9.3-3c8.8,0,15.9,7.1,15.9,15.9c0,8.8-7.1,15.9-15.9,15.9c-1.8,0-3.6-0.2-5.2-0.8
	c-3.9-1.5-8.2-2.3-12.6-2.3c-20.1,0-36.3,16.3-36.3,36.3c0,15.2,9.3,28.2,22.6,33.6c6.7,2.9,11.4,9.5,11.4,17.3
	c0,10.4-8.4,18.8-18.8,18.8c-4.9,0-9.4-1.9-12.7-4.9c-6.9-6.7-16.2-10.8-26.6-10.8c-21,0-38.1,17.1-38.1,38.1
	c0,21,17.1,38.1,38.1,38.1c24.3,0,35-9.3,45.3-9.3c5.5,0,9.9,4.4,9.9,9.9v0c0,27.8-10.9,41.9-41.3,41.9v7.3h123.3v-7.3
	c-30.4,0-41.3-14.1-41.3-41.9v0c0-5.5,4.4-9.9,9.9-9.9c15.4,0,17.6,4.5,41.9,4.5c22.1,0,34.7-6.5,40.2-27
	c4.9-18.3,10.7-46.1,10.7-46.1c0.8-3.3,3.4-5.9,6.8-6.7c7.4-1.6,12.9-8.1,12.9-16C425.9,207.6,425.2,204.9,423.9,202.6 M262.8,311.7
	L262.8,311.7L262.8,311.7L262.8,311.7z M210.9,180.9c0-19.5-15.8-35.3-35.3-35.3c-19.5,0-35.3,15.8-35.3,35.3
	c0,19.5,15.8,35.3,35.3,35.3C195.1,216.2,210.9,200.4,210.9,180.9 M185.8,122.7c14,0,25.4-11.4,25.4-25.4c0-14-11.4-25.4-25.4-25.4
	c-14,0-25.4,11.4-25.4,25.4C160.4,111.3,171.7,122.7,185.8,122.7 M212.1,56.4c-6.8-6.8-6.8-17.8,0-24.6c6.8-6.8,17.8-6.8,24.6,0
	c6.8,6.8,6.8,17.8,0,24.6C229.9,63.2,218.9,63.2,212.1,56.4"/>
</svg>
