<?xml version="1.0" encoding="utf-8"?>
<!-- Generator: Adobe Illustrator 26.3.1, SVG Export Plug-In . SVG Version: 6.00 Build 0)  -->
<svg version="1.1" id="Layer_1" xmlns="http://www.w3.org/2000/svg" xmlns:xlink="http://www.w3.org/1999/xlink" x="0px" y="0px"
	 viewBox="0 0 566.9 566.9" style="enable-background:new 0 0 566.9 566.9;" xml:space="preserve">
<style type="text/css">
	.st0{fill:#F6921E;}
	.st1{fill:#EE4036;}
	.st2{fill:#BE1E2D;}
	.st3{fill:#929497;}
</style>
<g>
	<g>
		<path class="st0" d="M340.5,257.9c0-18.1-9.7-25.7-13.9-28.2c-4.2-2.5-9.5-3.7-15.8-3.7c-23.5,0-31,22.9-22.7,36
			c0-3.4,2.1-5.9,6.1-5.9c3.6,0,7.2,2.4,7.2,9.4v33.7c0,3.4,0.2,6.6,0.5,9.7c0.3,3.1,1.3,5.8,2.9,8.1c1.6,2.3,4.1,4.2,7.4,5.7
			c3.3,1.4,8,2.2,14,2.2c5.7,0,10.6-0.9,14.5-2.5C340.8,322.3,340.5,259.9,340.5,257.9z"/>
		<circle class="st0" cx="315.9" cy="197.2" r="21.6"/>
		<path class="st1" d="M288.1,257.9c0-18.1-9.7-25.7-13.9-28.2c-4.2-2.5-9.5-3.7-15.8-3.7c-23.5,0-31,22.9-22.7,36
			c0-3.4,2.1-5.9,6.1-5.9c3.6,0,7.2,2.4,7.2,9.4v33.7c0,3.4,0.2,6.6,0.5,9.7c0.3,3.1,1.3,5.8,2.9,8.1c1.6,2.3,4.1,4.2,7.4,5.7
			c3.3,1.4,8,2.2,14,2.2c5.7,0,10.6-0.9,14.5-2.5C288.4,322.3,288.1,259.9,288.1,257.9z"/>
		<circle class="st1" cx="261.8" cy="197.2" r="21.6"/>
		<path class="st2" d="M235.7,257.9c0-18.1-9.7-25.7-13.9-28.2c-4.2-2.5-9.5-3.7-15.8-3.7c-23.5,0-31,22.9-22.7,36
			c0-3.4,2.1-5.9,6.1-5.9c3.6,0,7.2,2.4,7.2,9.4v33.7c0,3.4,0.2,6.6,0.5,9.7c0.3,3.1,1.3,5.8,2.9,8.1c1.6,2.3,4.1,4.2,7.4,5.7
			c3.3,1.4,8,2.2,14,2.2c5.7,0,10.6-0.9,14.5-2.5C236,322.3,235.7,259.9,235.7,257.9z"/>
		<circle class="st2" cx="207.8" cy="197.2" r="21.6"/>
	</g>
	<path class="st3" d="M75.8,267.8h-31v-19.7h44.8v-21.2H26.2c-6.7,0-12.1,5.4-12.1,12.1v86.7h30.7v-37.9h31V267.8z"/>
	<path class="st3" d="M138.6,226.9H122c-5,0-9.5,3.1-11.3,7.8l-34.2,91h22.2c5.3,0,10-3.5,11.5-8.6l2.3-7.7h34.6l2.4,7.8
		c1.5,5.1,6.2,8.5,11.5,8.5h23l-34.2-91C148.1,230,143.6,226.9,138.6,226.9z M119.1,288l10.8-35.5l10.9,35.5H119.1z"/>
	<path class="st3" d="M379.1,226.9h-18.5v86.7c0,6.6,5.4,12,12,12h18.5V239C391.1,232.3,385.7,226.9,379.1,226.9z"/>
	<path class="st3" d="M468.5,301.4h-29.2V239c0-6.6-5.4-12-12-12h-18.5v74.7c0,13.3,10.8,24.1,24.1,24.1h47.7v-12.3
		C480.5,306.8,475.1,301.4,468.5,301.4z"/>
	<path class="st3" d="M520.6,234l-14.3,31.1L492.1,234c-2-4.3-6.3-7-11-7h-21.3l31.2,65.2v33.6h30.6v-33.6l31.1-65.2h-21.1
		C526.9,226.9,522.6,229.7,520.6,234z"/>
	<g>
		<path class="st3" d="M290.7,378.9h-14v-29.8c0-3.2-2.6-5.7-5.7-5.7h-8.8V379c0,6.3,5.1,11.5,11.5,11.5h22.8v-5.9
			C296.4,381.5,293.8,378.9,290.7,378.9z"/>
		<path class="st3" d="M52.7,350.1c-1.7-2.2-3.9-3.8-6.5-5c-2.6-1.2-6.1-1.7-10.3-1.7H14.2v47.2h21.7c2.6,0,5.5-0.4,8.7-1.3
			c2.3-0.6,4.5-1.9,6.6-3.7c2-1.9,3.6-4.2,4.8-7c1.1-2.8,1.7-6.7,1.7-11.7c0-3.2-0.4-6.3-1.2-9.1C55.7,354.8,54.4,352.2,52.7,350.1z
			 M41.8,375.3c-0.7,1.7-1.7,2.9-3,3.5c-1.3,0.7-3.5,1-6.5,1h-3.6V354h3.6c3.8,0,6.5,0.9,8.1,2.8c1.6,1.8,2.4,5.3,2.4,10.3
			C42.9,370.8,42.6,373.6,41.8,375.3z"/>
		<path class="st3" d="M79.8,370.5h22.7v-9.6H79.8v-7.5h24.5v-10.1H70.9c-3.2,0-5.7,2.6-5.7,5.7v35.7c0,3.2,2.6,5.7,5.7,5.7h34
			v-10.7H79.8V370.5z"/>
		<path class="st3" d="M144.3,369.5L130,348.4c-2.1-3.2-5.7-5-9.5-5h-7.5v47.2h13.7v-25.9l14.2,20.9c2.1,3.1,5.7,5,9.5,5h7.7v-47.2
			h-13.7V369.5z"/>
		<path class="st3" d="M170.2,343.4c-3.2,0-5.7,2.6-5.7,5.7v5.9h14.9v35.5h14.6V355h9.1c3.2,0,5.7-2.6,5.7-5.7v-5.9H170.2z"/>
		<path class="st3" d="M235.8,343.4h-7.9c-2.4,0-4.5,1.5-5.4,3.7l-16.3,43.5h10.6c2.5,0,4.8-1.7,5.5-4.1l1.1-3.7h16.6l1.1,3.7
			c0.7,2.4,3,4.1,5.5,4.1h11l-16.3-43.5C240.3,344.8,238.2,343.4,235.8,343.4z M226.5,372.5l5.2-17l5.2,17H226.5z"/>
		<path class="st3" d="M404.3,343.4h-7.9c-2.4,0-4.5,1.5-5.4,3.7l-16.3,43.5h10.6c2.5,0,4.8-1.7,5.5-4.1l1.1-3.7h16.6l1.1,3.7
			c0.7,2.4,3,4.1,5.5,4.1h11l-16.3-43.5C408.8,344.8,406.7,343.4,404.3,343.4z M395,372.5l5.2-17l5.2,17H395z"/>
		<path class="st3" d="M358.2,375.3c-0.5,1.1-1.1,2-1.8,2.8c-1.4,1.6-3.5,2.3-6.3,2.3c-2.9,0-5.1-1-6.7-2.9s-2.4-5.5-2.4-10.8
			c0-4.2,0.7-7.3,2-9.3c1.8-2.7,4.3-4,7.6-4c1.5,0,2.8,0.3,4,0.9c1.2,0.6,2.2,1.5,3,2.6c0,0,0,0,0,0c1.3,1.7,3.3,2.7,5.4,2.2l8.9-2
			c-1.7-5-4.2-8.7-7.6-11.1c-3.4-2.4-8.1-3.6-14-3.6c-7.6,0-13.5,2.1-17.6,6.3c-4.2,4.2-6.2,10.2-6.2,18c0,5.9,1.2,10.7,3.5,14.4
			c2.4,3.8,5.2,6.4,8.4,7.9c3.3,1.5,7.4,2.2,12.6,2.2c4.2,0,7.7-0.6,10.4-1.8c2.7-1.2,5-3,6.9-5.4c1.8-2.4,3.2-5.4,4.1-9l-8-2.4
			C361.9,371.9,359.2,373,358.2,375.3z"/>
		<path class="st3" d="M468.1,373.9c-1-1.3-1.8-2.1-2.3-2.5c-0.8-0.6-2.1-1.2-3.8-1.7c2.2-0.5,3.9-1.1,5.1-1.9
			c2-1.2,3.5-2.7,4.6-4.6c1.1-1.9,1.7-4.2,1.7-6.8c0-3-0.7-5.6-2.2-7.6c-1.5-2.1-3.4-3.5-5.8-4.3c-2.4-0.8-5.8-1.2-10.3-1.2h-24.3
			v47.2h8.9c3.2,0,5.7-2.6,5.7-5.7v-13.4h1.3c1.3,0,2.5,0.4,3.6,1.1c0.8,0.6,1.7,1.8,2.6,3.6l4.5,8.4c2,3.7,5.9,6,10.1,6h9.6
			l-7.1-13.7C469.8,376.2,469.1,375.2,468.1,373.9z M457.8,360.3c-0.6,0.8-1.4,1.3-2.4,1.5c-1.9,0.4-3.2,0.6-3.9,0.6h-6.1v-9.6h6.4
			c2.7,0,4.5,0.4,5.4,1.2c1,0.8,1.4,2,1.4,3.5C458.7,358.6,458.4,359.5,457.8,360.3z"/>
		<path class="st3" d="M496.4,379.8v-9.3h22.7v-9.6h-22.7v-7.5h24.5v-10.1h-33.3c-3.2,0-5.7,2.6-5.7,5.7v35.7c0,3.2,2.6,5.7,5.7,5.7
			h34v-10.7H496.4z"/>
	</g>
</g>
</svg>
