<?xml version="1.0" encoding="utf-8"?>
<!-- Generator: Adobe Illustrator 26.3.1, SVG Export Plug-In . SVG Version: 6.00 Build 0)  -->
<svg version="1.1" id="Layer_1" xmlns="http://www.w3.org/2000/svg" xmlns:xlink="http://www.w3.org/1999/xlink" x="0px" y="0px"
	 viewBox="0 0 5669.3 5669.3" style="enable-background:new 0 0 5669.3 5669.3;" xml:space="preserve">
<style type="text/css">
	.st0{fill:#931826;}
</style>
<g>
	<path class="st0" d="M2951,2302.5c54.7,55.1,88.3,130.1,88.3,212.8c0,0.5,0,1.1,0,1.6c0.4,6.7,0.7,13.3,0.7,20.1
		c0,170.9-138.6,309.5-309.5,309.5c-143.9,0-264.8-98.2-299.5-231.3c-8.8-24.1-325.4-1423.9-325.4-1423.9l-185.1-115.2
		c120.7-125.3,305.9-241.7,528-320.1c174.2-61.5,421-85.3,591.8-85.3c263.4,0,528.4,51.7,795.1,155V521
		c-288.3-71.3-546.6-107-775.2-107c-303.1,0-581.4,54.6-834.9,164c-253.4,109.3-449.7,270-588.9,482.1
		c-139.2,212-208.7,451.1-208.7,717.2c0,269.5,71.2,511,213.7,724.7c142.5,213.7,339.1,373.5,590.1,479.5
		c251,106,537.1,159,858.5,159c226.9,0,476.2-26.5,747.9-79.5v-797.1l-720.8-517.2L2951,2302.5z"/>
	<path class="st0" d="M2458.8,1518.2c0,24.7,20,44.7,44.7,44.7c24.7,0,44.8-20,44.8-44.7c0-24.7-20-44.7-44.8-44.7
		C2478.8,1473.5,2458.8,1493.5,2458.8,1518.2z"/>
	<path class="st0" d="M1689.8,5118.5h77.4c-2.1,21.8-12.4,40.5-30.8,56.2c-18.3,15.5-39.1,23.3-62.1,23.3
		c-27.1,0-52.2-10.4-75.4-31.1c-24.8-22.4-37.2-50.9-37.2-85.5c0-33.5,11.1-61.4,33.4-83.6c22.2-22.7,49.8-34,82.6-34
		c36.6,0,67.6,17,93.1,50.9l33.4-32c-19.4-22.2-39.2-38.2-59.3-48.1c-21.1-9.9-43.7-14.8-68-14.8c-45.1,0-83.5,15.7-115,47.2
		c-31.5,31.4-47.2,69.6-47.2,114.6c0,44.1,15.5,81.9,46.4,113.4c31,31.4,68.2,47.1,111.6,47.1c44.5,0,81.2-16.2,110-48.7
		c12.8-14.5,21.8-30,27.2-46.6c5.5-17.9,8.2-38.6,8.2-61.9v-10.3h-128.3V5118.5z"/>
	<polygon class="st0" points="2185.8,5236.1 2357.2,5236.1 2357.2,5192.1 2232.7,5192.1 2232.7,5088.3 2353.5,5088.3 2353.5,5044.3 
		2232.7,5044.3 2232.7,4969.7 2357.2,4969.7 2357.2,4925.7 2185.8,4925.7 	"/>
	<path class="st0" d="M1657,4658.2h121V4142c0-84.4-26.3-154-78.9-208.7c-58.9-61-131.4-91.4-217.6-91.4
		c-86.2,0-158.9,30.4-218.1,91.4c-52.6,54.7-78.9,124.3-78.9,208.7v516.2h121v-363H1657V4658.2z M1305.4,4181.5v-5.9
		c0-69.9,11.2-120.2,33.7-151c33.6-46,81-69,142.3-69c60.9,0,108.2,23,141.8,69c22.5,31.8,33.7,82.1,33.7,151v5.9H1305.4z"/>
	<path class="st0" d="M1135.4,5073.5c12.6-15.8,18.9-34.7,18.9-56.7c0-28.1-10.1-50.8-30.2-67.9c-18.2-15.4-47.9-23.1-88.9-23.1
		h-54.9v310.4h46.8v-127.1h8.5l88.6,127.1h57.3l-96.1-132.3C1106.2,5099.4,1122.9,5089.3,1135.4,5073.5z M1027.3,5068.2v-98.5h16.7
		c43.2,0,64.7,15.9,64.7,47.7c0,33.9-22.2,50.8-66.5,50.8H1027.3z"/>
	<path class="st0" d="M331,5236.1h50.4l34.6-75.4h132.9l32.6,75.4h51.3l-148.2-330L331,5236.1z M435.5,5116.7l48.3-105.6l46,105.6
		H435.5z"/>
	<path class="st0" d="M598.6,4362.1h201.9c-5.6,56.8-32.3,105.7-80.2,146.5c-47.9,40.5-101.9,60.7-162.1,60.7
		c-70.6,0-136.2-27.1-196.7-81.3c-64.7-58.4-97-132.7-97-222.9c0-87.4,29-160.1,87.1-218.2c58-59.1,129.9-88.6,215.6-88.6
		c95.5,0,176.4,44.2,242.9,132.7l87.1-83.4c-50.7-57.9-102.2-99.8-154.7-125.5c-54.9-25.8-114-38.6-177.3-38.6
		c-117.8,0-217.9,41.1-300,123.3c-82.2,81.8-123.2,181.5-123.2,299c0,115.1,40.4,213.7,121.1,295.8
		c80.8,81.8,177.8,122.8,291.1,122.8c116.1,0,211.8-42.3,286.9-126.9c33.2-37.8,56.8-78.4,70.8-121.7
		c14.3-46.8,21.5-100.7,21.5-161.5v-26.8H598.6V4362.1z"/>
	<path class="st0" d="M2549.9,4350.4c0,69.8-11.2,120.2-33.7,151c-33.6,46-81,69-142.3,69c-61,0-108.2-23-141.8-69
		c-22.5-31.8-33.8-82.1-33.8-151v-482.6h-121V4384c0,84.4,26.3,154,78.9,208.7c58.8,60.9,131.4,91.4,217.6,91.4
		c86.2,0,158.9-30.5,218.1-91.4c52.6-54.7,78.9-124.3,78.9-208.7v-516.2h-121V4350.4z"/>
	<path class="st0" d="M5128.6,4919.8c-44.7,0-83.1,15.7-115,47.1c-32,31.4-48,68.9-48,112.6c0,49.8,17.5,90,52.7,120.7
		c31.9,27.8,67.9,41.6,108,41.6c45.3,0,84-15.6,116-46.8c31.9-31.1,47.9-69,47.9-113.6c0-44.4-15.9-82.4-47.6-114
		C5210.8,4935.7,5172.9,4919.8,5128.6,4919.8z M5209.3,5164c-22.4,22.5-49.9,33.7-82.5,33.7c-30,0-56.5-11.1-79.4-33.2
		c-23.1-22.1-34.6-50.3-34.6-84.6c0-32.6,11.1-60.1,33.4-82.3c22.2-22.5,49.5-33.8,81.8-33.8c32.4,0,59.6,11.2,81.6,33.8
		c22.1,22.4,33.2,50.1,33.2,83.2C5242.9,5113.5,5231.7,5141.2,5209.3,5164z"/>
	<polygon class="st0" points="4431,4669.6 4431,3867.9 4310,3867.9 4310,4181.5 3964.2,4181.5 3964.2,3867.9 3843.2,3867.9 
		3843.2,4669.6 3964.2,4669.6 3964.2,4295.2 4310,4295.2 4310,4669.6 	"/>
	<polygon class="st0" points="4548.2,5141.4 4321.8,4904.5 4321.8,5236.1 4368.6,5236.1 4368.6,5018.8 4595,5255 4595,4925.7 
		4548.2,4925.7 	"/>
	<polygon class="st0" points="2953.9,5141.4 2727.5,4904.5 2727.5,5236.1 2774.4,5236.1 2774.4,5018.8 3000.8,5255 3000.8,4925.7 
		2953.9,4925.7 	"/>
	<path class="st0" d="M5404.6,3975.3c-81.7-81.7-179.7-122.5-293.9-122.5c-115.6,0-214.6,40.5-297,121.5
		c-82.8,81-124.1,177.9-124.1,290.8c0,128.4,45.3,232.3,136.1,311.6c82.4,71.7,175.3,107.5,278.8,107.5c117,0,216.9-40.4,299.6-121
		c82.4-80.3,123.6-178.1,123.6-293.4C5527.6,4155.2,5486.6,4057,5404.6,3975.3z M5318.9,4483.3c-57.8,58.1-128.8,87.2-212.9,87.2
		c-77.5,0-145.9-28.5-205.1-85.6c-59.6-57.1-89.3-129.9-89.3-218.5c0-84.4,28.8-155.3,86.2-212.7c57.5-58.1,127.9-87.2,211.4-87.2
		c83.8,0,154,29.1,210.8,87.2c57.2,57.8,85.7,129.4,85.7,214.8C5405.6,4352.9,5376.7,4424.5,5318.9,4483.3z"/>
	<polygon class="st0" points="3351.4,4969.7 3422.8,4969.7 3422.8,5236.1 3469.7,5236.1 3469.7,4969.7 3540.8,4969.7 3540.8,4925.7 
		3351.4,4925.7 	"/>
	<path class="st0" d="M3030.6,3999.2c-67.5,80-101.3,171-101.3,273.2c0,113.9,40.3,211.2,121,291.8c81,80,178.8,120,293.4,120
		c76.2,0,148.9-19.7,218.1-59v-146.1c-19.7,16.6-38.5,30.8-56.3,42.5c-17.8,11.8-35.1,21.1-51.7,28.1
		c-29.8,13.9-65.9,20.8-108.5,20.8c-82.4,0-151.9-28.9-208.7-86.7c-56.8-57.8-85.1-128.8-85.1-212.9c0-85.1,28.4-157.1,85.1-216
		c56.4-59.2,125.8-88.8,208.2-88.8c74.8,0,147.1,29.3,217.1,87.8v-143.1c-67.2-38.9-136.8-58.4-208.7-58.4
		C3221.2,3852.3,3113.7,3901.3,3030.6,3999.2z"/>
	<rect x="3891.5" y="4925.7" class="st0" width="46.8" height="310.4"/>
</g>
</svg>
