<?xml version="1.0" encoding="utf-8"?>
<!-- Generator: Adobe Illustrator 26.3.1, SVG Export Plug-In . SVG Version: 6.00 Build 0)  -->
<svg version="1.1" id="Layer_1" xmlns="http://www.w3.org/2000/svg" xmlns:xlink="http://www.w3.org/1999/xlink" x="0px" y="0px"
	 viewBox="0 0 566.9 566.9" style="enable-background:new 0 0 566.9 566.9;" xml:space="preserve">
<style type="text/css">
	.st0{fill:#808080;}
	.st1{fill:#231F20;}
</style>
<g>
	<path class="st0" d="M47.1,302.6c0,2.9-0.1,5.1-0.4,6.4c-0.4,2-1.3,3.8-2.7,5.3c-3,3.3-7.4,4.9-13.2,4.9c-5,0-8.9-1.1-11.6-3.4
		c-2.8-2.3-4.2-5.5-4.3-9.6h6.3v0.4c0,5.1,3.2,7.7,9.7,7.7c4.5,0,7.7-1.4,9.4-4.3c0.9-1.6,1.4-4,1.4-7.5V297
		c-2.6,4.8-6.6,7.2-11.9,7.2c-4.7,0-8.5-1.6-11.3-4.8c-2.9-3.2-4.3-7.4-4.3-12.7c0-5.4,1.4-9.6,4.2-12.7c2.8-3.1,6.5-4.7,11.2-4.7
		c5.6,0,9.6,2.4,12,7.2v-6.1h5.6V302.6z M41.7,286.9c0-3.8-1-6.7-3-9c-2-2.2-4.6-3.3-7.9-3.3c-3.4,0-6,1-7.9,3.1
		c-1.9,2.1-2.8,5-2.8,8.7c0,4,1,7,2.9,9.2c1.9,2.2,4.6,3.2,8.1,3.2c3.3,0,5.9-1,7.8-3.1C40.7,293.6,41.7,290.7,41.7,286.9z"/>
	<path class="st0" d="M78.3,270l-1.9,5.1c-1.2-0.4-2.4-0.7-3.4-0.7c-5.9,0-8.9,4.3-8.9,12.8v15.9h-5.6v-32.7h5v6.8
		c1.5-2.8,3-4.9,4.7-6.1c1.7-1.2,3.8-1.8,6.3-1.8C75.8,269.4,77.1,269.6,78.3,270z"/>
	<path class="st0" d="M113.3,289.6c0,10-5,15-14.9,15c-9.9,0-14.9-5-14.9-15v-19.1h5.9v16.1c0,4.5,0.6,7.7,1.9,9.6
		c1.4,2,3.8,3.1,7.2,3.1c3.5,0,5.9-1,7.2-3.1c1.2-1.9,1.8-5.1,1.8-9.6v-16.1h5.7V289.6z"/>
	<path class="st0" d="M157.1,286.9c0,5.5-1.4,9.8-4.2,12.9c-2.8,3.1-6.6,4.7-11.2,4.7c-5.4,0-9.4-2.4-11.9-7.3v21.9h-5.6v-48.7h5.3
		v6.1c2.6-4.9,6.6-7.3,11.9-7.3c4.7,0,8.5,1.6,11.3,4.8C155.7,277.3,157.1,281.6,157.1,286.9z M151.2,287.6c0-4.1-1-7.2-2.9-9.5
		c-1.9-2.3-4.5-3.4-7.8-3.4c-3.4,0-6.1,1.1-8.1,3.2c-1.9,2.2-2.9,5.2-2.9,9c0,3.7,1,6.6,3,8.8c2,2.2,4.7,3.3,8,3.3
		c3.3,0,5.8-1,7.7-3C150.2,294,151.2,291.2,151.2,287.6z"/>
	<path class="st0" d="M242.1,286.9c0,5.5-1.4,9.8-4.2,12.9c-2.8,3.1-6.6,4.7-11.2,4.7c-5.4,0-9.4-2.4-11.9-7.3v21.9h-5.6v-48.7h5.3
		v6.1c2.6-4.9,6.6-7.3,11.9-7.3c4.7,0,8.5,1.6,11.3,4.8C240.7,277.3,242.1,281.6,242.1,286.9z M236.2,287.6c0-4.1-0.9-7.2-2.9-9.5
		c-1.9-2.3-4.5-3.4-7.8-3.4c-3.4,0-6.1,1.1-8,3.2c-1.9,2.2-2.9,5.2-2.9,9c0,3.7,1,6.6,3,8.8c2,2.2,4.7,3.3,8,3.3c3.3,0,5.8-1,7.7-3
		C235.2,294,236.2,291.2,236.2,287.6z"/>
	<path class="st0" d="M270.9,270l-1.9,5.1c-1.2-0.4-2.4-0.7-3.4-0.7c-5.9,0-8.9,4.3-8.9,12.8v15.9h-5.6v-32.7h5v6.8
		c1.5-2.8,3-4.9,4.7-6.1c1.7-1.2,3.8-1.8,6.2-1.8C268.4,269.4,269.7,269.6,270.9,270z"/>
	<path class="st0" d="M309.7,286.9c0,4.9-1.7,9-5.2,12.4c-3.6,3.5-7.8,5.3-12.6,5.3c-4.9,0-9.1-1.7-12.6-5.2
		c-3.5-3.5-5.2-7.6-5.2-12.4c0-4.9,1.7-9.1,5.2-12.5c3.5-3.4,7.7-5.1,12.6-5.1c4.8,0,9,1.7,12.5,5.1
		C307.9,277.8,309.7,282,309.7,286.9z M303.7,286.9c0-3.4-1.1-6.4-3.4-8.7c-2.3-2.4-5.1-3.6-8.3-3.6c-3.3,0-6.1,1.2-8.4,3.6
		c-2.3,2.4-3.4,5.3-3.4,8.7c0,3.4,1.2,6.4,3.5,8.7c2.3,2.4,5.1,3.6,8.4,3.6c3.3,0,6-1.2,8.3-3.6
		C302.5,293.3,303.7,290.4,303.7,286.9z"/>
	<path class="st0" d="M365.3,287.7h-25.9v0.5c0,3.5,1,6.3,3,8.5c2,2.1,4.6,3.2,7.8,3.2c4.4,0,7.9-2.4,10.6-7.1l4.2,2.9
		c-3.3,6-8.4,8.9-15.2,8.9c-5,0-9-1.6-12.1-4.9c-3.1-3.3-4.6-7.6-4.6-12.9c0-5.1,1.5-9.3,4.6-12.6c3-3.3,7-4.9,11.7-4.9
		c4.8,0,8.7,1.5,11.5,4.6c2.8,3.1,4.2,7.3,4.2,12.7V287.7z M359.3,283.1c-0.4-6-3.7-9-10-9c-2.7,0-4.9,0.8-6.8,2.4
		c-1.8,1.6-2.9,3.8-3.2,6.6H359.3z"/>
	<path class="st0" d="M404.1,303.2h-7.8l-16.8-17.3v17.3h-5.7v-55.4h5.7v37.5l15.7-14.9h7.5l-16.3,15L404.1,303.2z"/>
	<path class="st0" d="M422.3,275.1h-6v28.1h-5.7v-28.1h-6v-4.6h6v-13.2h5.7v13.2h6V275.1z"/>
	<path class="st0" d="M461.6,286.9c0,4.9-1.7,9-5.2,12.4c-3.6,3.5-7.8,5.3-12.6,5.3c-4.9,0-9.1-1.7-12.6-5.2
		c-3.5-3.5-5.2-7.6-5.2-12.4c0-4.9,1.7-9.1,5.2-12.5c3.5-3.4,7.7-5.1,12.6-5.1c4.8,0,9,1.7,12.5,5.1
		C459.9,277.8,461.6,282,461.6,286.9z M455.6,286.9c0-3.4-1.1-6.4-3.4-8.7c-2.3-2.4-5.1-3.6-8.3-3.6c-3.3,0-6.1,1.2-8.4,3.6
		c-2.3,2.4-3.4,5.3-3.4,8.7c0,3.4,1.2,6.4,3.5,8.7c2.3,2.4,5.1,3.6,8.4,3.6c3.3,0,6-1.2,8.3-3.6
		C454.5,293.3,455.6,290.4,455.6,286.9z"/>
	<path class="st0" d="M515.3,270.5l-14.6,34.8L490,280.1l-10.8,25.1l-14.6-34.8h6.2l8.7,22.3l10-23.5h0.9l9.8,23.5l8.8-22.3H515.3z"
		/>
	<g>
		<polygon class="st1" points="182.2,261.6 164,303.2 170.6,303.2 182.2,275.5 193.8,303.2 200.4,303.2 		"/>
		<path class="st1" d="M186.3,254.4c0,2.3-1.8,4.1-4.1,4.1c-2.3,0-4.1-1.8-4.1-4.1c0-2.3,1.8-4.1,4.1-4.1
			C184.5,250.3,186.3,252.1,186.3,254.4z"/>
	</g>
	<g>
		<polygon class="st1" points="534.5,261.6 516.4,303.2 523,303.2 534.6,275.5 546.2,303.2 552.8,303.2 		"/>
		<path class="st1" d="M538.7,254.4c0,2.3-1.8,4.1-4.1,4.1c-2.3,0-4.1-1.8-4.1-4.1c0-2.3,1.8-4.1,4.1-4.1
			C536.8,250.3,538.7,252.1,538.7,254.4z"/>
	</g>
	<path class="st0" d="M318.6,319.1h5.7v-48.7h-5.7V319.1z M321.5,250.3c-2.3,0-4.1,1.8-4.1,4.1c0,2.3,1.8,4.1,4.1,4.1
		c2.3,0,4.1-1.8,4.1-4.1C325.6,252.1,323.7,250.3,321.5,250.3z"/>
</g>
</svg>
