<?xml version="1.0" encoding="utf-8"?>
<!-- Generator: Adobe Illustrator 26.3.1, SVG Export Plug-In . SVG Version: 6.00 Build 0)  -->
<svg version="1.1" id="Layer_1" xmlns="http://www.w3.org/2000/svg" xmlns:xlink="http://www.w3.org/1999/xlink" x="0px" y="0px"
	 viewBox="0 0 566.9 278.5" style="enable-background:new 0 0 566.9 278.5;" xml:space="preserve">
<style type="text/css">
	.st0{fill:#5A5C61;}
</style>
<path id="XMLID_54_" class="st0" d="M68.7,117.7c-3.2,0.7-6.1,1.5-8.6,2.4c-2.6,0.8-4.6,1.5-6.1,2.1c-1.5,0.6-2.9,1.3-4.2,1.9
	c-1.3,0.7-3.3,1-5.8,1s-4.6-0.3-6.3-0.8c-1.7-0.4-4-0.9-6.9-1.1c-3-0.2-5-0.4-6.2-0.2c-1.2,0.1-2.1,0.4-2.9,1
	c-0.7,0.5-1.6,0.9-2.7,0.9c-1.1,0-1.9-0.1-2.6-0.4c-0.7-0.2-1.2-0.7-1.7-1.3c-0.4-0.7-0.6-1.8-0.4-3.4c0.2-1.6,0.7-2.7,1.5-3.3
	c0.7-0.6,1.7-1.2,3-1.8c1.3-0.6,3.6-2.4,7.2-5.4c3.5-3,6.3-5.5,8.3-7.5c2.1-2,4.4-4.1,6.8-6.2c2.5-2.1,4.2-3.8,5.2-4.9
	c1-1.2,0.5-1.6-1.2-1.3c-1.8,0.2-4.4,1-7.9,2.4c-3.5,1.3-5.7,2.6-6.6,3.5c-0.9,1-1.8,1.4-2.5,1.2c-0.8-0.2-1.4-0.7-1.8-1.5
	c-0.4-0.8-0.4-1.9-0.2-3.5c0.2-1.5,1.5-3,3.8-4.6c2.2-1.5,4.8-2.9,7.6-4.1c2.8-1.2,5.3-2,7.5-2.7c2.1-0.5,3.6-0.9,4.5-1
	c1-0.1,2.3,0.1,4.1,0.7c1.8,0.6,2.8,1.2,3.2,1.8c0.4,0.5,0.6,1.3,0.7,2.1c0,0.9,0,1.9-0.1,3.3c-0.1,1.4-0.6,2.7-1.5,4.4
	c-0.9,1.6-2.8,3.8-5.8,6.5c-3,2.7-5.6,5-7.7,7.2c-2.1,2.1-3.7,3.7-4.6,4.8c-1,1.1-2.4,2.3-4.2,3.6c-1.8,1.3-1.8,2-0.1,2.1
	c1.8,0.1,4.5,0.5,8.2,1.3c3.7,0.7,7.1,1.4,10,1.9c2.9,0.5,5.3,0.7,7.2,0.4c1.8-0.3,4.9-0.9,8.9-1.7C71.4,117,71.8,116.9,68.7,117.7z
	 M88.6,84.5c1.6,1.1,4.1,1.8,7.4,2.1c3.3,0.4,3.9,3.1,1.8,8.2c-2.1,5.1-3.5,9.2-4.4,12.1c-0.9,3-1.2,5.2-0.9,6.6
	c0.3,1.5,1,2.7,2.2,3.3c1.2,0.7,2.4,1,3.8,0.7c1.3-0.2,2.7-0.5,4.2-1c1.3-0.4,3.3-1.5,5.7-3.2c2.4-1.6,4.7-3.5,6.8-5.7
	c2.1-2.1,4-4.1,5.4-5.9c1.5-1.8,2.1-1.9,1.9-0.3c-0.1,1.6-0.4,3.5-1,5.8c-0.5,2.3-0.4,4.2,0.2,5.8c0.7,1.5,1.5,2.9,2.7,4.1
	c1.2,1.2,2.6,1.8,4.4,2.1c1.2,0.2,2.2,0.2,3.2,0.1c-0.2,0.5-0.3,1.1-0.2,1.5c0.4,2.2,1.4,3.6,3.1,4.4c1.7,0.7,3.2,1.1,4.7,1.1
	c1.5,0,3.2-0.3,5.3-0.8c2.1-0.5,3.8-1.3,5.2-2.5c1.4-1.2,2.7-2.9,4-5.3c1.2-2.4,1.6-5.4,1.1-8.8c-0.5-3.5-1-5.8-1.5-6.9
	c-0.2-0.6-0.4-1.4-0.4-2.5c1.8-1.2,4.1-2.8,7.1-4.9c10.5-7.3,15.3-10.3,14.7-8.6c-0.7,1.6-1.9,5.4-3.8,11.4
	c-1.8,6-3.3,10.4-4.4,13.4c-1.2,2.9-1.5,4.8-1.3,5.8c0.2,1,1.3,1.7,3.1,2.3c1.8,0.6,3.1,0.7,3.7,0.2c0.6-0.4,1.2-1.2,1.8-1.9
	c0.5-0.8,1.3-2.2,2.2-4.2c1-1.9,3.2-4.6,6.7-8.1c3.5-3.5,6.1-5.2,7.6-5c1.5,0.1,2.2,1.4,2.1,3.8c-0.1,2.4-0.4,4.5-0.6,6.6
	c-0.3,2-0.6,4.1-1,6.3c-0.4,2.1-0.4,3.7,0.1,4.5c0.4,0.9,1.3,1.4,2.4,1.8c1.2,0.4,2.3-0.2,3.5-1.5c1.2-1.3,2-2.4,2.3-3.1
	c0.3-0.7,1.2-2.4,2.7-5c1.4-2.6,3.5-5,6-7.4c2.6-2.4,4.6-4.2,6.1-5.4c1.5-1.3,2.9-2,4.2-2.2c1.3-0.2,2.5,0.4,3.4,1.7
	c1,1.3,2.4,3.5,4.5,6.2c2.1,2.7,3.9,4.8,5.3,6c1.4,1.2,2.9,2.2,4.4,3c1.5,0.7,3.2,1,4.9,0.5c1.8-0.4,3.1-0.9,4.1-1.5
	c0.1-0.1,0.2-0.1,0.3-0.1c-0.4,2.1-0.3,3.4,0.2,3.5c0.4,0.3,1.4,0.4,2.7,0.1c1.3-0.2,2.7-1.3,4.1-3.5c1-1.4,1.8-3,2.6-4.6
	c0.9-0.4,1.8-1,2.7-1.5c2.3-1.3,1.5-1-2.4,1c0.4-0.8,0.7-1.6,1.1-2.6c1.2-3,2.4-6.7,3.6-11.4c1.3-4.7,2.5-8.5,3.5-11.4
	c1.1-3,0.8-4.6-0.9-5.1c-1.7-0.4-3.2-0.5-4.4-0.3c-1.2,0.3-2.9,1.2-4.9,2.6c-2.1,1.4-2.5,2.1-1.3,2.2c1.2,0.1,1.2,2-0.1,5.8
	c-1.2,3.8-2.4,8.1-3.8,13.3c-1.2,4.3-1.9,7.7-2.4,10.1c-0.1,0-0.1,0-0.2,0c-1.8-0.4-3.8-1.5-6.1-3.3c-2.3-1.8-4.4-4.7-6.6-8.7
	c-2.1-3.9-3.8-6.9-5.2-8.9c-1.3-2.1-2.9-3.5-4.6-4.2c-1.8-0.7-4-0.4-6.6,0.7c-2.7,1.2-5.8,3.7-9.3,7.5c-3.5,3.8-5.5,5.5-5.8,5.3
	c-0.4-0.2-0.6-1.2-0.7-2.8c-0.1-1.6-0.4-3.1-0.9-4.4c-0.4-1.3-1.6-2.4-3.5-3.3c-1.8-1-3.8-1-6,0c-2.1,1-4.8,3.2-7.8,6.9
	c-3,3.7-3.2,3.1-0.6-1.9c2.7-5,3.8-8.3,3.5-10.1s-0.6-3-0.9-4c-0.3-1-0.7-1.9-1.1-3c-0.4-1.1-1.3-1.6-2.7-1.8
	c-1.4-0.1-3.2,1.3-5.5,4.4c-2.2,3-5.6,6.1-10,9.3c-3.9,2.7-7.9,5.8-11.9,8.9c0-0.9,0.1-1.9,0.2-3c0.3-3.1,1.4-5.8,3.4-8
	c1.9-2.3,3.8-3.5,5.4-3.6c1.7-0.1,3-0.8,4-1.9c1-1.2,1.2-2.4,0.7-3.6c-0.4-1.2-1.9-1.7-4.2-1.3c-2.4,0.4-4.7,1.2-7.1,2.3
	c-2.4,1.1-4.4,2.7-6.1,4.2c-1.7,1.7-3,3.6-3.8,5.9c-0.9,2.3-0.9,5.8,0,10.3c0.9,4.6,1.3,7.5,1.3,8.9c0.1,1.3-0.1,2.7-0.6,4.3
	c-0.4,1.5-1.2,2.9-2.1,4c-1,1.1-2.3,1.9-4,2.7c-1.7,0.7-3.1,0.3-4.3-1.1c-0.2-0.3-0.4-0.6-0.4-1c0.7-0.6,1.5-1.4,2.4-2.4
	c1.8-2,3.7-4.2,5.8-6.7c2.1-2.5,1.8-2.4-1,0.4c-1.5,1.5-3,2.7-4.4,3.5c1-1.3,2.3-2.7,3.9-4.3c5.5-5.6,5-5.5-1.5,0.5
	c-1.9,1.8-3.5,3.4-4.9,4.8c-0.2,0.1-0.4,0.1-0.6,0.1c-2.3,0.4-4-0.1-4.9-1.3c-1-1.3-1.2-3.5-0.9-6.6c0.4-3.1,1.1-6.9,2.1-11.3
	c1.1-4.4,1.4-7,1.1-7.7c-0.4-0.7-1-1.1-1.9-1.3c-1-0.2-1.9,0.1-3.2,0.7c-1.2,0.6-4.9,4-11.1,10.3c-6.2,6.2-10.6,9.7-12.9,10.4
	c-2.4,0.7-2.4-1.9,0.2-8c2.6-6.1,4.1-9.7,4.5-11.1c0.4-1.4,0.4-2.7,0.2-3.6c-0.4-1-1-1.8-2.1-2.1c-1.1-0.4-2.2-0.4-3.5-0.2
	c-1.2,0.3-2.5,1.3-3.9,2.9c-1.4,1.6-3.9,1.8-7.6,0.4C87.9,83.6,87,83.4,88.6,84.5z M292.1,114c-1.5,1.1-3.5,2-5.8,2.9
	c-2.4,0.9-4.9,1.2-7.2,0.8c-2.4-0.4-4.1-0.9-5.3-1.6c-1.2-0.7-2.3-1.7-3.2-2.7c-1-1.1-1.8-2.3-2.5-3.8c-0.7-1.4-1-3.5-1-5.9
	c0-2.5,0.5-5.2,1.8-8.1c1.2-3,2.6-5.4,4.1-7.3c1.5-1.9,3.5-3.9,6.2-5.8c2.1-1.6,4.6-2.8,7.3-3.5c-0.2-0.1-0.4-0.3-0.6-0.4
	c-2.6-1.6-5.3-4.1-8.2-7.2c-3-3.2-5-5.5-6.5-7.1c-1.3-1.5-2.3-2.4-2.9-2.5c-0.5-0.2-1-0.4-1.4-0.4c-0.4-0.1-1.3-0.7-2.7-1.8
	c-1.4-1.1-1.9-2.4-1.5-4.1c0.4-1.6,0.9-2.7,1.5-3.5c0.7-0.7,1.8-1.3,3.4-1.8c1.6-0.4,3.1,0,4.4,1.1c1.3,1.1,2.1,3.4,2.4,6.9
	c0.3,3.5,1.5,7,3.6,10.4c2.1,3.4,4.7,6.1,7.7,8c0.9,0.6,1.8,1.2,2.7,1.7c3.8-0.3,6.1,0.4,6.9,2c0.9,1.6,1.3,3.7,1.2,6.2
	c-0.1,2.5-1.2,4.6-3.5,6.3c-2.3,1.8-5.3,3.5-9.1,5.2c-1.1,0.4-2,0.6-2.9,0.7c-0.9,0-1.5,0-2.1-0.1c-0.5-0.1-1-0.2-1.3-0.3
	c-0.4-0.1-0.5-0.1-0.6,0.1c-1.1,1.7-1.6,3.5-1.6,5.1c0,1.7,0.5,3.3,1.7,4.7c1.2,1.4,2.4,2.3,3.8,2.5c1.4,0.2,2.9,0.2,4.4-0.1
	c1.5-0.4,4.4-1.3,8.5-3c4.1-1.7,7-3.3,8.6-4.8c1-1,2-1.9,3-2.8c0.3-1.9,0.7-3.6,1.4-5.2c1.1-2.5,2.7-4.9,5-7.3
	c2.2-2.4,6.1-4.7,11.4-6.9c5.8-2.2,9.6-2.7,11.7-1.7c2.1,1.2,3.1,2.7,3,5c0,2.2-2.1,3.5-6.1,3.6c-4.1,0.1-7.5,1.3-10.5,3.2
	c-3,1.9-4.9,4.9-5.8,8.6c-0.9,3.8-0.1,6.6,2.2,8.6c2.4,1.9,4.7,2.8,7.2,2.7c2.4-0.1,4.5-0.5,6.4-1.1c1.8-0.6,4.1-1.5,6.5-2.9
	c1.7-1,3.5-2.1,5.5-3.6c0.9-3.2,2-7.2,3.5-12c3.5-11.7,7.5-23.1,12-34.2c4.5-11.1,7.2-17.9,8-20.4c0.7-2.4,2.2-5,4.3-8
	c3-0.7,5.5-0.4,7.5,1.2c1.9,1.5,1.5,4.1-1.2,7.7c-2.7,3.7-6.5,11.5-11.4,23.4c-4.9,12-8,20.4-9.5,25.3c-1.5,5-1.6,6.8-0.4,5.5
	c1.2-1.3,2.4-2.6,3.6-3.6c1.2-1.1,2.6-2.2,4.1-3.4c1.5-1.2,2.8-1.9,4.1-2.5c1.2-0.5,2.6-1,4.1-1.2c1.5-0.3,2.8-0.1,4.1,0.6
	c1.2,0.7,2.1,1.5,2.8,2.7c0.7,1.1,1.1,3,1.2,5.8c0.1,2.7,0,5.7-0.4,8.7c-0.4,3-0.4,5.3-0.1,6.8c0.4,1.5,1.2,2.9,2.2,4.1
	c1.1,1.2,3,1.5,5.6,0.8c2.3-0.5,4.2-1.4,5.6-2.7c-0.2-1.1-0.4-2.3-0.4-3.7c0-2.5,0.5-5.2,1.8-8.1c1.2-3,2.6-5.4,4.1-7.3
	c1.5-1.9,3.5-3.9,6.2-5.8c2.7-1.9,5.6-3.3,8.9-4.1c3.9-0.3,6.3,0.4,7.2,1.9c0.9,1.5,1.3,3.7,1.2,6.2c-0.1,2.5-1.2,4.6-3.5,6.3
	c-2.3,1.8-5.3,3.5-9.1,5.2c-1.1,0.4-2,0.6-2.9,0.7c-0.9,0-1.5,0-2.1-0.1c-0.5-0.1-1-0.2-1.3-0.3c-0.4-0.1-0.5-0.1-0.6,0.1
	c-1.1,1.7-1.6,3.5-1.6,5.1c0,1.7,0.5,3.3,1.7,4.7c1.2,1.4,2.4,2.3,3.8,2.5c1.4,0.2,2.9,0.2,4.4-0.1c1.5-0.4,4.4-1.3,8.5-3
	c4.1-1.7,7-3.3,8.6-4.8c1.6-1.5,3.2-3,4.6-4.4c1.5-1.4,1.7-1.4,0.6,0c-1.1,1.4-2.4,3.1-3.9,5.1c-1.5,2-3.5,4-5.8,5.9
	c-2.3,1.9-4.2,3.5-5.7,4.5c-1.5,1.1-3.5,2-5.8,2.9c-2.4,0.9-4.9,1.2-7.2,0.8c-2.4-0.4-4.1-0.9-5.3-1.6c-1.2-0.7-2.3-1.7-3.2-2.7
	c-1-1.1-1.8-2.3-2.5-3.8c-0.1-0.1-0.1-0.4-0.2-0.4c-0.7,1-1.5,1.9-2.4,2.7c-1.5,1.4-3.5,2.6-5.7,3.6c-2.2,1-4.1,1.5-5.5,1.6
	c-1.4,0-2.8-0.5-4.3-1.8c-1.5-1.2-2.5-3-3-5.2c-0.5-2.3-0.7-5.8-0.4-10.5c0.3-4.8-0.1-7.6-1-8.5c-1-1-3.5,0.1-7.5,3.1
	c-4.1,3-7.1,6.4-9.1,10.1c-2.1,3.8-3.5,6.9-4.6,9.6c-1,2.7-2.2,3.7-3.7,3.3c-1.5-0.4-2.7-1.1-3.5-2c-0.8-1-1.2-2.3-1.2-4.1
	c0-0.9,0.4-3,1.3-6.3c-2,1.9-4,3.6-5.8,5.1c-2.7,2.2-5,3.8-7.1,4.9c-2.1,1-4.1,1.8-6.1,2.1c-2,0.4-4.4,0.5-7.2,0.4
	c-2.7-0.2-5.5-1.5-8-4.2c-2.5-2.7-3.7-5.8-3.7-9.3c0-0.8,0.1-1.5,0.1-2.3c-0.4,0.6-1,1.3-1.5,1.9c-1.5,2-3.5,4-5.8,5.9
	C295.4,111.5,293.5,112.9,292.1,114z M406.4,91.8c0.4,0.4,1.5,0.3,3-0.6c1.5-0.9,2.7-1.7,3.6-2.6c1-0.9,1-1.7,0.4-2.5
	c-0.4-0.4-1.4-0.2-3,0.6c-1.6,0.8-2.7,1.8-3.5,2.7C406.1,90.6,406,91.4,406.4,91.8z M281.1,91.8c0.4,0.4,1.5,0.3,3-0.6
	c1.5-0.9,2.7-1.7,3.6-2.6c1-0.9,1-1.7,0.4-2.5c-0.4-0.4-1.4-0.2-3,0.6c-1.6,0.8-2.7,1.8-3.5,2.7C280.8,90.6,280.7,91.4,281.1,91.8z
	 M425.7,94.7c10.5-7.3,15.3-10.3,14.7-8.6c-0.7,1.6-1.9,5.4-3.8,11.4c-1.8,6-3.3,10.4-4.4,13.4c-1.2,2.9-1.5,4.8-1.3,5.8
	c0.2,1,1.3,1.7,3.1,2.3c1.8,0.6,3.1,0.7,3.7,0.2c0.6-0.4,1.2-1.2,1.8-1.9c0.5-0.8,1.3-2.2,2.2-4.2c1-1.9,3.2-4.6,6.7-8.1
	c3.5-3.5,6.1-5.2,7.6-5c1.5,0.1,2.2,1.4,2.1,3.8c-0.1,2.4-0.4,4.5-0.6,6.6c-0.2,2.1-0.6,4.1-1,6.3c-0.4,2.1-0.4,3.7,0.1,4.5
	c0.4,0.9,1.3,1.4,2.4,1.8c1.2,0.4,2.3-0.2,3.5-1.5c1.2-1.3,2-2.4,2.3-3.1c0.3-0.7,1.2-2.4,2.7-5c1.4-2.6,3.5-5,6-7.4
	c2.6-2.4,4.6-4.2,6.1-5.4c1.5-1.3,2.9-2,4.2-2.2c1.3-0.2,2.5,0.4,3.4,1.7c1,1.3,2.4,3.5,4.5,6.2c2.1,2.7,3.9,4.8,5.3,6
	c1.4,1.2,2.9,2.2,4.4,3c1.5,0.7,3.2,1,4.9,0.5c1.8-0.4,3.1-0.9,4.1-1.5c1-0.5,2.7-1.3,5.2-2.4c2.4-1,4.9-2.2,7.3-3.6
	c2.4-1.4,1.4-1-2.9,1.3c-4.4,2.3-7.4,3.2-9.1,2.9c-1.8-0.4-3.8-1.5-6.1-3.3c-2.3-1.8-4.4-4.7-6.6-8.7c-2.1-3.9-3.8-6.9-5.2-8.9
	c-1.3-2.1-2.9-3.5-4.6-4.2c-1.8-0.7-4-0.4-6.6,0.7c-2.7,1.2-5.8,3.7-9.3,7.5c-3.5,3.8-5.5,5.5-5.8,5.3c-0.4-0.2-0.6-1.2-0.7-2.8
	c-0.1-1.6-0.4-3.1-0.9-4.4c-0.4-1.3-1.6-2.4-3.5-3.3c-1.8-1-3.8-1-6,0c-2.1,1-4.8,3.2-7.8,6.9s-3.2,3.1-0.6-1.9
	c2.7-5,3.8-8.3,3.5-10.1c-0.3-1.8-0.6-3-0.9-4s-0.7-1.9-1.1-3c-0.4-1.1-1.3-1.6-2.7-1.8c-1.4-0.1-3.2,1.3-5.5,4.4
	c-2.2,3-5.6,6.1-10,9.3c-4.4,3.2-9,6.6-13.6,10.4C412.3,103.9,415.2,102,425.7,94.7z M173.4,169.3c-2.4-0.8-5.1-2.2-8-4.2
	c-3-2-5.5-4.7-7.7-8c-2.1-3.3-3.4-6.9-3.6-10.4c-0.3-3.5-1-5.8-2.4-6.9c-1.3-1.2-2.7-1.5-4.4-1.1c-1.6,0.4-2.7,1-3.4,1.8
	c-0.7,0.7-1.2,1.9-1.5,3.5c-0.4,1.6,0.1,2.9,1.5,4.1c1.3,1.1,2.3,1.7,2.7,1.8c0.4,0.1,0.9,0.2,1.4,0.4c0.5,0.2,1.5,1,2.9,2.5
	c1.3,1.5,3.5,3.8,6.5,7.1c3,3.2,5.7,5.6,8.2,7.2c2.6,1.6,5.1,2.7,7.7,3.1C175.8,170.3,175.9,170.1,173.4,169.3z M142.1,166.6
	c-1.7-0.4-3.2-0.5-4.4-0.3c-1.2,0.3-2.9,1.2-4.9,2.6c-2.1,1.4-2.5,2.1-1.3,2.2c1.2,0.1,1.2,2-0.1,5.8c-1.2,3.5-2.3,7.7-3.5,12.5
	c-3,2.5-5.7,4.4-8,5.7c-2.5,1.3-4.6,2.3-6.5,2.9c-1.8,0.6-4,1-6.4,1.1c-2.4,0.1-4.8-0.7-7.2-2.7c-2.4-1.9-3.1-4.8-2.2-8.6
	c0.9-3.8,2.7-6.6,5.8-8.6c3-1.9,6.5-3,10.5-3.2c4.1-0.2,6.1-1.3,6.1-3.6c0-2.2-1-3.9-3-5c-2.1-1.2-5.9-0.5-11.7,1.7
	c-5.4,2.2-9.2,4.5-11.4,6.9c-2.2,2.4-3.9,4.8-5,7.3c-1.1,2.5-1.6,5.5-1.7,9.1c0,3.5,1.2,6.6,3.7,9.3c2.5,2.7,5.1,4.1,8,4.2
	c2.7,0.2,5.2,0.1,7.2-0.4c2-0.4,4.1-1.2,6.1-2.1c2.1-1,4.4-2.7,7.1-4.9c2.6-2.1,5.4-4.8,8.5-7.8c-1.3,4.9-2.1,8.6-2.5,11
	c-0.4,2.5-0.4,3.8,0.1,4.1c0.4,0.3,1.4,0.4,2.7,0.1s2.7-1.3,4.1-3.5c1.4-2.1,2.7-4.7,3.8-7.6c1.2-3,2.4-6.7,3.6-11.4
	c1.3-4.7,2.5-8.5,3.5-11.4C144,168.8,143.7,167.1,142.1,166.6z M224.7,166.5c-0.1,1.3-0.7,2.4-1.8,3.2c-1.2,0.8-2.2,1.1-3.2,0.8
	c-1.1-0.3-2.3,1.3-3.6,4.9c-1.4,3.5-3.1,7-5,10.4c-2,3.4-3.8,6.2-5.5,8.5c-1.6,2.3-3.9,4.7-6.7,7.2c-2.8,2.5-5,3.9-6.6,4.2
	c-1.6,0.3-3,0.4-4.1-0.1c-1.2-0.4-2.3-1.3-3.2-3c-1-1.6-1.5-4.6-1.6-8.9c-0.1-4.4,1.2-8.6,3.8-12.8c2.7-4.2,7.4-8,14.2-11.1
	c6.9-3.2,9.2-4.4,7-3.5c-2.2,1-10.5,2.1-24.8,3.5s-13.6,1.1,1.9-1c15.6-2.1,24.2-4,25.8-5.5c1.5-1.6,2.7-4.2,3.4-7.8
	c0.7-3.6,1-7,1.1-10.1c0.1-3.1-0.1-6.3-0.6-9.4c-0.4-3.2-1.9-6.3-4.2-9.5c-2.3-3.2-3.4-5.3-3.1-6.3c0.2-1,0.7-1.9,1.3-2.9
	c0.7-1,1.7-1.5,2.9-1.3c1.2,0.1,2.4,0.6,3.5,1.6c1.1,1,2.1,2.4,3.4,4.2c1.3,1.8,2.3,5.5,3.2,11c1,5.5,1.1,10.8,0.4,15.8
	c-0.6,5-1.2,8.2-1.5,9.6c-0.4,1.3,0.2,2.7,1.8,4.3C224.1,163.8,224.9,165.2,224.7,166.5z M205,178.1c0-0.8-0.6-1-1.9-0.4
	c-1.2,0.5-3,1.9-5.5,4.3c-2.4,2.4-4.1,4.5-4.9,6.6c-0.9,2-1.2,3.6-0.7,4.9c0.4,1.2,2.1,0.2,5.3-3c3.2-3.2,5.2-5.8,6.2-8
	C204.5,180.3,205,178.9,205,178.1z M261,174.2c-6.2,0.2-9.7,0.4-10.6,0.7c-0.9,0.4-1.2,1.3-1.1,3.1c0.1,1.8,0.3,3.6,0.4,5.6
	c0.1,1.9,0.1,4.2,0.1,6.6c-0.1,2.4-0.2,4.2-0.5,5.4c-0.3,1.2-0.7,2.4-1.3,3.7c-0.6,1.3-1.5,2.7-2.7,4.1c-1.2,1.4-2.6,2.7-4.2,4.1
	c-1.7,1.2-3.2,2.1-4.6,2.7c-1.4,0.6-3,0.7-4.6,0.1c-1.6-0.5-3-1.4-4.1-2.7c-1-1.2-1.8-2.4-2.5-3.8c-0.6-1.3-0.9-3.5-0.8-6.8
	c0.1-3.2,0.4-5.8,1.1-7.8c0.6-1.9,1.5-4.1,2.9-6.2c1.3-2.1,1.7-3.2,1.2-3c-0.5,0.1-0.7,0.1-0.4-0.2c0.3-0.3,1.3-1.5,3-3.8
	c1.8-2.2,3.2-3.8,4.2-4.9c1.2-1.1,2.5-1.8,4.1-2c1.6-0.3,3-0.2,4.1,0.3c1.1,0.5,1.9,1.3,2.7,2.5c0.7,1.2,2.6,1.8,5.5,1.8
	c3-0.1,6.6-0.1,11,0.1C268.2,173.9,267.2,174,261,174.2z M240.9,185.1c-1.3-1.6-2.9-1.2-4.9,1.3c-2,2.5-3.1,5-3.5,7.8
	c-0.4,2.7-0.2,4.7,0.4,5.8c0.7,1.2,1.3,1.8,2.1,1.9c0.7,0.1,1.8-0.4,3.1-1.5c1.3-1.2,2.4-3.6,3.3-7.5
	C242.4,189.4,242.3,186.6,240.9,185.1z M506.8,210.6c1.5-0.6,3.5-1.3,6.1-2.1c2.6-0.8,5.4-1.6,8.6-2.4c3.2-0.7,2.7-0.7-1.3,0.1
	c-4.1,0.8-7.1,1.4-8.9,1.7c-1.8,0.3-4.2,0.1-7.2-0.4c-2.9-0.5-6.2-1.2-10-1.9c-3.7-0.7-6.5-1.2-8.2-1.3c-1.8-0.1-1.8-0.8,0.1-2.1
	c1.8-1.3,3.2-2.5,4.2-3.6s2.5-2.7,4.6-4.8c2.1-2.1,4.7-4.4,7.7-7.2c3-2.7,5-4.9,5.8-6.5c0.9-1.6,1.3-3.1,1.5-4.4
	c0.1-1.3,0.1-2.4,0.1-3.3s-0.3-1.6-0.7-2.1c-0.4-0.5-1.5-1.2-3.2-1.8c-1.8-0.6-3.1-0.9-4.1-0.7c-0.9,0.1-2.4,0.4-4.5,1
	c-2.1,0.5-4.6,1.4-7.5,2.7c-2.8,1.2-5.3,2.6-7.6,4.1c-1.4,1-2.4,1.9-3,2.8c-3.3,0.9-5.9,0.7-8-0.6c-2.2-1.3-4.6-2.4-7.1-3.2
	c-2.5-0.7-4.2-1.1-5-0.9c-0.9,0.2-2,0.6-3.5,1.2c-1.4,0.6-3,1.4-4.5,2.5c-1.6,1-2.9,1.6-3.8,1.8c-1,0.1-0.9-1,0.4-3.2
	c1.2-2.3,1.3-4.2,0.4-5.8c-1-1.6-2.5-2.5-4.4-2.7c-1.9-0.2-4.1,3.8-6.1,12c-1.8,7.3-3.5,13.4-4.8,18.1c-2.3,2.1-4.2,3.3-5.8,3.5
	c-1.6,0.3-2.8,0.1-3.8-0.5c-1-0.6-1.7-1.8-2.2-3.4c-0.6-1.6-0.6-3.4-0.1-5.1c0.4-1.8,1-2.9,1.3-3.4c0.4-0.4,0.5-1.2,0.4-2
	c-0.1-0.9-0.6-1.9-1.4-3c-0.8-1.1-1.8-1.9-3-2.4c-1.2-0.4-3.9,0.4-8.2,2.4c-4.3,2-7.9,4-10.8,5.8c-2.8,1.9-5,3.4-6.3,4.2
	c-1.4,1-1.9,1-1.8,0.4c0.2-0.7,1.5-2.4,3.7-5c2.2-2.6,4.4-4.9,6.6-6.6c2.1-1.7,3.9-3,5.3-3.8c1.4-0.8,2.9-1.5,4.4-2.4
	c1.5-0.7,2.9-0.4,4.2,0.8c1.3,1.3,2.9,1.5,4.5,0.8c1.7-0.7,2.1-2.3,1.2-4.5c-0.9-2.2-1.8-3.7-2.7-4.5c-1-0.7-2.3-1.3-3.9-1.5
	c-1.6-0.2-3.1-0.2-4.4,0.2c-1.3,0.4-3.7,1.5-7.2,3.4c-3.5,1.8-6.6,4.1-9.6,6.7c-0.7,0.5-1.3,1.2-1.9,1.8c-6.6,0.9-10.9,0.1-13.2-2.1
	c-2.4-2.4-4.8-3-7.1-1.5c-2.3,1.4-4.2,3.2-5.8,5.3c-1.6,2.1-2.7,4.2-3.5,6.5c-0.7,2.1-1.8,4.8-3,7.7c-1.3,3-1.5,1.5-0.7-4.4
	c0.7-6,0.5-10.1-0.7-12.3c-1.3-2.3-3.2-2.8-5.9-1.8c-2.7,1.2-6.1,3.7-10.3,7.8c-4.2,4.1-6.3,2.9-6.2-3.5c0.1-6.4-0.4-10.2-1.8-11
	c-1.3-0.8-2.8-1.1-4.6-0.8c-1.8,0.3-2.7,1.9-2.7,4.8c0.1,1.3,0.1,2.3,0.2,3.2c-3.5,0-6.3-0.2-8.2-0.5c-2.6-0.4-4.4-1-5.5-1.4
	c-1.1-0.4-1.2-2.6-0.2-6.3c1-3.8,1.7-6.6,2.3-8.8c0.6-2.1,1.2-3.8,1.8-5c0.7-1.3,0.7-2.5,0.3-3.7c-0.4-1.2-1.1-2.1-1.8-3
	c-0.7-0.8-1.8-1.3-3.4-1.4c-1.5-0.1-2.7,0.2-3.4,1.1c-0.7,0.8-1.3,2.6-1.8,5.1c-0.5,2.6-1,4.6-1.2,6.1c-0.2,1.5-1,4.5-2.3,9.1
	c-1.3,4.6-2.7,6.9-4.4,6.9s-3.5,0.6-5.7,1.6c-2.1,1.1-3.2,2.4-3.2,4.1c0,1.7,0.6,2.5,1.9,2.5c1.3,0,2.8-0.2,4.5-0.4
	c1.7-0.3,2.5,0.1,2.3,1.2c-0.2,1.2-1.2,4-3.1,8.6c-1.9,4.6-3.4,8.6-4.4,11.9c-1,3.3-1.1,5.2-0.1,5.8c1.1,0.4,2.2,0.5,3.5,0.2
	c1.3-0.3,2.4-0.9,3.2-1.6c0.8-0.7,1.6-2.1,2.4-4.2c0.7-2.1,2.3-6.2,4.6-12.4c2.3-6.2,4-9.4,4.9-9.7c1-0.4,3-0.9,6-1.6
	c2.5-0.6,6.1-1.3,10.9-2.1c0.1,0.4,0.1,0.7,0.2,1c0.3,1,0.5,2.1,0.7,3.5c0.2,1.3,0.4,3.4,0.6,6.1c0.1,2.7-0.1,5.5-1,8.2
	c-0.7,2.7-0.8,4.8-0.1,6.1c0.7,1.3,1.8,2,3.1,2.1c1.3,0.1,4.3-2.4,8.8-7.5c4.4-5,7.5-8,9.4-8.9c1.8-1,2.6,1.3,2.3,6.6
	c-0.3,5.3,0.2,9.2,1.5,11.4c1.3,2.3,2.3,3.6,3.1,4.1c0.8,0.4,1.9,0.1,3.2-1c1.3-1.2,3.4-3.9,5.9-8.2c2.7-4.3,4.3-7.7,5-10.1
	c0.7-2.4,1.9-4.9,3.4-7.3c1.5-2.4,4.4-3.8,8.7-4c2.9-0.1,6.1-0.4,9.4-1c-2.2,2.1-4.4,4.7-6.7,7.7c-3.2,4.2-5.1,6.9-5.7,8.3
	c-0.4,1.4-0.7,2.7-0.6,4.1c0.1,1.3,0.5,2.7,1.3,3.8c0.7,1.1,1.4,1.8,2,1.9c0.6,0.2,1.9,0,4.1-0.6c2.1-0.5,4.5-1.5,7.2-3
	c2.7-1.4,5.5-3.3,8.6-5.5c3.1-2.2,5.2-3.5,6.5-4.1c1.2-0.4,2.3-0.4,3.1,0.6c0.9,0.9,1.4,1.7,1.6,2.4c0.2,0.7,0.7,1.9,1.3,3.4
	c0.7,1.5,1.6,2.8,2.7,3.9c1.2,1.1,2.4,1.8,3.8,2.4c1.3,0.4,2.4,0.7,3.2,0.8c0.8,0,1.9-0.4,3.5-1.2c1.4-0.8,3.3-2.7,5.8-5.7
	c-1.4,4.8-2.3,7.4-2.6,7.9c-0.4,0.4-0.2,1.4,0.4,2.9c0.6,1.5,1.9,2.1,3.8,2.1c1.9-0.1,3.2-0.9,3.8-2.4c0.6-1.5,1.3-3.5,2.1-5.8
	c0.8-2.4,1.9-5.2,3.5-8.7c1.5-3.5,3.1-5.9,4.9-7.4c1.8-1.5,3.9-2.9,6.5-4.1c2.6-1.2,6.2-1.8,10.8-1.7c4.6,0.1,9.1-0.7,13.5-2.7
	c-0.1,0.3-0.2,0.5-0.2,0.7c-0.3,1.5-0.2,2.7,0.2,3.5c0.4,0.8,1,1.3,1.8,1.5c0.8,0.2,1.6-0.2,2.5-1.2c0.9-1,3-2.2,6.6-3.5
	c3.5-1.3,6.1-2.1,7.9-2.4c1.8-0.2,2.2,0.2,1.2,1.3c-1,1.2-2.7,2.7-5.2,4.9c-2.5,2.1-4.7,4.2-6.8,6.2c-2.1,2-4.9,4.5-8.3,7.5
	c-3.5,3-5.8,4.8-7.2,5.4c-1.3,0.6-2.2,1.2-3,1.8c-0.7,0.6-1.2,1.7-1.5,3.3c-0.3,1.6-0.1,2.7,0.4,3.4c0.4,0.7,1,1.1,1.7,1.3
	c0.7,0.2,1.5,0.4,2.6,0.4c1.1,0,1.9-0.4,2.7-0.9c0.7-0.5,1.7-0.9,2.9-1c1.2-0.1,3.2,0,6.2,0.2c3,0.2,5.3,0.6,6.9,1.1
	c1.7,0.4,3.8,0.7,6.3,0.8c2.6,0,4.5-0.3,5.8-1C503.9,211.9,505.3,211.2,506.8,210.6z M552,174.5c-0.7-1-1.8-1.6-3.2-2
	c-1.5-0.4-2.8,0-4,1.2c-1.1,1.2-3,3.8-6,7.8c-3,4.1-5,6.6-6.1,7.8c-1.1,1.2-2.3,2.3-3.5,3.2c-1.3,1-2.7,1.8-4.1,2.3
	c-1.4,0.5-2.3-0.1-2.5-1.9c-0.2-1.8,0.2-4.4,1.2-7.7c1-3.4,1.8-5.8,2.5-7.2s0.7-2.7,0.2-3.5c-0.5-1-1.3-1.5-2.1-1.5
	c-1-0.1-2.1,0.3-3.7,1s-3,3.4-4.2,8.1c-1.3,4.7-2.1,7.5-2.4,8.4c-0.3,0.9-0.4,2.2-0.4,4.2c0,1.9,0.4,3.5,1.2,5
	c0.8,1.5,2,2.6,3.7,3.2c1.7,0.7,3.4,1,5.2,1c1.8-0.1,4-1.1,6.6-3c2.7-1.9,4.6-3.5,5.8-4.6s2.4-2.2,3.5-3.4c1-1.2,2.1-2.1,3.1-2.8
	c1-0.7,1.5-0.9,1.6-0.4c0.1,0.4,0.1,1.8-0.1,4.2c-0.1,2.4-0.8,6.1-1.9,11.1c-1.2,5-2.7,9.4-4.9,13.4c-2.1,3.9-4.1,6.9-5.9,8.9
	c-1.8,2-4.4,4.4-7.7,7.2c-3.4,2.7-6.3,4.9-8.9,6.2c-2.6,1.3-5.6,1.8-9.2,1.3c-3.6-0.4-4.6-2.7-2.9-6.5c1.7-3.9,1.3-3.6-1.3,0.7
	c-2.5,4.3-3.2,7.6-1.8,9.9c1.3,2.3,2.8,3.5,4.6,3.8c1.8,0.3,3.5,0.3,5.5,0c1.9-0.3,4.4-1.2,7.7-2.5c3.2-1.3,6.9-3.5,11.1-6.3
	c4.2-2.8,7.7-6.2,10.8-10c3-3.8,5.5-8,7.4-12.3c1.8-4.4,3.1-8.2,3.6-11.6c0.5-3.4,1.1-7.5,1.6-12.5c0.5-5,0.8-8.9,0.7-11.5
	c-0.1-2.7-0.1-4.5,0.1-5.5C552.9,176.4,552.7,175.5,552,174.5z M157,72.4c1.3-0.4,3-1.6,5-3.6s3.2-3.9,3.5-5.7
	c0.4-1.8,0.2-3.5-0.4-5.5c-0.6-1.9-1.3-3.4-1.9-4.4c-0.7-1.1-1.2-1.8-1.7-2.1c-0.4-0.4-1.2-0.4-2.1-0.4c-0.9,0-1.5,0.3-2,0.7
	c-0.4,0.4-0.7,1-1.1,1.4c-0.4,0.5-0.4,1.1-0.4,1.8c0,0.7,0.2,1.3,0.6,1.7c0.4,0.4,0.8,1,1.2,1.6c0.4,0.6,0.7,1.3,1,2.1
	c0.2,0.8,0.3,1.6,0.3,2.4c-0.1,0.7-0.6,2.1-1.6,4.3c-1.1,2.1-1.8,3.4-2.3,3.6c-0.4,0.4-0.6,0.9-0.4,1.6
	C154.9,72.6,155.7,72.8,157,72.4z"/>
</svg>
