<?xml version="1.0" encoding="utf-8"?>
<!-- Generator: Adobe Illustrator 26.3.1, SVG Export Plug-In . SVG Version: 6.00 Build 0)  -->
<svg version="1.1" id="Layer_1" xmlns="http://www.w3.org/2000/svg" xmlns:xlink="http://www.w3.org/1999/xlink" x="0px" y="0px"
	 viewBox="0 0 566.9 566.9" style="enable-background:new 0 0 566.9 566.9;" xml:space="preserve">
<style type="text/css">
	.st0{fill:#F48120;}
	.st1{fill:#0094D9;}
</style>
<g>
	<g>
		<path class="st0" d="M272.7,264.1c-5,0-9-4-9-9v-62.9c0-5,4-9,9-9c5,0,9,4,9,9v62.9C281.7,260.1,277.7,264.1,272.7,264.1"/>
		<path class="st1" d="M329.1,354c3.5,3.5,3.5,9.2,0,12.8c-1.8,1.8-4.1,2.6-6.4,2.6c-2.3,0-4.6-0.9-6.4-2.6l-25.1-25.1l-25.1,25.1
			c-3.5,3.5-9.2,3.5-12.7,0c-3.5-3.5-3.5-9.2,0-12.8l31.4-31.4c3.4-3.4,9.4-3.4,12.7,0L329.1,354z M286.9,121.2
			c1.8,1.8,4.1,2.6,6.4,2.6c2.3,0,4.6-0.9,6.4-2.6l31.4-31.4c3.5-3.5,3.5-9.2,0-12.8c-3.5-3.5-9.2-3.5-12.7,0L293.3,102L268.2,77
			c-3.5-3.5-9.2-3.5-12.7,0c-3.5,3.5-3.5,9.2,0,12.8L286.9,121.2z M368.7,155.9h44.5c5,0,9-4,9-9c0-5-4-9-9-9h-35.4v-35.4
			c0-5-4-9-9-9c-5,0-9,4-9,9v44.5C359.7,151.8,363.7,155.9,368.7,155.9 M411.7,289.2h-44.5c-5,0-9,4-9,9v44.5c0,5,4,9,9,9s9-4,9-9
			v-35.4h35.4c5,0,9-4,9-9S416.7,289.2,411.7,289.2 M215.9,287.8h-44.5c-5,0-9,4-9,9c0,5,4,9,9,9h35.4v35.4c0,5,4,9,9,9c5,0,9-4,9-9
			v-44.5C224.9,291.9,220.9,287.8,215.9,287.8 M191.6,214.5L160.2,183c-3.5-3.5-9.2-3.5-12.7,0c-3.5,3.5-3.5,9.2,0,12.8l25,25.1
			l-25,25.1c-3.5,3.5-3.5,9.2,0,12.8c1.8,1.8,4.1,2.6,6.4,2.6c2.3,0,4.6-0.9,6.4-2.6l31.4-31.4C195.1,223.7,195.1,218,191.6,214.5
			 M217.3,92c-5,0-9,4-9,9v35.4h-35.4c-5,0-9,4-9,9c0,5,4,9,9,9h44.5c5,0,9-4,9-9V101C226.3,96,222.3,92,217.3,92 M332.8,185.8
			c-3.5-3.5-9.2-3.5-12.7,0l-31.4,31.4c-1.7,1.7-2.6,4-2.6,6.4c0,2.4,1,4.7,2.6,6.4l31.4,31.4c1.8,1.8,4.1,2.6,6.4,2.6
			c2.3,0,4.6-0.9,6.4-2.6c3.5-3.5,3.5-9.2,0-12.8l-25.1-25.1l25.1-25.1C336.3,195.1,336.3,189.3,332.8,185.8"/>
	</g>
	<g>
		<path class="st1" d="M50.3,491.9h-7.2l-20.8-27.4h-2.5v27.4h-5.7v-57.7h5.7V459h2.9l18.5-24.8h6.4l-20.4,27.4L50.3,491.9z
			 M79.2,491.9H56.3v-57.7h5.7v52.1h17.1V491.9z M92.7,491.9H87v-57.7h5.7V491.9z M156.9,491.9h-5.2v-52.7l-18,52.7h-5.8l-17.1-52.7
			v52.7h-5.2v-57.7h9.1l16.1,50.8l17.3-50.8h8.8V491.9z M203.6,491.9h-6.2l-3.3-12.4h-20l-3.6,12.4h-5.7l16.6-57.7h6.7L203.6,491.9z
			 M192.7,474.1l-8.2-32.1l-8.9,32.1H192.7z M234,439.9h-12.3v52h-5.7v-52h-12.3v-5.6H234V439.9z M272.3,434.2l-14.5,33.6v24.1h-5.7
			v-24.1L237,434.2h6.3l11.7,27.8l11.6-27.8H272.3z M305.1,491.9h-28.7v-5.3l22.4-46.8h-21.6v-5.6h27.5v5.4l-22.4,46.7h22.8V491.9z
			 M348.8,491.9h-6.2l-3.3-12.4h-20l-3.6,12.4H310l16.6-57.7h6.7L348.8,491.9z M337.9,474.1l-8.2-32.1l-8.9,32.1H337.9z
			 M388.7,450.1c0,1.2,0,2.1-0.1,2.7h-6.1v-0.7c0-4.8-0.6-8.1-1.7-9.9c-1.3-2-3.6-2.9-6.9-2.9h-3.1c-3.5,0-5.9,1.1-7.1,3.2
			c-1.1,1.9-1.6,5.4-1.6,10.7v19.4c0,6,0.4,9.8,1.3,11.5c1.1,2,3.5,3,7.3,3h3.1c3.7,0,6.1-0.9,7.2-2.7c1-1.6,1.4-5,1.4-10.3v-1.4h6
			c0,0.8,0.1,1.9,0.1,3.4c0,11.1-4.5,16.6-13.5,16.6h-5.6c-5.1,0-8.8-1.7-11-5c-1.6-2.5-2.5-6.9-2.5-13.1v-21.4
			c0-6.8,1.2-11.7,3.5-14.9c2.3-3.1,6.1-4.7,11.5-4.7h3c5.2,0,9,1.3,11.3,3.9C387.6,440,388.7,444.2,388.7,450.1z M423.2,479.2
			c0,5.1-1,8.6-3.1,10.5c-2,1.9-5.7,2.9-11,2.9s-9-1-11-2.9c-2-1.9-3.1-5.5-3.1-10.5v-6.7h5.7v4.5c0,3.9,0.5,6.5,1.6,7.9
			c1.1,1.5,3.3,2.3,6.7,2.3c3.3,0,5.6-0.8,6.8-2.3c1.1-1.4,1.7-4,1.7-7.9v-42.8h5.7V479.2z M469.7,491.9h-6.2l-3.3-12.4h-20
			l-3.6,12.4h-5.7l16.6-57.7h6.7L469.7,491.9z M458.8,474.1l-8.2-32.1l-8.9,32.1H458.8z"/>
		<path class="st0" d="M508.1,455.4c0,3.6-0.6,6.2-1.9,8.1c-1.2,1.8-3.4,3.3-6.3,4.5c-3,1.1-6,2.2-9.1,3.3c-3.3,1.2-5.5,2.8-6.6,4.8
			c-1,1.7-1.4,4.4-1.4,8.3v2.1h24.9v5.6h-30.4v-7.6c0-5.7,0.7-9.7,2.1-11.9c0.9-1.4,2.4-2.6,4.4-3.7c1.3-0.7,3.6-1.7,6.8-2.9
			c2.1-0.8,4.3-1.7,6.4-2.5c1.8-0.8,3-1.7,3.7-2.5c0.9-1.3,1.4-3.9,1.4-7.8v-4.5c0-3.4-0.6-5.9-1.7-7.4c-1.2-1.5-3.1-2.2-5.9-2.2
			h-3.1c-3.6,0-5.9,1.2-6.9,3.6c-0.5,1.3-0.8,4-0.8,8.1v2h-5.7v-1.7c0-6.3,0.8-10.7,2.5-13.2c1.9-2.8,5.3-4.1,10.2-4.1h4.7
			c4.9,0,8.2,1.3,10.1,3.8c1.7,2.4,2.5,6.5,2.5,12.3V455.4z M552.8,455.1c0,5.8-1.2,9.7-3.7,11.7c-2.2,1.7-6.4,2.6-12.7,2.6h-9.8
			v22.4h-5.7v-57.7h15.5c6.3,0,10.6,0.9,12.7,2.6c2.4,2,3.7,5.9,3.7,11.7V455.1z M546.5,456.7v-9.9c0-3.2-0.8-5.2-2.5-6.1
			c-1.3-0.7-4.2-1.1-8.5-1.1h-8.9v24.5h8.9c4.3,0,7.1-0.4,8.5-1.2C545.7,462,546.5,459.9,546.5,456.7z"/>
	</g>
</g>
</svg>
