<?xml version="1.0" encoding="utf-8"?>
<!-- Generator: Adobe Illustrator 26.3.1, SVG Export Plug-In . SVG Version: 6.00 Build 0)  -->
<svg version="1.1" id="Layer_1" xmlns="http://www.w3.org/2000/svg" xmlns:xlink="http://www.w3.org/1999/xlink" x="0px" y="0px"
	 viewBox="0 0 566.9 566.9" style="enable-background:new 0 0 566.9 566.9;" xml:space="preserve">
<style type="text/css">
	.st0{fill:#231F20;}
</style>
<g>
	<path class="st0" d="M60.8,339.6c1.3,0.1,1.9,0.7,1.9,1.7c0,0.6-0.3,1.4-0.9,2.6l-14.5,25.8L33,343.4c-0.4-0.7-0.5-1.3-0.5-1.8
		c0-1,0.6-1.8,1.8-2v-1.3H14.2v1.3c1.8,0.5,2.3,1,2.4,2.7v44.3c-0.2,1.7-0.6,2.3-2.4,2.7v1.3h15.3v-1.3c-1.8-0.5-2.4-1-2.4-2.7
		v-32.1l19.3,35.4l20.4-35.4v32.1c-0.2,1.7-0.6,2.3-2.4,2.7v1.3h16.2v-1.3c-1.8-0.5-2.4-1-2.4-2.7v-44.3c0.1-1.7,0.6-2.3,2.4-2.7
		v-1.3H60.8V339.6z"/>
	<path class="st0" d="M95.2,391.4c2.1,0,3.8-1.7,3.8-3.8c0-2.1-1.7-3.9-3.9-3.9c-2.1,0-3.8,1.7-3.8,3.8
		C91.4,389.7,93.1,391.4,95.2,391.4z"/>
	<path class="st0" d="M125.2,389.3c-1.8-0.5-2.4-1-2.4-2.7v-32.1l19.3,35.4l20.4-35.4v32.1c-0.2,1.7-0.6,2.3-2.4,2.7v1.3h16.2v-1.3
		c-1.8-0.5-2.4-1-2.4-2.7v-44.3c0.1-1.7,0.6-2.3,2.4-2.7v-1.3h-19.7v1.3c1.3,0.1,1.9,0.7,1.9,1.7c0,0.6-0.3,1.4-0.9,2.6L143,369.7
		l-14.3-26.2c-0.4-0.7-0.5-1.3-0.5-1.8c0-1,0.6-1.8,1.8-2v-1.3h-20.1v1.3c1.8,0.5,2.3,1,2.4,2.7v44.3c-0.2,1.7-0.6,2.3-2.4,2.7v1.3
		h15.3V389.3z"/>
	<path class="st0" d="M199.4,389.3c-1.6-0.4-2.5-1.2-2.5-2.3c0-0.5,0.3-1.5,0.7-2.4l3.5-7.4h23.7l3.6,7.4c0.5,1,0.7,1.7,0.7,2.4
		c0,1.3-0.9,2.1-2.5,2.4v1.3h19.2v-1.3c-2-0.3-2.8-1.1-4.7-4.7l-19.4-39.1c-0.9-1.6-1.3-3.1-1.3-3.9c0-0.9,0.9-1.6,2.3-2v-1.3h-18.5
		v1.3c1.5,0.5,2.2,1.3,2.2,2.5c0,0.8-0.3,1.8-0.9,3.1l-19.2,40.2c-1.6,3.1-2.2,3.7-4.2,4v1.3h17.2V389.3z M213.1,351.5l8.5,18.6
		h-17.1L213.1,351.5z"/>
	<path class="st0" d="M250.8,390.6h45.7c1.7,0.2,2.3,0.6,2.7,2.4h1.3v-13.5h-1.3c-0.5,1.8-1,2.3-2.7,2.4h-27.1l30.7-41.4v-2.2H255
		c-1.7-0.2-2.3-0.6-2.7-2.4H251v13.5h1.3c0.5-1.8,1-2.3,2.7-2.4h26.2l-30.4,41V390.6z"/>
	<path class="st0" d="M348.5,339.6c1.8,0.5,2.3,1,2.4,2.7v26.1c0,6-0.5,8.4-2.4,10.3c-2.4,2.5-6.8,3.9-12.5,3.9s-10.3-1.4-12.6-3.9
		c-1.8-2-2.4-4.3-2.4-10.3v-26.1c0.2-1.7,0.6-2.3,2.5-2.7v-1.3h-16.3v1.3c1.8,0.5,2.3,1,2.4,2.7v29.3c0,8.1,2.1,13,6.8,15.8
		c4.4,2.7,10.7,4.1,19,4.1c8.3,0,14.6-1.3,19-4.1c4.7-2.8,6.8-7.8,6.8-15.8v-29.3c0.2-1.7,0.6-2.3,2.4-2.7v-1.3h-15.4V339.6z"/>
	<path class="st0" d="M388.4,389.3c-1.8-0.5-2.3-1-2.4-2.7v-17.3H400l10.5,15.4c1.6,2.2,1.9,2.8,1.9,3.4c0,0.6-0.7,1.2-2,1.3v1.3
		h18.9v-1.3c-2.4-0.2-3.2-0.8-7-6l-10.1-14.4c9.5-1.5,14.2-6.5,14.2-15c0-5.4-2.2-10-6-12.4c-3.4-2.3-7.6-3.1-15.6-3.1h-32.6v1.3
		c1.8,0.5,2.3,1,2.4,2.7v44.3c-0.2,1.7-0.6,2.3-2.4,2.7v1.3h16.2V389.3z M386,346.9h17.6c5.3,0,6.7,0.2,8.5,1.2
		c1.8,1,2.9,3.1,2.9,5.6c0,2.6-1.1,4.7-2.9,5.7c-1.8,0.9-3.3,1.2-8.5,1.2H386V346.9z"/>
	<path class="st0" d="M486.2,393h1.2v-13.5h-1.2c-0.5,1.8-1.1,2.3-2.7,2.4h-33.7v-14.3H471c1.7,0.2,2.3,0.6,2.7,2.4h1.3v-13.2h-1.3
		c-0.5,1.9-1,2.4-2.7,2.5h-21.2v-12.5h32.7c1.7,0.2,2.3,0.6,2.7,2.4h1.3v-13.5h-1.3c-0.5,1.8-1,2.3-2.7,2.4h-46.5v1.3
		c1.8,0.5,2.3,1,2.4,2.7v44.3c-0.2,1.7-0.6,2.3-2.4,2.7v1.3h47.5C485.1,390.7,485.7,391.2,486.2,393z"/>
	<path class="st0" d="M545.6,383.7l-20.1-24.2l17.7-14.3c1.6-1.3,3.2-2.7,4.8-3.9c0.4-0.4,0.8-0.6,1.1-0.9c0.7-0.5,1.2-0.7,2.4-0.9
		v-1.3H530v1.3c1.5,0.2,2.3,0.8,2.3,1.5c0,0.5-0.5,1.2-2.3,2.6l-20.8,16.9v-18.3c0.2-1.7,0.6-2.3,2.4-2.7v-1.3h-16.2v1.3
		c1.8,0.5,2.3,1,2.4,2.7v44.3c-0.2,1.7-0.6,2.3-2.4,2.7v1.3h16.2v-1.3c-1.8-0.5-2.3-1-2.4-2.7v-14l7.8-6.4l15.4,19
		c1.5,1.9,1.8,2.3,1.8,2.8c0,0.7-0.6,1.2-2,1.4v1.3h20.4v-1.3C550.3,389,550,388.8,545.6,383.7z"/>
	<path class="st0" d="M91.5,411.6c1.4,0.3,1.7,0.8,1.7,2.3v30.4c0,1.5-0.3,1.9-1.7,2.3v0.9h7.7v-0.9c-1.4-0.3-1.7-0.8-1.7-2.3v-30.4
		c0-1.5,0.3-2,1.7-2.3v-0.9h-7.7V411.6z"/>
	<path class="st0" d="M150.9,412.7c-2.4-1.5-5-2-10.4-2h-19.3v0.9c1.3,0.3,1.6,0.7,1.7,1.9v31.2c-0.1,1.2-0.4,1.5-1.7,1.9v0.9h7.7
		v-0.9c-1.3-0.3-1.6-0.7-1.7-1.9V431h13.4c5.4,0,8-0.5,10.4-2c2.7-1.7,4.3-4.8,4.3-8.2C155.1,417.3,153.5,414.3,150.9,412.7z
		 M148.1,426.3c-1.5,0.9-3.1,1.2-7.2,1.2h-13.8v-13.3h13.8c4.1,0,5.7,0.3,7.2,1.2c1.8,1,2.8,3,2.8,5.4
		C150.9,423.2,149.9,425.3,148.1,426.3z"/>
	<path class="st0" d="M190.7,442.1l-12.9-28.1c-0.4-0.9-0.5-1-0.5-1.4c0-0.6,0.3-0.8,1.3-1.1v-0.9h-9v0.9c1,0.2,1.3,0.5,1.3,1.1
		c0,0.3-0.1,0.5-0.5,1.4L157,443.2c-1.4,2.8-1.8,3.3-3.2,3.5v0.9h8.2v-0.9c-1.2-0.2-1.6-0.4-1.6-1c0-0.3,0.1-0.6,0.5-1.4l3.2-7h19.7
		l3,6.6c0.5,1.1,0.6,1.4,0.6,1.7c0,0.7-0.6,1-1.6,1.2v0.9h8.7v-0.9C192.5,446.2,192.5,446.2,190.7,442.1z M165.7,433.7l8.2-18.2
		l8.3,18.2H165.7z"/>
	<path class="st0" d="M232.6,445.3l-9.3-14.5c6.5-0.6,10.4-4.3,10.4-9.9c0-3.5-1.6-6.5-4.3-8.2c-2.4-1.5-5.2-2-10.8-2h-20.2v0.9
		c1.4,0.3,1.7,0.8,1.7,2.3v30.5c0,1.5-0.3,2-1.7,2.3v0.9h7.7v-0.9c-1.4-0.3-1.7-0.8-1.7-2.3V431h14.1l8.3,13.2
		c0.9,1.4,0.9,1.4,0.9,1.8c0,0.4-0.3,0.6-1.3,0.7v0.9h8.6v-0.9C233.9,446.7,233.1,446.2,232.6,445.3z M204.4,427.5v-13.3h14.5
		c4.3,0,6,0.3,7.6,1.2c1.8,1,2.9,3,2.9,5.5c0,2.4-1,4.4-2.8,5.4c-1.6,0.9-3.3,1.2-7.3,1.2H204.4z"/>
	<path class="st0" d="M270.4,410.7h-29.1c-1.5,0-2-0.3-2.3-1.7h-0.9v6.9h0.9c0.3-1.4,0.8-1.7,2.3-1.7h12.4v30.2c0,1.5-0.3,2-1.7,2.3
		v0.9h7.7v-0.9c-1.4-0.3-1.7-0.8-1.7-2.3v-30.2h12.4c1.5,0,2,0.3,2.3,1.7h0.9V409h-0.9C272.4,410.4,272,410.7,270.4,410.7z"/>
	<path class="st0" d="M310,411.6c1.4,0.3,1.7,0.8,1.7,2.3v26.9l-22.2-26c-1.1-1.2-1.3-1.5-1.3-2c0-0.6,0.4-0.9,1.3-1.2v-0.9H279v0.9
		c1.4,0.3,1.7,0.8,1.7,2.3v30.4c0,1.5-0.3,1.9-1.7,2.3v0.9h7.3v-0.9c-1.4-0.3-1.7-0.8-1.7-2.3v-29l24.4,28.3c0.9,1,1.2,1.5,1.2,1.9
		c0,0.5-0.4,0.9-1.2,1.1v0.9h8.5v-0.9c-1.4-0.3-1.7-0.8-1.7-2.3v-30.4c0-1.5,0.3-2,1.7-2.3v-0.9H310V411.6z"/>
	<path class="st0" d="M355,444.1h-23.6v-13.8h15.2c1.5,0,2,0.3,2.3,1.7h0.9v-6.9h-0.9c-0.3,1.4-0.8,1.7-2.3,1.7h-15.2v-12.7h23.2
		c1.5,0,2,0.3,2.3,1.7h0.9V409h-0.9c-0.3,1.4-0.8,1.7-2.3,1.7h-29.2v0.9c1.4,0.3,1.7,0.8,1.7,2.3v30.6c0,1.5-0.3,1.9-1.7,2.3v0.9
		H355c1.5,0,2,0.3,2.3,1.7h0.9v-6.9h-0.9C356.9,443.7,356.5,444.1,355,444.1z"/>
	<path class="st0" d="M399.4,445.3l-9.3-14.5c6.5-0.6,10.4-4.3,10.4-9.9c0-3.5-1.6-6.5-4.3-8.2c-2.4-1.5-5.2-2-10.8-2h-20.2v0.9
		c1.4,0.3,1.7,0.8,1.7,2.3v30.5c0,1.5-0.3,2-1.7,2.3v0.9h7.7v-0.9c-1.4-0.3-1.7-0.8-1.7-2.3V431h14.1l8.3,13.2
		c0.9,1.4,0.9,1.4,0.9,1.8c0,0.4-0.3,0.6-1.3,0.7v0.9h8.6v-0.9C400.7,446.7,399.9,446.2,399.4,445.3z M371.2,427.5v-13.3h14.5
		c4.3,0,6,0.3,7.6,1.2c1.8,1,2.9,3,2.9,5.5c0,2.4-1,4.4-2.8,5.4c-1.6,0.9-3.3,1.2-7.3,1.2H371.2z"/>
	<path class="st0" d="M436.1,444.1h-22.3l25.3-32.6v-0.8H410c-1.5,0-2-0.3-2.3-1.7h-0.9v6.9h0.9c0.3-1.4,0.8-1.7,2.3-1.7h21.9
		l-25.4,32.6v0.8h29.6c1.5,0,2,0.3,2.3,1.7h0.9v-6.9h-0.9C438.1,443.7,437.7,444.1,436.1,444.1z"/>
	<path class="st0" d="M470.9,411.6c0.9,0.2,1.2,0.4,1.2,0.9c0,0.4-0.2,0.9-1.2,2.3l-9.3,13.2l-9.3-12.8c-0.9-1.2-1.3-2-1.3-2.7
		c0-0.6,0.3-0.8,1.3-1v-0.9h-9.3v0.9c1.5,0.3,1.7,0.4,4.5,4.1l11.9,15.6v13.1c0,1.5-0.3,2-1.7,2.3v0.9h7.7v-0.9
		c-1.4-0.3-1.7-0.8-1.7-2.3v-13.1l11.3-15.6c2.8-3.4,3.3-3.9,4.8-4.1v-0.9h-8.7V411.6z"/>
	<path class="st0" d="M495,409.1c-3.3,0-6.1,0.9-8.2,2.7c-2.1,1.8-3.4,4.5-3.4,7.4c0,2.9,1.2,5.5,3.4,7.4c2.1,1.8,4.9,2.7,8.2,2.7
		c3.4,0,6.2-0.9,8.2-2.7c2.1-1.8,3.4-4.5,3.4-7.3c0-3-1.2-5.7-3.4-7.5C501.2,410,498.5,409.1,495,409.1z M502.5,425.2
		c-1.8,1.8-4.3,2.6-7.5,2.6c-3.2,0-5.6-0.8-7.4-2.6c-1.6-1.6-2.5-3.6-2.5-6c0-5.2,4-8.7,9.9-8.7c3.2,0,5.6,0.8,7.5,2.6
		c1.7,1.5,2.5,3.6,2.5,6.1C505,421.6,504.1,423.7,502.5,425.2z"/>
	<path class="st0" d="M500.7,423.8l-2.6-4c1.8-0.4,2.7-1.4,2.7-3.1c0-1.1-0.4-2.1-1.2-2.7c-0.8-0.6-1.7-0.8-3.9-0.8H489v0.4
		c0.5,0.1,0.6,0.2,0.6,0.6v9.7c0,0.3-0.1,0.4-0.6,0.5v0.4h3.3v-0.4c-0.5-0.1-0.6-0.2-0.6-0.6v-3.9h4l2.6,3.8
		c0.3,0.5,0.3,0.5,0.3,0.5c0,0.1-0.1,0.1-0.4,0.2v0.4h3.5v-0.5C501.2,424.5,501.1,424.5,500.7,423.8z M491.7,418.4v-3.4h4.3
		c2,0,2.7,0.5,2.7,1.7c0,1.2-0.8,1.7-2.7,1.7H491.7z"/>
	<polygon class="st0" points="266.7,184.2 265,164.3 283.5,178.8 302.1,164.3 300.3,184.2 323.1,166.4 327.4,117.7 327.4,117.7 
		283.5,152 239.6,117.7 239.6,117.7 243.9,166.4 	"/>
	<polygon class="st0" points="244,289.5 236.3,200.7 247.7,209.6 255.4,298.4 276.4,314.8 270.5,227.4 283.5,237.6 296.5,227.4 
		290.6,314.8 311.6,298.4 319.3,209.6 330.7,200.7 323,289.5 345,272.3 356,154.1 283.5,210.8 211,154.1 222,272.3 	"/>
</g>
</svg>
