<?xml version="1.0" encoding="utf-8"?>
<!-- Generator: Adobe Illustrator 26.3.1, SVG Export Plug-In . SVG Version: 6.00 Build 0)  -->
<svg version="1.1" id="Layer_1" xmlns="http://www.w3.org/2000/svg" xmlns:xlink="http://www.w3.org/1999/xlink" x="0px" y="0px"
	 viewBox="0 0 566.9 566.9" style="enable-background:new 0 0 566.9 566.9;" xml:space="preserve">
<style type="text/css">
	.st0{fill:#3C92CF;}
	.st1{fill:#9C9EA1;}
</style>
<g>
	<path class="st0" d="M105.1,425.1H91.8c-2.1,0-3.7-1.7-3.7-3.7v-54.5l-15.2,55.5c-0.4,1.6-1.9,2.7-3.6,2.7H53.8
		c-1.7,0-3.2-1.1-3.6-2.7l-15.3-56.1v55.2c0,2.1-1.7,3.7-3.7,3.7H17.9c-2.1,0-3.7-1.7-3.7-3.7v-71.8c0-2.1,1.7-3.7,3.7-3.7h24.5
		c1.7,0,3.1,1.1,3.6,2.7l15.5,54.6L77,348.5c0.5-1.6,1.9-2.7,3.6-2.7h24.5c2.1,0,3.7,1.7,3.7,3.7v71.8
		C108.8,423.4,107.2,425.1,105.1,425.1z"/>
	<path class="st0" d="M181.6,425.1h-53c-2.1,0-3.7-1.7-3.7-3.7v-71.8c0-2.1,1.7-3.7,3.7-3.7h52.1c2.1,0,3.7,1.7,3.7,3.7v10.2
		c0,2.1-1.7,3.7-3.7,3.7h-34.5v13.7h33.5c2.1,0,3.7,1.7,3.7,3.7v7.8c0,2.1-1.7,3.7-3.7,3.7h-33.5v14.9h35.4c2.1,0,3.7,1.7,3.7,3.7
		v10.2C185.4,423.4,183.7,425.1,181.6,425.1z"/>
	<path class="st0" d="M270.5,393.5c0,11.6-2.2,19.8-6.7,24.5c-4.5,4.7-12.3,7.1-23.6,7.1h-36.6c-2.1,0-3.7-1.7-3.7-3.7v-71.8
		c0-2.1,1.7-3.7,3.7-3.7h36.6c11.3,0,19.1,2.4,23.6,7.1c4.5,4.7,6.7,12.9,6.7,24.5V393.5z M248.8,392.1V379c0-6.3-0.6-10.4-1.9-12.3
		c-1.5-2.1-4.9-3.2-10-3.2h-15.8v43.9H237c5.2,0,8.6-1.1,10-3.2C248.2,402.4,248.8,398.4,248.8,392.1z"/>
	<g>
		<path class="st1" d="M302.6,425.1h-14c-2.1,0-3.7-1.7-3.7-3.7v-71.8c0-2.1,1.7-3.7,3.7-3.7h14c2.1,0,3.7,1.7,3.7,3.7v71.8
			C306.3,423.4,304.6,425.1,302.6,425.1z"/>
		<path class="st1" d="M393.6,393.5c0,11.6-2.2,19.8-6.7,24.5c-4.5,4.7-12.3,7.1-23.6,7.1h-36.6c-2.1,0-3.7-1.7-3.7-3.7v-71.8
			c0-2.1,1.7-3.7,3.7-3.7h36.6c11.3,0,19.1,2.4,23.6,7.1c4.5,4.7,6.7,12.9,6.7,24.5V393.5z M371.9,392.1V379
			c0-6.3-0.6-10.4-1.9-12.3c-1.5-2.1-4.9-3.2-10-3.2h-15.8v43.9h15.8c5.2,0,8.6-1.1,10-3.2C371.3,402.4,371.9,398.4,371.9,392.1z"/>
		<path class="st1" d="M464,425.1h-53c-2.1,0-3.7-1.7-3.7-3.7v-71.8c0-2.1,1.7-3.7,3.7-3.7h52.1c2.1,0,3.7,1.7,3.7,3.7v10.2
			c0,2.1-1.7,3.7-3.7,3.7h-34.5v13.7H462c2.1,0,3.7,1.7,3.7,3.7v7.8c0,2.1-1.7,3.7-3.7,3.7h-33.5v14.9H464c2.1,0,3.7,1.7,3.7,3.7
			v10.2C467.7,423.4,466,425.1,464,425.1z"/>
		<path class="st1" d="M549,425.1h-15c-1.7,0-3.2-1.1-3.6-2.8l-2.9-11.1h-25l-2.9,11.1c-0.4,1.6-1.9,2.8-3.6,2.8h-15
			c-2.5,0-4.3-2.4-3.6-4.8l20.6-71.8c0.5-1.6,1.9-2.7,3.6-2.7h27.1c1.7,0,3.1,1.1,3.6,2.7l20.2,71.8
			C553.3,422.7,551.5,425.1,549,425.1z M523.8,395.1l-7.9-32.8h-1.4l-8.1,32.8H523.8z"/>
	</g>
	<g>
		<path class="st0" d="M206.3,268.5l52.4,51.9c3.4,3.3,8.9,3.3,12.2-0.1l17.9-18.1l-59.2-69.6l-23.4,23.6
			C202.9,259.7,202.9,265.1,206.3,268.5z"/>
		<path class="st0" d="M382,255.5l-23.6-23.4l-64.6-64l-23.6-23.4c-3.4-3.3-8.9-3.3-12.2,0.1L206,197c-3.3,3.4-3.3,8.9,0.1,12.2
			l23.6,23.4l64.6,64l23.6,23.4c3.4,3.3,8.9,3.3,12.2-0.1l51.9-52.4C385.4,264.3,385.3,258.8,382,255.5z"/>
		<path class="st0" d="M381.7,196.2l-52.4-51.9c-3.4-3.3-8.9-3.3-12.2,0.1l-17.9,18.1l59.2,69.6l23.4-23.6
			C385.1,205.1,385.1,199.6,381.7,196.2z"/>
	</g>
</g>
</svg>
