<?xml version="1.0" encoding="utf-8"?>
<!-- Generator: Adobe Illustrator 26.3.1, SVG Export Plug-In . SVG Version: 6.00 Build 0)  -->
<svg version="1.1" id="Layer_1" xmlns="http://www.w3.org/2000/svg" xmlns:xlink="http://www.w3.org/1999/xlink" x="0px" y="0px"
	 viewBox="0 0 566.9 566.9" style="enable-background:new 0 0 566.9 566.9;" xml:space="preserve">
<style type="text/css">
	.st0{fill:#A6A8AB;}
	.st1{fill:#8BC53F;}
</style>
<g>
	<g>
		<path class="st0" d="M55.4,230.6c0,4.3-1.5,8-4.6,11c-3.1,3-6.8,4.5-11.2,4.5c-4.3,0-8.1-1.5-11.2-4.5c-3.1-3-4.7-6.7-4.7-11
			c0-4.3,1.5-8,4.6-11c3.1-3,6.8-4.5,11.2-4.5c4.4,0,8.1,1.5,11.2,4.5C53.8,222.6,55.4,226.3,55.4,230.6z M51.7,230.7
			c0-3.4-1.2-6.3-3.6-8.7c-2.4-2.4-5.2-3.6-8.6-3.6c-3.4,0-6.3,1.2-8.6,3.6c-2.3,2.4-3.5,5.3-3.5,8.7c0,3.3,1.2,6.2,3.6,8.6
			c2.4,2.4,5.2,3.6,8.6,3.6c3.3,0,6.2-1.2,8.6-3.6C50.5,236.9,51.7,234,51.7,230.7z"/>
		<path class="st0" d="M77.7,237.1c0,2.7-0.9,4.9-2.6,6.6s-4,2.5-6.9,2.5c-2.3,0-4.3-0.6-5.9-1.8c-1.6-1.2-2.6-2.9-3.2-5.1l3.2-1.6
			c0.9,3.6,2.8,5.5,5.9,5.5c1.8,0,3.2-0.5,4.3-1.5c1.1-1,1.6-2.3,1.6-4c0-2.6-1.5-4.6-4.6-5.9l-3.6-1.5c-3.9-1.7-5.8-4.3-5.8-7.8
			c0-2.1,0.8-3.8,2.3-5.2c1.6-1.4,3.6-2.1,6-2.1c3.6,0,6.2,1.5,7.7,4.5l-2.9,1.9c-1.3-2.3-3-3.4-5-3.4c-1.3,0-2.4,0.4-3.3,1.2
			c-0.8,0.8-1.3,1.8-1.3,3.1c0,2,1.3,3.6,4,4.8l4.2,1.9C75.8,230.6,77.7,233.4,77.7,237.1z"/>
		<path class="st0" d="M86,245.4h-3.6v-29.6H86V245.4z"/>
		<path class="st0" d="M108.8,245.4H93.2v-29.6h15.7v3.3H96.7v8.5h12.1v3.3H96.7v11.4h12.1V245.4z"/>
		<path class="st0" d="M139,230.6c0,5.4-1.7,9.4-5.2,12c-1.5,1.2-3.4,2-5.6,2.4c-1.5,0.3-3.7,0.4-6.6,0.4h-7v-29.6h5.7
			c3.5,0,6,0.1,7.5,0.3c2.3,0.4,4.3,1.2,6,2.4C137.3,221.2,139,225.2,139,230.6z M135.3,230.6c0-4.2-1.2-7.3-3.7-9.4
			c-1.1-0.9-2.6-1.6-4.6-1.9c-1.3-0.2-3.5-0.3-6.5-0.3h-2.2v23.1h2.2c3.1,0,5.2-0.1,6.5-0.3c1.9-0.3,3.4-0.9,4.6-1.8
			C134.1,237.9,135.3,234.8,135.3,230.6z"/>
		<path class="st0" d="M159.5,245.4h-14.8v-29.6h3.6V242h11.2V245.4z"/>
		<path class="st0" d="M179.4,245.4h-15.7v-29.6h15.7v3.3h-12.1v8.5h12.1v3.3h-12.1v11.4h12.1V245.4z"/>
	</g>
	<g>
		<path class="st1" d="M64.3,253.5c-13.8,0-25.6,4.8-35.4,14.3c-9.8,9.5-14.7,21.2-14.7,34.9c0,13.6,4.9,25.3,14.8,34.8
			c9.8,9.6,21.6,14.4,35.4,14.4c13.8,0,25.6-4.8,35.4-14.3c9.8-9.5,14.7-21.2,14.7-34.9c0-13.8-4.9-25.5-14.6-35
			C90,258.2,78.2,253.5,64.3,253.5z M91.4,330.1c-7.6,7.6-16.6,11.4-27.1,11.4c-10.6,0-19.6-3.8-27.2-11.4
			c-7.5-7.6-11.3-16.7-11.3-27.3c0-10.7,3.7-19.8,11.2-27.5c7.4-7.6,16.5-11.4,27.3-11.4c10.6,0,19.6,3.8,27.2,11.3
			c7.5,7.5,11.3,16.7,11.3,27.6C102.7,313.4,99,322.6,91.4,330.1z"/>
		<path class="st1" d="M176.8,255.6h-59c-1.4,0-2.6,1.2-2.6,2.6v5.5c0,1.4,1.2,2.6,2.6,2.6h23.9v80.6c0,1.4,1.2,2.6,2.6,2.6h6.1
			c1.4,0,2.6-1.2,2.6-2.6v-80.6h23.8c1.4,0,2.6-1.2,2.6-2.6v-5.5C179.4,256.7,178.2,255.6,176.8,255.6z"/>
		<path class="st1" d="M261.6,255.6h-6.1c-1.4,0-2.6,1.2-2.6,2.6V314c0,9.4-2,16.4-6,20.9c-4,4.5-10.4,6.7-19,6.7s-15-2.2-19-6.7
			c-4-4.5-6-11.4-6-20.9v-8.5h29.4c2.2,0,3.4-2.5,2-4.2l-25.4-31h15.9c2.2,0,3.4-2.5,2-4.2l-22.6-27.6h5.1c2.2,0,3.4-2.5,2-4.2
			L196,216c-1.5-1.9-4.6-0.8-4.6,1.6V314c0,25.3,12.1,37.9,36.3,37.9c24.2,0,36.3-12.6,36.3-37.9v-55.8
			C264.1,256.7,263,255.6,261.6,255.6z"/>
		<path class="st1" d="M330.4,338.8h-32.9v-80.6c0-1.4-1.2-2.6-2.6-2.6h-6.1c-1.4,0-2.6,1.2-2.6,2.6v88.7c0,1.4,1.2,2.6,2.6,2.6
			h41.6c1.4,0,2.6-1.2,2.6-2.6v-5.5C333,339.9,331.9,338.8,330.4,338.8z"/>
		<path class="st1" d="M355,255.6h-6.1c-1.4,0-2.6,1.2-2.6,2.6v88.7c0,1.4,1.2,2.6,2.6,2.6h6.1c1.4,0,2.6-1.2,2.6-2.6v-88.7
			C357.6,256.7,356.4,255.6,355,255.6z"/>
		<path class="st1" d="M456.8,255.6h-5.5c-1.4,0-2.6,1.2-2.6,2.6v68.7l-64.1-70c-1.6-1.7-4.5-0.6-4.5,1.7v88.3
			c0,1.4,1.2,2.6,2.6,2.6h5.5c1.4,0,2.6-1.2,2.6-2.6v-67.9l64.2,69.3c1.6,1.7,4.5,0.6,4.5-1.8v-88.3
			C459.4,256.7,458.2,255.6,456.8,255.6z"/>
		<path class="st1" d="M552.5,345.8l-38.7-88.5c-0.9-2.1-3.8-2.1-4.7,0l-38.6,88.5c-0.7,1.7,0.5,3.6,2.4,3.6h6.4c1,0,2-0.6,2.4-1.6
			l11.5-27.2h36.6l11.5,27.2c0.4,1,1.3,1.6,2.4,1.6h6.4C552,349.4,553.3,347.5,552.5,345.8z M496.5,311.1l15-34.5l15,34.5H496.5z"/>
	</g>
</g>
</svg>
