<?xml version="1.0" encoding="UTF-8"?><svg id="Layer_1" xmlns="http://www.w3.org/2000/svg" viewBox="0 0 566.93 566.93"><defs><style>.cls-1{fill:#231f20;}</style></defs><path class="cls-1" d="M196.1,242.61c-22.56,0-40.85,18.29-40.85,40.85s18.29,40.85,40.85,40.85,40.85-18.29,40.85-40.85-18.29-40.85-40.85-40.85Zm-11.19,16.8c1.07-1.07,2.8-1.07,3.87,0,1.07,1.07,1.07,2.8,0,3.87-1.07,1.07-2.8,1.07-3.87,0-1.07-1.07-1.07-2.8,0-3.87Zm-4.14,6.32c2.21,0,4,1.79,4,4s-1.79,4-4,4-4-1.79-4-4,1.79-4,4-4Zm-7.15,17.16c0-3.07,2.49-5.55,5.55-5.55s5.55,2.49,5.55,5.55-2.49,5.55-5.55,5.55-5.55-2.49-5.55-5.55Zm42.92,7.18c-.53,.12-.94,.53-1.07,1.05,0,0-.92,4.36-1.69,7.25-.86,3.22-2.85,4.25-6.33,4.25-3.82,0-4.18-.7-6.6-.7-.86,0-1.56,.69-1.56,1.56h0c0,4.39,1.71,6.6,6.5,6.6v1.14h-19.42v-1.14c4.79,0,6.5-2.21,6.5-6.59h0c0-.87-.7-1.56-1.56-1.56-1.61,0-3.3,1.47-7.13,1.47-3.31,0-6-2.68-6-6s2.68-6,6-6c1.63,0,3.1,.65,4.18,1.7,.53,.48,1.23,.77,2,.77,1.64,0,2.97-1.33,2.97-2.97,0-1.22-.74-2.27-1.8-2.73-2.09-.85-3.56-2.9-3.56-5.3,0-3.16,2.56-5.72,5.72-5.72,.7,0,1.36,.13,1.98,.36,.25,.09,.53,.12,.82,.12,1.38,0,2.51-1.12,2.51-2.51s-1.12-2.51-2.51-2.51c-.55,0-1.05,.18-1.47,.47-.71,.53-1.62,.87-2.58,.87-2.35,0-4.25-1.91-4.25-4.26s1.91-4.25,4.25-4.25c.91,0,1.76,.29,2.45,.78,.41,.29,.94,.47,1.49,.47,1.4,0,2.54-1.14,2.54-2.54s-1.14-2.54-2.54-2.54c-.11,0-.22,0-.32,.02-.13,.02-.27,.03-.4,.03-1.4,0-2.54-1.14-2.54-2.54s1.14-2.54,2.54-2.54c12.69,0,20.17,11.06,18.94,20.08-.09,.66-.26,1.28-.27,1.87,0,.46,.13,.9,.34,1.28l3.56,6.46c.2,.37,.32,.79,.32,1.25,0,1.24-.87,2.27-2.04,2.52Zm-120.55,3.19c-4.66,0-8.71,2.81-9.85,6.83-1.14,4.02-3.53,5.97-7.29,5.97-3,0-5.01-1.24-6.15-3.79-1.17-2.39-1.76-6.61-1.76-12.52,0-1.65,.03-2.9,.1-3.75h22.72c2.77,0,5.37-.98,7.3-2.76,1.93-1.78,2.96-4.13,2.88-6.61-.17-5.49-.36-8.9-.57-10.12-.7-4.2-2.15-7.64-4.33-10.22-4.28-5-11.03-7.54-20.06-7.54s-16.29,2.34-20.56,6.95c-2.36,2.58-3.95,6.14-4.73,10.56-.6,3.16-.91,8.23-.91,15.05,0,8.36,.31,14.36,.91,17.81,.86,5.28,2.76,9.54,5.63,12.65,3.93,4.23,10.42,6.37,19.27,6.37s14.99-1.78,19.04-5.3c4.07-3.52,6.13-8.81,6.13-16.66l-.13-2.94h-7.64Zm-25.08-23.69c.22-2.66,.76-4.66,1.63-5.96,1.12-1.69,3.1-2.51,6.05-2.51s5.03,.8,6.11,2.45c1.11,1.69,1.68,4.69,1.68,8.9v2.36h-15.44l-.03-.55c-.09-1.56-.12-3.13,.01-4.69Zm82.9,42.38v4.48h-34.49c-5.62,0-10.19-4.09-10.19-9.12v-1.05c0-1.52,.43-3.03,1.24-4.36l23.04-37.92h-13.83c-5.62,0-10.19-4.09-10.19-9.12v-4.37h33.97c5.62,0,10.19,4.09,10.19,9.12,0,1.53-.44,3.05-1.26,4.39l-23.79,38.83h15.12c5.62,0,10.19,4.09,10.19,9.13Zm178.28-63.08c-8.83,0-25.69,3.65-25.69,20.12v.41h8.97c4.02,0,7.65-2.1,9.26-5.34,1.26-2.54,3.7-3.77,7.46-3.77,4.72,0,7.01,1.98,7.01,6.05,0,2.49-1.03,4.35-3.14,5.65-.67,.38-3.99,1.76-9.86,4.12-7.41,3.01-12.57,5.95-15.34,8.75-3.32,3.37-5,8.07-5,13.99,0,14.38,11.99,19.31,23.34,19.31,16.84,0,27.38-4.93,27.38-23.58v-24.67c0-17.39-15.39-21.04-24.4-21.04Zm7.27,44.19c0,8.43-2.71,12.53-8.3,12.53-4.72,0-7.01-2.47-7.01-7.54,0-2.99,1.26-5.61,3.73-7.76,2.18-1.84,6.08-3.98,11.58-6.37v9.14Zm110.95,25.11c.3,0-.3,0,0,0h0Zm24.49-18.53c-.07,11.77-9.29,18.53-24.49,18.53-7.47,0-23.53-4.94-23.53-23.85l.03-.37h6.65c4.81,0,8.91,3,9.98,7.29,.3,1.23,.72,2.15,1.19,2.66,1.17,1.52,3.19,2.28,6.03,2.28,3.88,.28,6.09-1.85,6.86-3.92,.83-2.22,.37-5.39-2.6-7.1-1.71-.98-19.22-11.66-22.53-15.22-3.31-3.56-5.22-7.89-5.22-13.03,0-12.05,8.34-18.16,24.18-18.16,7.03,0,22.29,3.77,22.29,22.1l-.02,.39h-6.78c-4.29,0-8.09-2.46-9.67-6.27-1.21-2.9-3.64-4.35-7.13-4.22-2.95-.2-5.26,1.01-6.25,3.22-1.05,2.35-.28,5.1,1.88,6.67,0,0,12.48,8.32,14.82,9.74,9.13,5.53,13.3,8.07,14.31,19.26Zm40.15-49.92l1.27,.1-.04,2.81c-.03,1.87-.87,3.61-2.37,4.91-1.47,1.27-3.47,1.98-5.5,1.95h-.07c-2.47-.05-3.11-.07-3.36-.1h-.3c-1.72-.02-2.05,.56-2.06,1.62l-.11,7.68,11.09,.14-.04,2.85c-.06,3.84-3.59,6.92-7.88,6.86l-3.31-.04-.26,17.23-13.84-.17,.52-35.02c.06-3.92,.98-6.81,2.75-8.58,1.81-1.82,4.85-2.71,9.03-2.66,1.37,.02,12.29,.22,14.5,.41Zm37.65,30.02c-.16,10.97-6.08,16.69-17.1,16.55-6.81-.08-11.54-2.14-14.04-6.09-2.21-3.43-3.26-9.44-3.14-17.86,.12-8.42,1.36-14.4,3.67-17.79,2.61-3.93,7.4-5.89,14.21-5.8,10.97,.14,16.69,5.61,16.54,15.84l-.03,1.76-6.37-.08c-3.42-.04-6.45-2.12-7.36-5.04-.65-2.07-1.86-2.35-2.85-2.36s-3.45-.04-3.53,5.92l-.22,14.77c-.05,3.32,.4,4.85,.78,5.55,.29,.52,.83,1.12,2.48,1.14,1.42,.02,2.29-.44,2.82-1.49,.23-.45,.42-1.16,.57-2.02,.57-3.36,3.91-5.86,7.77-5.81l5.63,.07,.13,1.42c.03,.29,.05,.45,.04,1.33Zm-133.76-8.44v45.14h-7.58c-5.63,0-10.19-4.09-10.19-9.13v-35.42c0-5.08-4.27-9.2-9.54-9.2h0c-5.27,0-9.54,4.12-9.54,9.2v44.55h-7.58c-5.63,0-10.19-4.09-10.19-9.13v-36.01c0-11.78,10.09-21.94,23.23-22.52h8.15c13.14,.58,23.23,10.73,23.23,22.52Zm-120.12,0v45.14h-7.58c-5.63,0-10.19-4.09-10.19-9.13v-35.42c0-5.08-4.27-9.2-9.54-9.2h0c-5.27,0-9.54,4.12-9.54,9.2v44.55h-7.58c-5.63,0-10.19-4.09-10.19-9.13v-36.01c0-11.78,10.09-21.94,23.23-22.52h8.15c13.14,.58,23.23,10.73,23.23,22.52Zm-247.32-15.26c0,5.03-4.57,9.13-10.19,9.13-5.12,0-9.28,3.73-9.28,8.31v42.96h-7.58c-5.62,0-10.19-4.09-10.19-9.13v-32.42c0-13.45,12.22-24.4,27.25-24.4h10v5.55Z"/></svg>