<?xml version="1.0" encoding="utf-8"?>
<!-- Generator: Adobe Illustrator 26.3.1, SVG Export Plug-In . SVG Version: 6.00 Build 0)  -->
<svg version="1.1" id="Layer_1" xmlns="http://www.w3.org/2000/svg" xmlns:xlink="http://www.w3.org/1999/xlink" x="0px" y="0px"
	 viewBox="0 0 566.9 566.9" style="enable-background:new 0 0 566.9 566.9;" xml:space="preserve">
<style type="text/css">
	.st0{fill:#58595B;}
</style>
<g>
	<path class="st0" d="M121.8,281.5c-0.6-0.7-1.2-1.5-1.7-2.3c-0.4-0.8-0.8-1.9-1.1-3.4c-0.3-1.5-0.5-3.1-0.6-4.9
		c-0.1-1.8-0.2-3.7-0.2-5.7c0-2,0-3.9,0-5.8v-12.1c0-9.5-1.8-17-5.4-22.5c-3.6-5.4-10.2-8.6-19.8-9.3v-0.4
		c9.2-1.3,15.9-4.9,20.1-10.7c4.2-5.8,6.3-13.5,6.3-23.1c0-5.4-0.8-10.5-2.3-15.1c-1.5-4.6-4-8.7-7.3-12c-3.4-3.4-7.8-6-13.2-7.9
		c-5.4-1.9-11.9-2.8-19.5-2.8H23.1c-4.9,0-8.9,3.7-8.9,8.2v125.6c0,4.5,4,8.2,8.9,8.2h22.3c4.9,0,8.9-3.7,8.9-8.2v-48.7h10.6
		c2.4,0,4.5,0.3,6.1,0.9c1.7,0.6,3,1.7,4.1,3.2c1.1,1.5,1.8,3.6,2.3,6.3c0.4,2.7,0.6,6,0.6,9.9v9.5c0,1.5,0,3.4,0.1,5.7
		c0.1,2.3,0.2,4.7,0.4,7.3c0.2,2.5,0.6,5,1.1,7.6c0,0,0,0.1,0,0.1c0.8,3.8,4.5,6.5,8.7,6.5h36.2v-2
		C123.3,282.9,122.3,282.3,121.8,281.5z M75,199c-2.7,3.1-7,4.7-12.7,4.7h-8v-33.4H62c6,0,10.4,1.3,13,3.8c2.7,2.5,4,6.8,4,12.7
		C79.1,191.8,77.7,195.9,75,199z"/>
	<path class="st0" d="M159.1,276.3c0,5.1,4.2,9.3,9.3,9.3h21.6c5.1,0,9.3-4.2,9.3-9.3v-46.6l34.1-74.7c2.5-5.4-1.8-11.4-8.2-11.4
		h-23.9c-4,0-7.5,2.4-8.6,6l-13.3,43.5h-0.4l-13.3-43.5c-1.1-3.5-4.6-6-8.6-6h-23.3c-6.3,0-10.6,5.9-8.2,11.3l33.5,74.8V276.3z"/>
	<path class="st0" d="M268.9,285.9c6.4,1.3,13.8,1.9,22.1,1.9c17.7,0,31.2-3.4,40.5-10.2c9.3-6.8,14-17.8,14-32.9
		c0-8.6-1.6-15.6-4.9-21c-3.2-5.4-7.3-9.7-12.2-13c-4.9-3.3-10.1-6-15.7-8.1c-5.6-2.1-10.9-4.1-15.7-6.1c-4.9-2-8.9-4.3-12.2-7.1
		c-3.2-2.7-4.9-6.4-4.9-11c0-3.2,1-6.1,3-8.7c2-2.6,5.2-3.9,9.5-3.9c3.9,0,6.8,1.5,8.6,4.5c1,1.6,1.7,4.3,2.2,7.1c0.7,4,4.4,7,8.8,7
		l19.9,0.1c5.3,0,9.5-4.3,8.9-9.2c-1.3-10.6-5.1-18.6-11.2-24.1c-7.8-7-20.5-10.4-38.1-10.4c-17,0-29.6,3.8-37.9,11.3
		c-8.3,7.6-12.5,18.6-12.5,33c0,8.4,1.5,15.1,4.6,20.3c3.1,5.2,7,9.3,11.6,12.5c4.7,3.2,9.7,5.8,15.2,7.8c5.5,2,10.5,3.9,15.2,5.9
		c4.7,1.9,8.5,4.2,11.6,7c3.1,2.7,4.6,6.4,4.6,11c0,3.8-1.1,7.1-3.3,9.7c-2.2,2.7-5.4,4-9.6,4c-3.9,0-7-1.2-9.5-3.7
		c-1.5-1.5-2.6-5-3.1-8.9c-0.6-4.1-4.3-7.2-8.8-7.2l-20.9-0.1c-5.3,0-9.4,4.2-8.9,9c0.6,5.5,1.5,12,2.7,14.6c2.3,5,5.6,9.1,10,12.2
		C257.1,282.4,262.5,284.6,268.9,285.9z"/>
	<path class="st0" d="M543.9,143.6h-22.3c-4.9,0-8.9,3.7-8.9,8.2V246c0,6.9-1.1,11.5-3.2,13.8c-2.2,2.3-5.1,3.5-8.8,3.5h-2.9
		c-4,0-7.3,3-7.3,6.8V281c0,3.7,3.3,6.8,7.3,6.8h2.9c8.5,0,16-0.7,22.4-2.2c6.5-1.5,11.9-4.2,16.3-8.2c4.4-4,7.7-9.3,10-15.9
		c2.3-6.6,3.4-14.9,3.4-24.9v-84.9C552.8,147.3,548.8,143.6,543.9,143.6z"/>
	<path class="st0" d="M91.5,303.9H26.3c-5.1,0-9.2,4.1-9.2,9.2v11.8c0,5.1,4.1,9.2,9.2,9.2h32.2l-43.3,82.8c-0.7,1.3-1,2.8-1,4.3
		v15.1c0,5.1,4.1,9.2,9.2,9.2h69c5.1,0,9.2-4.1,9.2-9.2v-11.8c0-5.1-4.1-9.2-9.2-9.2h-36l44.1-82.8c0.7-1.3,1.1-2.8,1.1-4.3v-14.2
		C101.5,308.4,97,303.9,91.5,303.9z"/>
	<path class="st0" d="M237.4,303.9h-16.1c-5.1,0-9.2,4.1-9.2,9.2v78h-0.4l-21.9-80.4c-1.1-4-4.7-6.8-8.8-6.8h-25
		c-5.1,0-9.2,4.1-9.2,9.2v123.1c0,5.1,4.1,9.2,9.2,9.2H172c5.1,0,9.2-4.1,9.2-9.2v-78.2h0.4l22.7,80.7c1.1,4,4.7,6.7,8.8,6.7h24.3
		c5.1,0,9.2-4.1,9.2-9.2V313C246.5,308,242.4,303.9,237.4,303.9z"/>
	<path class="st0" d="M543.6,303.9h-16.1c-5.1,0-9.2,4.1-9.2,9.2v123.1c0,5.1,4.1,9.2,9.2,9.2h16.1c5.1,0,9.2-4.1,9.2-9.2V313
		C552.8,308,548.6,303.9,543.6,303.9z"/>
	<path class="st0" d="M360.4,434l-30-123.1c-1-4.1-4.7-7-8.9-7h-31.9c-4.2,0-7.9,2.9-8.9,7L251.2,434c-1.4,5.8,3,11.3,8.9,11.3h19.1
		c4.5,0,8.4-3.3,9.1-7.8l2.6-17h29.3l2.6,17c0.7,4.5,4.5,7.8,9.1,7.8h19.7C357.5,445.3,361.8,439.7,360.4,434z M295.3,392.8l10.1-60
		h0.4l10.1,60H295.3z"/>
	<path class="st0" d="M491.9,303.9h-35.8c-4.4,0-8.3,3.2-9,7.6l-13.5,76.2h-0.4l-13.5-76.2c-0.8-4.4-4.6-7.6-9-7.6h-35.8
		c-5.1,0-9.2,4.1-9.2,9.2v123.1c0,5.1,4.1,9.2,9.2,9.2h16.1c5.1,0,9.2-4.1,9.2-9.2v-96.2h0.4l18.2,97.9c0.8,4.3,4.6,7.5,9,7.5H439
		c4.4,0,8.2-3.2,9-7.5l18.2-97.9h0.4v96.2c0,5.1,4.1,9.2,9.2,9.2h16.1c5.1,0,9.2-4.1,9.2-9.2V313C501.1,308,497,303.9,491.9,303.9z"
		/>
	<path class="st0" d="M398.7,285.8l42.7,0.2c21,0.1,38-16.8,38.1-37.8l0.6-95.2c0-3.3-0.9-6.5-2.7-9.2l-48.1-71.6
		c-2-2.2-4.9-3.5-7.9-3.6c-3.2-0.1-6.2,1.2-8.3,3.5l-48.7,71.2c-1.8,2.7-2.8,5.9-2.8,9.2l-0.6,95.2
		C360.8,268.6,377.8,285.7,398.7,285.8z M405.2,103.2l31.7,0.1l30.5,44.9l-93-0.4L405.2,103.2z"/>
	<path class="st0" d="M162.2,466.5h-10c-1,0-1.5,0.5-1.5,1.5v28.5c0,1,0.5,1.5,1.5,1.5h1.4c1,0,1.5-0.5,1.5-1.5v-10.1h7.1
		c5.7,0,9.8-4,9.8-10C172,470.4,167.9,466.5,162.2,466.5z M161.4,482.5H155v-12.1h6.4c3.7,0,6,2.2,6,6
		C167.5,480.1,165.2,482.5,161.4,482.5z"/>
	<path class="st0" d="M179.1,466.5h-1.5c-1,0-1.5,0.5-1.5,1.5v1.5c0,0.9,0.5,1.5,1.5,1.5h1.5c0.9,0,1.5-0.5,1.5-1.5V468
		C180.5,467,180,466.5,179.1,466.5z"/>
	<path class="st0" d="M179,475.4h-1.4c-0.9,0-1.5,0.5-1.5,1.5v19.6c0,1,0.5,1.5,1.5,1.5h1.4c1,0,1.5-0.5,1.5-1.5v-19.6
		C180.4,475.9,179.9,475.4,179,475.4z"/>
	<path class="st0" d="M197.3,474.9c-6.7,0-12.1,4.9-12.1,11.7c0,6.8,5.4,11.8,12.1,11.8s12.1-5,12.1-11.8
		C209.4,479.8,204,474.9,197.3,474.9z M197.3,494.7c-4.2,0-7.7-3.4-7.7-8.1c0-4.7,3.5-8,7.7-8c4.3,0,7.7,3.3,7.7,8
		C205,491.3,201.6,494.7,197.3,494.7z"/>
	<path class="st0" d="M223.6,494.2c-1.6-0.1-4.3-0.8-4.3-5.1v-10h4c0.9,0,1.4-0.5,1.4-1.5v-0.6c0-0.9-0.5-1.5-1.5-1.5h-3.9v-4.9
		c0-1-0.5-1.5-1.5-1.5h-1.3c-0.9,0-1.5,0.5-1.5,1.5v4.9h-1.6c-1,0-1.5,0.5-1.5,1.5v0.6c0,0.9,0.5,1.5,1.4,1.5h1.6v10.7
		c0,5.7,3.9,8.3,8.4,8.3c1.2,0,1.8-0.4,1.8-1.5v-0.9C225.2,494.6,224.8,494.3,223.6,494.2z"/>
	<path class="st0" d="M240.2,475.2c-3.4,0-5.9,2.9-6.9,5.9h-0.1c0,0,0.1-0.8,0.1-1.7v-2.6c0-1-0.5-1.5-1.5-1.5h-1.2
		c-0.9,0-1.5,0.5-1.5,1.5v19.6c0,1,0.5,1.5,1.5,1.5h1.4c1,0,1.5-0.5,1.5-1.5v-7.8c0-4.4,2.1-9.2,6.5-9.2c1,0,1.6-0.5,1.6-1.5v-1.2
		C241.6,475.7,241.2,475.2,240.2,475.2z"/>
	<path class="st0" d="M276,494.1h-13.7c-1.5,0-2.4,0.1-2.4,0.1v-0.1c0,0,1.1-1.1,2.3-2.8l14.5-21c0.4-0.6,0.6-1.2,0.6-1.9v-0.4
		c0-0.9-0.5-1.4-1.5-1.4h-19.1c-1,0-1.5,0.5-1.5,1.5v0.9c0,0.9,0.5,1.5,1.5,1.5h12.8c1.5,0,2.4-0.1,2.4-0.1v0.1c0,0-1.1,1.1-2.3,2.9
		l-14.5,20.9c-0.4,0.6-0.6,1.1-0.6,1.9v0.4c0,1,0.5,1.5,1.5,1.5H276c0.9,0,1.5-0.5,1.5-1.5v-0.9C277.5,494.6,276.9,494.1,276,494.1z
		"/>
	<path class="st0" d="M312.1,475.4h-1.5c-0.9,0-1.4,0.4-1.6,1.2l-4.4,14.5c-0.4,1.2-0.6,2.4-0.6,2.4H304c0,0-0.3-1.2-0.6-2.4
		l-4.5-14.5c-0.2-0.8-0.8-1.2-1.6-1.2h-1.4c-0.8,0-1.4,0.4-1.6,1.2l-4.5,14.5c-0.4,1.2-0.6,2.4-0.6,2.4H289c0,0-0.2-1.2-0.5-2.4
		l-4.4-14.5c-0.2-0.8-0.8-1.2-1.6-1.2h-1.5c-1.1,0-1.6,0.6-1.2,1.6l6.4,19.6c0.2,0.8,0.8,1.2,1.6,1.2h2.2c0.8,0,1.4-0.4,1.6-1.2
		l4.3-13.2c0.4-1.2,0.7-2.4,0.7-2.4h0.1c0,0,0.2,1.3,0.6,2.4l4.3,13.2c0.2,0.8,0.8,1.2,1.6,1.2h2.2c0.8,0,1.4-0.4,1.6-1.2l6.4-19.6
		C313.7,476,313.2,475.4,312.1,475.4z"/>
	<path class="st0" d="M320.4,466.5h-1.5c-1,0-1.5,0.5-1.5,1.5v1.5c0,0.9,0.5,1.5,1.5,1.5h1.5c0.9,0,1.5-0.5,1.5-1.5V468
		C321.9,467,321.4,466.5,320.4,466.5z"/>
	<path class="st0" d="M320.3,475.4H319c-0.9,0-1.5,0.5-1.5,1.5v19.6c0,1,0.5,1.5,1.5,1.5h1.4c1,0,1.5-0.5,1.5-1.5v-19.6
		C321.8,475.9,321.3,475.4,320.3,475.4z"/>
	<path class="st0" d="M337.9,474.9c-6.4,0-11.3,4.6-11.3,11.8c0,6.7,4.8,11.8,11.9,11.8c3.6,0,6.3-1.5,7.6-2.4
		c0.8-0.4,0.9-1.2,0.4-2l-0.4-0.7c-0.5-0.8-1.2-0.9-2-0.5c-1,0.8-2.9,1.8-5.4,1.8c-4,0-7.5-2.7-7.8-7.6h15c0.9,0,1.5-0.7,1.5-1.5
		C347.6,479.3,344.1,474.9,337.9,474.9z M331.2,484.2c0.6-3.8,3.3-6,6.6-6c3,0,5.3,2,5.5,6H331.2z"/>
	<path class="st0" d="M363.3,475.2c-3.4,0-5.9,2.9-6.9,5.9h-0.1c0,0,0.1-0.8,0.1-1.7v-2.6c0-1-0.5-1.5-1.5-1.5h-1.2
		c-0.9,0-1.5,0.5-1.5,1.5v19.6c0,1,0.5,1.5,1.5,1.5h1.4c1,0,1.5-0.5,1.5-1.5v-7.8c0-4.4,2.1-9.2,6.5-9.2c1,0,1.6-0.5,1.6-1.5v-1.2
		C364.7,475.7,364.3,475.2,363.3,475.2z"/>
	<path class="st0" d="M384.3,494.2h-10c-1.5,0-2.2,0.1-2.2,0.1v-0.1c0,0,1-0.9,1.9-2l10.7-13.5c0.4-0.6,0.6-0.9,0.6-1.7v-0.4
		c0-0.8-0.5-1.2-1.5-1.2h-15.6c-1,0-1.5,0.5-1.5,1.5v0.8c0,1,0.5,1.5,1.5,1.5h9.1c1.5,0,2.2-0.1,2.2-0.1v0.1c0,0-0.9,0.9-1.9,2.1
		L367,494.6c-0.4,0.6-0.6,0.9-0.6,1.7v0.4c0,0.8,0.5,1.2,1.5,1.2h16.5c1,0,1.5-0.5,1.5-1.5v-0.8
		C385.8,494.7,385.3,494.2,384.3,494.2z"/>
	<path class="st0" d="M408.4,493c-0.5-0.8-1.2-0.9-2-0.4c-1.1,0.8-3,2-5.7,2c-4.6,0-7.9-3.5-7.9-8.1c0-4.6,3.3-8,7.8-8
		c2.4,0,4.1,1,5,1.7c0.8,0.5,1.5,0.4,2-0.4l0.4-0.7c0.5-0.8,0.5-1.5-0.3-2c-1.2-0.9-3.6-2.4-7.4-2.4c-7,0-12,5.1-12,11.8
		c0,6.8,4.9,11.8,12,11.8c4,0,6.8-1.7,8-2.8c0.7-0.5,0.8-1.2,0.4-2L408.4,493z"/>
	<path class="st0" d="M426.1,474.9c-4.5,0-7.4,3-8.4,5.2h-0.1c0,0,0.1-0.8,0.1-1.9V468c0-1-0.5-1.5-1.4-1.5H415
		c-1,0-1.5,0.5-1.5,1.5v28.5c0,1,0.5,1.5,1.5,1.5h1.4c0.9,0,1.4-0.5,1.4-1.5v-9.2c0-4.8,3.2-8.4,7.5-8.4c3.6,0,4.3,2.5,4.3,5.6v12
		c0,1,0.5,1.5,1.5,1.5h1.4c0.9,0,1.5-0.5,1.5-1.5v-12.9C433.9,477.7,431.4,474.9,426.1,474.9z"/>
	<path class="st0" d="M450.4,474.9c-6.7,0-12.1,4.9-12.1,11.7c0,6.8,5.4,11.8,12.1,11.8s12.1-5,12.1-11.8
		C462.6,479.8,457.1,474.9,450.4,474.9z M450.4,494.7c-4.2,0-7.7-3.4-7.7-8.1c0-4.7,3.5-8,7.7-8c4.3,0,7.7,3.3,7.7,8
		C458.2,491.3,454.7,494.7,450.4,494.7z"/>
	<path class="st0" d="M497.5,475.4h-1.5c-0.9,0-1.4,0.4-1.6,1.2l-4.4,14.5c-0.4,1.2-0.6,2.4-0.6,2.4h-0.1c0,0-0.3-1.2-0.6-2.4
		l-4.5-14.5c-0.2-0.8-0.8-1.2-1.6-1.2h-1.4c-0.8,0-1.4,0.4-1.6,1.2l-4.5,14.5c-0.4,1.2-0.6,2.4-0.6,2.4h-0.1c0,0-0.2-1.2-0.5-2.4
		l-4.4-14.5c-0.2-0.8-0.8-1.2-1.6-1.2h-1.5c-1.1,0-1.6,0.6-1.2,1.6l6.4,19.6c0.2,0.8,0.8,1.2,1.6,1.2h2.2c0.8,0,1.4-0.4,1.6-1.2
		l4.3-13.2c0.4-1.2,0.7-2.4,0.7-2.4h0.1c0,0,0.2,1.3,0.6,2.4l4.3,13.2c0.2,0.8,0.8,1.2,1.6,1.2h2.2c0.8,0,1.4-0.4,1.6-1.2l6.4-19.6
		C499.1,476,498.6,475.4,497.5,475.4z"/>
	<path class="st0" d="M506.1,481.3c0-1.9,1.6-2.8,3.8-2.8c2.1,0,3.6,0.8,4.6,1.3c0.8,0.4,1.5,0.3,2-0.5l0.4-0.7
		c0.4-0.8,0.3-1.6-0.5-2c-1.1-0.7-3.1-1.7-6.2-1.7c-4.4,0-8.1,2.2-8.1,6.5c0,7.6,11.6,6.1,11.6,10.5c0,1.9-1.6,3-3.8,3
		c-2.6,0-4.5-1.2-5.5-1.8c-0.9-0.5-1.5-0.4-2,0.3l-0.4,0.6c-0.5,0.8-0.4,1.5,0.3,2c1.2,0.9,3.8,2.4,7.6,2.4c4.8,0,8.1-2.8,8.1-6.6
		C517.7,484.2,506.1,485.8,506.1,481.3z"/>
	<path class="st0" d="M533.5,485.4L533.5,485.4l6.2-8.2c0.7-1,0.3-1.8-0.9-1.8h-1.6c-0.8,0-1.3,0.3-1.7,0.9l-5.5,7.3h-3.2V468
		c0-1-0.5-1.5-1.4-1.5h-1.4c-1,0-1.5,0.5-1.5,1.5v28.5c0,1,0.5,1.5,1.5,1.5h1.4c0.9,0,1.4-0.5,1.4-1.5v-9.1h3.3l6.1,9.5
		c0.4,0.7,0.9,1,1.7,1h1.8c1.2,0,1.6-0.8,1-1.8L533.5,485.4z"/>
	<path class="st0" d="M548,466.5h-1.5c-1,0-1.5,0.5-1.5,1.5v1.5c0,0.9,0.5,1.5,1.5,1.5h1.5c0.9,0,1.5-0.5,1.5-1.5V468
		C549.5,467,548.9,466.5,548,466.5z"/>
	<path class="st0" d="M547.9,475.4h-1.4c-0.9,0-1.5,0.5-1.5,1.5v19.6c0,1,0.5,1.5,1.5,1.5h1.4c1,0,1.5-0.5,1.5-1.5v-19.6
		C549.4,475.9,548.9,475.4,547.9,475.4z"/>
</g>
</svg>
