<?xml version="1.0" encoding="utf-8"?>
<!-- Generator: Adobe Illustrator 26.3.1, SVG Export Plug-In . SVG Version: 6.00 Build 0)  -->
<svg version="1.1" id="Layer_1" xmlns="http://www.w3.org/2000/svg" xmlns:xlink="http://www.w3.org/1999/xlink" x="0px" y="0px"
	 viewBox="0 0 566.9 566.9" style="enable-background:new 0 0 566.9 566.9;" xml:space="preserve">
<style type="text/css">
	.st0{fill:#9DA0A1;}
	.st1{fill:#7A7C81;}
</style>
<g>
	<path class="st0" d="M265.7,211.3L265.7,211.3l12.7,0c3.7,0,6.5,2.2,6.5,3.6h1.1c0,0-0.8-5.3-7.7-8.7c-6.7-3.3-10.1-3.4-10.1-3.4
		s6.2-1.5,10.1-3.4c6.9-3.3,7.7-8.7,7.7-8.7h-1.1c0,1.4-2.8,3.6-6.5,3.6c-3.7,0-26.5,3.3-26.5,30.8
		C251.9,217.5,258.1,211.3,265.7,211.3"/>
	<path class="st0" d="M292.8,251.6c-3.4-3.4-7.8-6-13.2-7.6c0,0-16.8-5.3-18-5.7c-5.6-1.7-9.7-7-9.7-13.2c0,27.1,33,21.8,34.1,49.3
		c0,0.5,0.1,0.9,0.1,1.4c0,0,1.4,15.3-13.6,21.7c-19.9,8.5-38.8-9.7-38.8-9.7l10.9,10.8c6.2,6.7,15,10.9,24.8,10.9
		c18.6,0,33.7-15.1,33.7-33.7C303,266.4,299,257.8,292.8,251.6"/>
	<path class="st0" d="M474.3,299c0,5.6,4.5,10.1,10.1,10.1h0.5v-50.8h-10.5V299z"/>
	
		<rect x="474.2" y="237.7" transform="matrix(0.7068 -0.7074 0.7074 0.7068 -31.2532 410.4087)" class="st0" width="10.5" height="10.5"/>
	<path class="st0" d="M371.7,285.4l-0.1,0.2c-3.8,7.8-11.8,12.9-20.4,12.9c-5.4,0-10.5-1.9-14.6-5.4l39.2-39l0.3-0.3l-0.3-0.3
		c-6.3-6.9-15.2-10.9-24.6-10.9c-18.3,0-33.2,14.9-33.2,33.2c0,18.3,14.9,33.2,33.2,33.2c14.5,0,27.3-9.3,31.7-23.2l0.2-0.6l-11,0.1
		H371.7z M351.2,253.2c3.1,0,6.1,0.6,8.9,1.8l-29.7,29.7c-1.2-2.8-1.8-5.8-1.8-8.9C328.5,263.4,338.6,253.2,351.2,253.2"/>
	<path class="st0" d="M534,242.7h-18.6v0.4c0,5.6,4.5,10.1,10.1,10.1l8.7,0.2c4.1,0,7.5,3.4,7.5,7.5v5.8c-3.9-2.9-9-4.3-15.4-4.3
		c-12.9,0-23.3,10.5-23.3,23.3c0,12.9,10.5,23.3,23.3,23.3c6.1,0,11.4-1.6,15.4-4.8v4.8h10.5v-48.3C552.1,250.8,544,242.7,534,242.7
		 M527.7,298.9c-7.4,0-13.5-6.1-13.5-13.5c0-7.4,6.1-13.5,13.5-13.5c7.5,0,13.5,6.1,13.5,13.5C541.2,292.9,535.1,298.9,527.7,298.9"
		/>
	<path class="st0" d="M425.1,242.7c-7.3,0-14.1,3.5-18.5,9.3v-9.3H396V299c0,5.6,4.5,10.1,10.1,10.1h0.4l0-43.6
		c1.3-7.5,7.8-13,15.4-13c9.4,0,15.7,6.3,15.7,15.7l0,30.8c0,5.6,4.5,10.1,10.1,10.1h0.4v-43.3C448.1,252.2,438.6,242.7,425.1,242.7
		"/>
	<path class="st1" d="M257.2,254.8l17.7,5.3c6.4,2,10.5,7.5,11,14.3c-1.1-27.5-34.1-22.2-34.1-49.3c0-27.4,22.8-30.8,26.5-30.8
		c-3.7,0,1-0.1-12.7-0.1c-17,0-30.8,13.8-30.8,30.8C234.9,239.2,244.3,251.1,257.2,254.8"/>
	<path class="st1" d="M286,275.8c0,9.2-7.5,16.7-16.7,16.7c-2.7,0-5.2-0.6-7.4-1.7c-1.9-0.9-3.9-2.3-5.9-4.3
		c-8.9-8.9-21.4-9-29.8-0.5l0.7,0.7c2.2-2.2,4.3-1.4,6.8,1.1c0,0,19,18.2,38.8,9.7C287.4,291.1,286,275.8,286,275.8"/>
	<path class="st1" d="M127.3,285.4c-3.6,7.6-11.4,12.5-19.9,12.5c-5,0-9.8-1.7-13.7-4.8l39.4-39.2l-0.7-0.8
		c-6.4-7-15.5-11.1-25-11.1c-18.7,0-33.8,15.2-33.8,33.9c0,18.7,15.2,33.8,33.8,33.8c14.8,0,27.8-9.5,32.3-23.6l0.4-1.4l-12.6,0.1
		L127.3,285.4z M107.4,253.8c2.7,0,5.3,0.5,7.8,1.4l-28.4,28.4c-1-2.5-1.4-5.1-1.4-7.8C85.4,263.7,95.2,253.8,107.4,253.8"/>
	<path class="st1" d="M41.1,270.3c0,0-6.5-1.9-10.1-3.1c-4.5-1.4-5.6-5.1-5.1-7.8c0.2-1.4,1.5-5.8,7.8-5.8l4.1,0.1
		c5.9,0,10.7-4.8,10.7-10.7v-1.1H33.8c-11.6,0-18.1,7.8-19.4,15.5c-1.5,9.3,3.9,18,12.9,20.8c3.9,1.2,10.5,3.2,10.5,3.2
		c4.5,1.3,6,5.9,5.5,9.5c-0.3,2.2-1.8,7.3-9,7.3l-8.1-0.1c-5.9,0-10.7,4.8-10.7,10.7v1.1h18.8c12.5,0,19.4-8.7,20.6-17.3
		C56.2,283.9,51.8,273.4,41.1,270.3"/>
	<path class="st1" d="M187.3,242c-6.9,0-13.4,3-17.9,8.1V242h-11.8v57c0,5.9,4.8,10.7,10.7,10.7h1.1l0-44.1
		c1.2-7.2,7.5-12.4,14.8-12.4c7.5,0,15,4.6,15,15V299c0,5.9,4.8,10.7,10.7,10.7h1.1v-44C211,251.8,201.2,242,187.3,242"/>
	<rect x="14.2" y="327.6" class="st1" width="538.6" height="1.7"/>
	<rect x="16.4" y="343.7" class="st1" width="2.7" height="31.9"/>
	<path class="st1" d="M59.6,352.6h2.7v22.9h-2.7v-3.2c-0.4,0.4-0.8,0.8-1.2,1.3c-0.4,0.4-1,0.9-1.5,1.2c-0.6,0.4-1.2,0.7-2,0.9
		c-0.8,0.3-1.7,0.4-2.7,0.4c-1.5,0-2.8-0.2-3.9-0.6c-1-0.4-1.9-1-2.5-1.8c-0.6-0.8-1.1-1.7-1.4-2.7c-0.3-1-0.4-2.1-0.4-3.3v-15.1
		h2.7v15.1c0,2,0.5,3.5,1.4,4.5c0.9,1.1,2.4,1.6,4.5,1.6c1.1,0,2.1-0.2,2.9-0.6c0.9-0.4,1.6-1,2.2-1.8c0.6-0.8,1-1.7,1.4-2.7
		c0.3-1.1,0.5-2.2,0.5-3.5V352.6z"/>
	<polygon class="st1" points="94.9,365.7 87.8,375.6 84.6,375.6 93.4,363.7 85.3,352.6 88.5,352.6 94.9,361.8 101.4,352.6 
		104.8,352.6 96.5,363.7 105.1,375.6 101.9,375.6 	"/>
	<path class="st1" d="M142.9,352.6h2.7v22.9h-2.7v-3.2c-0.3,0.4-0.7,0.8-1.2,1.3c-0.4,0.4-1,0.9-1.5,1.2c-0.6,0.4-1.3,0.7-2,0.9
		c-0.8,0.3-1.6,0.4-2.7,0.4c-1.5,0-2.8-0.2-3.8-0.6c-1-0.4-1.9-1-2.5-1.8c-0.6-0.8-1.1-1.7-1.4-2.7c-0.3-1-0.4-2.1-0.4-3.3v-15.1
		h2.7v15.1c0,2,0.5,3.5,1.4,4.5c0.9,1.1,2.4,1.6,4.5,1.6c1.1,0,2.1-0.2,3-0.6c0.9-0.4,1.6-1,2.2-1.8c0.6-0.8,1-1.7,1.4-2.7
		c0.3-1.1,0.5-2.2,0.5-3.5V352.6z"/>
	<path class="st1" d="M173,375.6h-2.7v-22.9h2.7v4.3h0.1c0.7-1.8,1.7-3.1,2.8-3.8c1.2-0.7,2.7-1.1,4.6-1.1v2.9
		c-1.5,0-2.7,0.2-3.7,0.7c-1,0.5-1.8,1.2-2.3,2c-0.6,0.9-1,1.9-1.2,3c-0.2,1.2-0.3,2.4-0.3,3.7V375.6z"/>
	<path class="st1" d="M203.5,343.7h2.9v3.9h-2.9V343.7z M203.6,352.6h2.7v22.9h-2.7V352.6z"/>
	<path class="st1" d="M240.4,376.2c-1.5,0-2.9-0.3-4.1-0.8c-1.3-0.5-2.4-1.2-3.4-2.3c-1-1-1.7-2.3-2.3-3.8c-0.6-1.5-0.8-3.3-0.8-5.3
		c0-1.7,0.2-3.3,0.7-4.7c0.4-1.5,1.1-2.7,2-3.8c0.9-1.1,2-2,3.3-2.6c1.3-0.6,2.9-1,4.7-1c1.8,0,3.4,0.3,4.7,1
		c1.3,0.6,2.4,1.5,3.3,2.6c0.9,1.1,1.5,2.4,2,3.8c0.4,1.5,0.6,3.1,0.6,4.7c0,1.8-0.2,3.5-0.8,5c-0.5,1.5-1.2,2.7-2.2,3.8
		c-0.9,1.1-2.1,1.9-3.4,2.5C243.5,375.9,242,376.2,240.4,376.2 M248.2,364.1c0-1.4-0.1-2.6-0.4-3.8c-0.3-1.2-0.8-2.2-1.4-3.1
		c-0.6-0.9-1.4-1.6-2.4-2.1c-1-0.5-2.2-0.8-3.6-0.8c-1.4,0-2.6,0.3-3.6,0.8c-1,0.5-1.8,1.3-2.4,2.2c-0.6,0.9-1.1,1.9-1.4,3.1
		c-0.3,1.2-0.4,2.4-0.4,3.6c0,1.4,0.2,2.7,0.5,3.9c0.3,1.2,0.8,2.2,1.5,3.1c0.6,0.9,1.5,1.5,2.4,2c1,0.5,2.1,0.7,3.4,0.7
		c1.4,0,2.6-0.3,3.6-0.8c1-0.5,1.8-1.3,2.4-2.2c0.6-0.9,1.1-1.9,1.4-3.1C248.1,366.6,248.2,365.4,248.2,364.1"/>
	<path class="st1" d="M289.7,352.6h2.7v22.9h-2.7v-3.2c-0.4,0.4-0.7,0.8-1.2,1.3c-0.4,0.4-0.9,0.9-1.5,1.2c-0.6,0.4-1.2,0.7-2,0.9
		c-0.8,0.3-1.7,0.4-2.7,0.4c-1.5,0-2.8-0.2-3.8-0.6c-1-0.4-1.9-1-2.5-1.8c-0.6-0.8-1.1-1.7-1.4-2.7c-0.3-1-0.4-2.1-0.4-3.3v-15.1
		h2.7v15.1c0,2,0.5,3.5,1.4,4.5c0.9,1.1,2.4,1.6,4.5,1.6c1.1,0,2.1-0.2,3-0.6c0.9-0.4,1.6-1,2.2-1.8c0.6-0.8,1-1.7,1.4-2.7
		c0.3-1.1,0.5-2.2,0.5-3.5V352.6z"/>
	<path class="st1" d="M318.6,368.4c0.4,2,1.2,3.4,2.2,4.2c1.1,0.8,2.6,1.2,4.6,1.2c1,0,1.8-0.1,2.5-0.4c0.7-0.2,1.3-0.6,1.7-1
		c0.5-0.4,0.8-0.9,1-1.4c0.2-0.5,0.4-1,0.4-1.6c0-1.1-0.4-2-1.1-2.5c-0.7-0.5-1.6-1-2.7-1.3c-1.1-0.3-2.3-0.6-3.5-0.8
		c-1.3-0.2-2.5-0.6-3.5-1c-1.1-0.4-2-1.1-2.7-1.9c-0.7-0.8-1.1-2-1.1-3.5c0-1.9,0.7-3.5,2.1-4.7c1.4-1.2,3.4-1.8,6-1.8
		c2.5,0,4.5,0.6,6,1.7c1.6,1.1,2.5,3,2.8,5.6h-2.7c-0.2-1.8-0.9-3-2-3.7c-1.1-0.7-2.5-1.1-4.2-1.1c-1.7,0-3,0.4-3.9,1.1
		c-0.9,0.7-1.3,1.7-1.3,2.9c0,1,0.4,1.8,1.1,2.4c0.7,0.5,1.6,1,2.7,1.3c1.1,0.3,2.3,0.6,3.5,0.9c1.3,0.3,2.4,0.6,3.5,1.1
		c1.1,0.5,2,1.1,2.7,2c0.7,0.8,1.1,2,1.1,3.5c0,1.1-0.2,2.1-0.7,2.9c-0.5,0.8-1.1,1.5-1.9,2.1c-0.8,0.6-1.8,1-3,1.3
		c-1.1,0.3-2.4,0.4-3.7,0.4c-1.4,0-2.6-0.2-3.6-0.6c-1.1-0.4-1.9-1-2.7-1.7c-0.7-0.7-1.3-1.5-1.7-2.5c-0.4-0.9-0.7-2-0.7-3.1H318.6z
		"/>
	<rect x="390.8" y="343.7" class="st1" width="2.7" height="31.9"/>
	<path class="st1" d="M418.8,343.7h2.9v3.9h-2.9V343.7z M418.9,352.6h2.7v22.9h-2.7V352.6z"/>
	<path class="st1" d="M449.3,375.6h-2.6v-22.9h2.6v3.2c1.1-1.1,2.2-2,3.3-2.8c1.1-0.7,2.5-1.1,4.1-1.1c1.4,0,2.7,0.2,3.9,0.7
		c1.2,0.5,2.2,1.3,3,2.5c0.6,0.8,0.9,1.7,1,2.6c0.1,0.9,0.2,1.8,0.2,2.7v15h-2.7v-15c0-2.1-0.5-3.6-1.4-4.6c-0.9-1-2.4-1.6-4.6-1.6
		c-0.8,0-1.6,0.1-2.3,0.4c-0.7,0.3-1.3,0.6-1.8,1c-0.5,0.4-1,0.9-1.4,1.4c-0.4,0.5-0.7,1.1-0.9,1.7c-0.3,0.7-0.4,1.4-0.5,2.1
		c-0.1,0.7-0.1,1.4-0.1,2.2V375.6z"/>
	<path class="st1" d="M491.1,364.7c0,1.2,0.2,2.4,0.5,3.5c0.3,1.1,0.8,2.1,1.4,2.9c0.6,0.8,1.4,1.5,2.4,2c1,0.5,2.1,0.7,3.4,0.7
		c1.7,0,3.2-0.5,4.5-1.4c1.2-0.9,2.1-2.2,2.5-3.9h3c-0.3,1.1-0.7,2.1-1.3,3c-0.5,0.9-1.2,1.7-2,2.4c-0.8,0.7-1.8,1.2-2.8,1.6
		c-1.1,0.4-2.3,0.6-3.8,0.6c-1.8,0-3.4-0.3-4.7-0.9c-1.3-0.6-2.4-1.5-3.3-2.5c-0.9-1.1-1.5-2.4-1.9-3.8c-0.4-1.5-0.6-3-0.6-4.7
		c0-1.7,0.2-3.3,0.7-4.7c0.5-1.5,1.2-2.8,2.1-3.9c0.9-1.1,2-2,3.3-2.6c1.3-0.6,2.8-1,4.4-1c3.2,0,5.6,1.1,7.4,3.3
		c1.8,2.2,2.7,5.3,2.7,9.5H491.1z M506.1,362.5c0-1.1-0.2-2.2-0.5-3.2c-0.3-1-0.8-1.8-1.4-2.6c-0.6-0.7-1.4-1.3-2.3-1.7
		c-0.9-0.4-2-0.6-3.1-0.6c-1.2,0-2.2,0.2-3.1,0.7c-0.9,0.4-1.7,1-2.3,1.8c-0.6,0.7-1.1,1.6-1.5,2.6c-0.4,1-0.6,2-0.8,3.1H506.1z"/>
	<path class="st1" d="M535,375.6h-2.7v-22.9h2.7v3.2c1.1-1.1,2.2-2,3.3-2.8c1.1-0.7,2.5-1.1,4.1-1.1c1.4,0,2.7,0.2,4,0.7
		c1.2,0.5,2.2,1.3,3.1,2.5c0.6,0.8,0.9,1.7,1,2.6c0.1,0.9,0.2,1.8,0.2,2.7v15h-2.7v-15c0-2.1-0.5-3.6-1.4-4.6
		c-0.9-1-2.4-1.6-4.6-1.6c-0.8,0-1.6,0.1-2.3,0.4c-0.7,0.3-1.3,0.6-1.8,1c-0.5,0.4-1,0.9-1.4,1.4c-0.4,0.5-0.7,1.1-0.9,1.7
		c-0.3,0.7-0.4,1.4-0.5,2.1c-0.1,0.7-0.1,1.4-0.1,2.2V375.6z"/>
</g>
</svg>
