<?xml version="1.0" encoding="utf-8"?>
<!-- Generator: Adobe Illustrator 26.3.1, SVG Export Plug-In . SVG Version: 6.00 Build 0)  -->
<svg version="1.1" id="Layer_1" xmlns="http://www.w3.org/2000/svg" xmlns:xlink="http://www.w3.org/1999/xlink" x="0px" y="0px"
	 viewBox="0 0 566.9 566.9" style="enable-background:new 0 0 566.9 566.9;" xml:space="preserve">
<style type="text/css">
	.st0{fill:#28316F;}
</style>
<g>
	<path class="st0" d="M42.7,438.2c-7-2.7-8.7-3.9-8.7-5.8c0-2.4,2.4-4.1,5.2-4.1c3,0,6.3,2.1,7,5.6c3.4-0.5,5.4-2.7,5.4-4.8
		c0-3.5-3.8-6.8-10.6-6.8c-8.7,0-15.5,6.3-15.5,13.1c0,5.1,3.1,8.2,10.2,10.6c7.1,2.4,9,3.9,9,6c0,2.5-2.1,4.2-5.9,4.2
		c-5.1,0-9.6-3.7-10.8-8.8c-3.6,0.8-5.6,2.9-5.6,5.8c0,4.8,5.6,9,14.2,9c9.3,0,16.3-5.9,16.3-13.2C52.9,444.2,50.3,441.1,42.7,438.2
		z"/>
	<path class="st0" d="M75.4,454.9c-3,0-4.7-1.8-4.7-7.5c0-4.5,0.5-13.4,0.7-16.5c2.8-0.2,5.8-0.2,8.7-0.2c1.3-1.5,1.9-3.9,2.1-5.8
		l-0.4-0.2c-3.3,0-7.6,0.2-9.8,0.6l0.1-1.5c2.2-3.5,3.4-6.4,3.4-9c0-3-3.9-5.7-6.9-5.7c-2.3,0-3.9,3.5-4.5,11.9
		c-0.7,2.7-2.8,4.2-6,4.7c-1.2,1.1-2.1,3-2.1,5.7l6.9-0.5c-0.5,5.4-1.7,12.9-1.7,18.5c0,8,5,12.3,11,12.3c6.5,0,11.4-4.2,11.4-7.7
		c0-1.1-0.2-1.8-0.8-2.5C80.5,453.5,77.9,454.9,75.4,454.9z"/>
	<path class="st0" d="M127.6,456.7c0-0.8-0.2-1.8-0.8-2.3c-1,0.4-1.9,0.8-3.4,0.8c-1.8,0-2.9-2.1-3-8.6c-0.1-4.2,0.4-9.6,1-12.3
		c2.1-4.1,2.7-6.8,2.7-8.8c0-2.1-3-4.5-5.6-4.5c-2.3,0-4.2,2.4-5.4,8.7h-0.4c-1.7-4.6-5.2-6.9-9.2-6.9c-8.8,0-17.1,9.8-17.1,22
		c0,10.5,6.3,17.1,13.5,17.1c5.8,0,9.7-4.1,12-10.8h0.2c0.5,7.4,3.4,10.8,7.9,10.8C124.2,461.9,127.6,459,127.6,456.7z M111.8,440.8
		c-1.9,8.8-5.3,13.3-9.1,13.3c-3.5,0-6-2.9-6-10.3c0-8.6,3.8-13.4,8.2-13.4c2.5,0,5.6,1.6,7.3,4.8L111.8,440.8z"/>
	<path class="st0" d="M140,422.8c-3.8,0-5.2,3.5-5.4,12c-0.2,7.3-0.6,16.9-0.6,30.2c0,9.1-2.5,13.4-6.7,13.4c-2.2,0-4.1-1.2-5.2-2.9
		c-1.3,0.4-2.1,1.3-2.1,2.8c0,3.4,3.4,6.3,9.1,6.3c7.7,0,14.4-6.2,14.4-20.9c0-7.9-0.2-20.1,0.5-25.9c1.2-5,1.8-8.3,1.8-10.8
		C145.8,424.4,142.9,422.8,140,422.8z"/>
	<path class="st0" d="M142.5,405.7c-3.6,0-5.2,3-5.2,5.8c0,3,2.1,5.2,4.7,5.2c3.5,0,5.3-3,5.3-5.9
		C147.4,407.9,145.3,405.7,142.5,405.7z"/>
	<path class="st0" d="M191.8,455.2c-1.7,0-2.7-1.1-2.7-4.7c0-5.1,0.6-10.6,0.6-15.5c0-7.3-4-12.2-9.6-12.2c-5.7,0-10.5,4-13.8,12.5
		h-0.2c1.1-8.7-2.4-12.5-7.4-12.5c-4.7,0-8.8,3.5-8.8,5.9c0,0.7,0.5,1.6,1.1,2.1c1.3-0.5,2.7-0.8,4-0.8c1.8,0,2.5,2.2,2.5,7.5
		c0,6.4-1.2,12.1-1.2,16c0,5.1,2.5,8.5,5.2,8.5c3.1,0,6.3-3.3,6.3-5.4c0-3.3-1.2-6-1.2-9.3c0-1.6,0.2-3.5,0.4-5
		c1.7-5.2,5.9-10.4,9.3-10.4c2.3,0,3.6,1.8,3.6,6.7c0,4.7-0.6,10.3-0.6,13.1c0,6.9,3.7,10.4,8.7,10.4c4.5,0,8-2.9,8-5.2
		c0-0.8-0.2-1.8-0.8-2.3C194.3,454.7,193.3,455.2,191.8,455.2z"/>
	<path class="st0" d="M216.6,455.2c-1.9,0-2.9-1.2-2.9-5.1c0-5.3,1.2-11.6,1.2-17.8c0-6.5-3.4-9.6-8.1-9.6c-5.2,0-10,3.8-10,5.9
		c0,0.7,0.5,1.6,1.1,2.1c1.3-0.5,2.7-0.8,4-0.8c1.9,0,3.3,1.3,3.3,5.8c0,5.8-1.1,11-1.1,15.7c0,6.7,3.3,10.4,8.8,10.4
		c4.2,0,8-2.9,8-5.2c0-0.8-0.2-1.8-0.8-2.3C219.1,454.7,218,455.2,216.6,455.2z"/>
	<path class="st0" d="M210.5,416.8c3.5,0,5.3-3,5.3-5.9c0-2.9-2.1-5.1-4.8-5.1c-3.6,0-5.2,3-5.2,5.8
		C205.8,414.6,207.8,416.8,210.5,416.8z"/>
	<path class="st0" d="M261.7,455.2c-1.8,0-2.9-2.1-3-8.6c-0.1-4.2,0.4-9.6,1-12.3c2.1-4.1,2.7-6.8,2.7-8.8c0-2.1-3-4.5-5.6-4.5
		c-2.3,0-4.2,2.4-5.4,8.7h-0.4c-1.7-4.6-5.2-6.9-9.2-6.9c-8.8,0-17.1,9.8-17.1,22c0,10.5,6.3,17.1,13.5,17.1c5.8,0,9.7-4.1,12-10.8
		h0.2c0.5,7.4,3.4,10.8,7.9,10.8c4.2,0,7.6-2.9,7.6-5.2c0-0.8-0.2-1.8-0.8-2.3C264.1,454.7,263.1,455.2,261.7,455.2z M250.1,440.8
		c-1.9,8.8-5.3,13.3-9.1,13.3c-3.5,0-6-2.9-6-10.3c0-8.6,3.7-13.4,8.2-13.4c2.5,0,5.6,1.6,7.3,4.8L250.1,440.8z"/>
	<path class="st0" d="M290.1,452.8c-1.1,0.8-2.7,1.8-4.7,1.8c-2.7,0-4.2-2.2-4.2-12.2c0-8.6,0.5-16.5,1.5-20.3
		c2.8-5.7,4.6-10.9,4.6-12.9c0-2.9-4.1-6.3-7.4-6.3c-2.3,0-3.3,1.5-4.5,6.2c-1.9,7.4-3.8,20.6-3.8,34.8c0,14,4.6,18,11.3,18
		c4.8,0,8.6-3.5,8.6-6.7C291.4,454.1,290.8,453.2,290.1,452.8z"/>
	<path class="st0" d="M331,455.2c-1.8,0-2.9-2.1-3-8.6c-0.1-4.2,0.4-9.6,1-12.3c2.1-4.1,2.7-6.8,2.7-8.8c0-2.1-3-4.5-5.6-4.5
		c-2.3,0-4.2,2.4-5.4,8.7h-0.4c-1.7-4.6-5.2-6.9-9.2-6.9c-8.8,0-17.1,9.8-17.1,22c0,10.5,6.3,17.1,13.5,17.1c5.8,0,9.7-4.1,12-10.8
		h0.2c0.5,7.4,3.4,10.8,7.9,10.8c4.2,0,7.6-2.9,7.6-5.2c0-0.8-0.2-1.8-0.8-2.3C333.4,454.7,332.5,455.2,331,455.2z M319.4,440.8
		c-1.9,8.8-5.3,13.3-9.1,13.3c-3.5,0-6-2.9-6-10.3c0-8.6,3.8-13.4,8.2-13.4c2.5,0,5.6,1.6,7.3,4.8L319.4,440.8z"/>
	<path class="st0" d="M365.8,421.8c-1.2,0-2.1,0.1-2.5,0.4c0.7,1.9,1.2,5.7,1.2,9.9c0,11.4-4.5,22.1-7.4,22.1c-1.9,0-2.7-2.5-3.9-16
		c-1.1-12.8-4.2-15.5-9.3-15.5c-4.6,0-8.7,3.4-8.7,5.6c0,0.7,0.5,1.6,1.1,2.2c1-0.5,1.9-0.7,2.8-0.7c2.2,0,3.5,1.8,4.8,13.2
		c1.6,14.2,4.5,18.8,10.8,18.8c3.6,0,8.1-2.7,12.2-8.2c5.3-8,8.2-17.8,8.2-25.4C375.2,425.5,371,421.8,365.8,421.8z"/>
	<path class="st0" d="M412.7,434.1c0-7-5.4-11.6-12.8-11.6c-11.4,0-19.7,10-19.7,20.9c0,11.7,7.6,18.5,18.3,18.5c8.1,0,14-5,14-8.3
		c0-1.2-0.5-1.9-1.3-2.4c-2.2,1.8-5.6,3.3-9.8,3.3c-6.8,0-10.4-3.4-10.6-10.9c2.4,1.5,6,2.5,9.3,2.5
		C407.5,446,412.7,441,412.7,434.1z M390.8,439.9c0.6-7.1,4.1-11.1,8.1-11.1c2.7,0,5,2.1,5,5.4c0,3.9-2.3,6.5-7,6.5
		C394.3,440.7,392.5,440.3,390.8,439.9z"/>
	<path class="st0" d="M458.2,455.2c-1.7,0-2.7-1.1-2.7-4.7c0-5.1,0.6-10.6,0.6-15.5c0-7.3-4-12.2-9.6-12.2c-5.7,0-10.5,4-13.8,12.5
		h-0.2c1.1-8.7-2.4-12.5-7.4-12.5c-4.7,0-8.8,3.5-8.8,5.9c0,0.7,0.5,1.6,1.1,2.1c1.3-0.5,2.7-0.8,4-0.8c1.8,0,2.5,2.2,2.5,7.5
		c0,6.4-1.2,12.1-1.2,16c0,5.1,2.5,8.5,5.2,8.5c3.1,0,6.3-3.3,6.3-5.4c0-3.3-1.2-6-1.2-9.3c0-1.6,0.2-3.5,0.4-5
		c1.7-5.2,5.9-10.4,9.3-10.4c2.3,0,3.6,1.8,3.6,6.7c0,4.7-0.6,10.3-0.6,13.1c0,6.9,3.7,10.4,8.7,10.4c4.5,0,8-2.9,8-5.2
		c0-0.8-0.2-1.8-0.8-2.3C460.7,454.7,459.7,455.2,458.2,455.2z"/>
	<path class="st0" d="M503.3,455.2c-1.8,0-3-2.1-3-8.6c0-9.4,1.5-21,2.2-24.9c2.4-6.8,3.4-10.5,3.4-12.6c0-2.9-4.1-6.3-7.3-6.3
		c-2.4,0-3.5,1.1-4.4,5.8c-1,5.2-1.3,11.5-1.3,21h-0.2c-2.2-4.6-5.3-6.9-9.7-6.9c-8.5,0-16.7,9.8-16.7,22c0,10.4,5.9,17.1,13.4,17.1
		c5.9,0,9.8-4.1,12.1-10.8h0.2c0.5,7.4,3.4,10.8,7.9,10.8c4.2,0,7.6-2.9,7.6-5.2c0-0.8-0.2-1.8-0.8-2.3
		C505.7,454.7,504.7,455.2,503.3,455.2z M491.8,440.7c-2.1,9.2-5.4,13.4-9.2,13.4c-3.5,0-6-2.9-6-10.3c0-8.6,3.7-13.4,8.2-13.4
		c2.7,0,5.4,1.8,7.3,5.3L491.8,440.7z"/>
	<path class="st0" d="M548.5,455.2c-1.8,0-2.9-2.1-3-8.6c-0.1-4.2,0.4-9.6,1-12.3c2.1-4.1,2.7-6.8,2.7-8.8c0-2.1-3-4.5-5.6-4.5
		c-2.3,0-4.2,2.4-5.4,8.7h-0.4c-1.7-4.6-5.2-6.9-9.2-6.9c-8.8,0-17.1,9.8-17.1,22c0,10.5,6.3,17.1,13.5,17.1c5.8,0,9.7-4.1,12-10.8
		h0.2c0.5,7.4,3.4,10.8,7.9,10.8c4.2,0,7.6-2.9,7.6-5.2c0-0.8-0.2-1.8-0.8-2.3C550.9,454.7,550,455.2,548.5,455.2z M536.9,440.8
		c-1.9,8.8-5.3,13.3-9.1,13.3c-3.5,0-6-2.9-6-10.3c0-8.6,3.8-13.4,8.2-13.4c2.5,0,5.6,1.6,7.3,4.8L536.9,440.8z"/>
	<rect x="22.4" y="380.9" class="st0" width="530.4" height="4.6"/>
	<path class="st0" d="M513.9,205.9v-10.3c-25.7,0-46.5,20.8-46.5,46.5v10.3C493.1,252.4,513.9,231.6,513.9,205.9z"/>
	<path class="st0" d="M513.9,157.8V128c0,14.2,11.5,25.6,25.6,25.6h8.9V102c0-5-3.9-9.1-8.6-9.8c4.9-0.7,8.6-4.8,8.6-9.9h-19.8
		c-33.8,0-61.2,27.4-61.2,61.2v34.1v18.5h8.2C496.8,196.1,513.9,179,513.9,157.8z"/>
	<path class="st0" d="M461.9,252.4v-10.3c0-25.7-20.8-46.5-46.5-46.5v10.3C415.5,231.6,436.3,252.4,461.9,252.4z"/>
	<path class="st0" d="M461.9,196.1v-10.3c0-25.7-20.8-46.5-46.5-46.5v10.3C415.5,175.3,436.3,196.1,461.9,196.1z"/>
	<rect x="14.2" y="82.3" class="st0" width="16.6" height="71.2"/>
	<path class="st0" d="M81.9,115c0-2.9-0.2-6.7-0.7-11.3c1.7,2,3.7,4,5.9,5.8l52.3,44h11.3V82.3h-14.9v37.4c0,1.6,0.2,5.7,0.7,12.3
		c-1.8-2.1-4.6-4.7-8.1-7.7L78.3,82.3H67v71.2h14.9V115z"/>
	<path class="st0" d="M202.5,153.5h44c6.8,0,11.5-1.1,14-3.4c2.5-2.3,3.8-6.8,3.8-13.4v-9.8c0-6.6-1.3-11.1-3.8-13.4
		c-2.5-2.3-7.2-3.4-14-3.4h-44.4V94.7h46.6v8.1l14.6-3.4v-1.5c0-6-1.3-10.1-3.9-12.3c-2.6-2.2-7.2-3.3-13.7-3.3h-40.4
		c-6.8,0-11.5,1.2-13.9,3.4c-2.5,2.3-3.7,6.8-3.7,13.4v7.9c0,6.6,1.2,11.1,3.7,13.4c2.5,2.3,7.1,3.4,13.9,3.4h44.4v16.3h-50.4v-8.4
		l-14.6,3v1.9c0,6.6,1.3,11.1,3.8,13.4C191,152.4,195.7,153.5,202.5,153.5z"/>
	<polygon class="st0" points="315.2,153.5 331.8,153.5 331.8,95 360,95 360,352.3 364.6,352.3 364.6,95 364.6,82.3 360,82.3 
		282.5,82.3 282.5,95 315.2,95 	"/>
	<path class="st0" d="M30.5,226h15.7l28.7,26.9h23.7L65.8,226h9.4c10.7,0,16-4.6,16-13.8v-16.6c0-9.2-5.3-13.8-16-13.8h-61v71.1
		h16.3V226z M30.5,194h37.3c2.6,0,4.4,0.3,5.4,0.8c1.4,0.8,2.1,2.4,2.1,4.8v8.6c0,2.4-0.7,4-2.1,4.8c-1,0.6-2.8,0.8-5.4,0.8H30.5
		V194z"/>
	<path class="st0" d="M205.1,181.7h-16.6v57.8h-47.2v-57.8h-16.6v54.4c0,6.6,1.2,11.1,3.7,13.4c2.5,2.3,7.1,3.4,13.9,3.4h45
		c6.8,0,11.5-1.1,13.9-3.4c2.5-2.3,3.7-6.8,3.7-13.4V181.7z"/>
	<polygon class="st0" points="274.4,215.2 321.6,181.7 297.6,181.7 258.1,211.4 258.1,181.7 241.6,181.7 241.6,252.9 258.1,252.9 
		258.1,221.6 300.8,252.9 327.4,252.9 	"/>
	<polygon class="st0" points="46.9,352.3 63.4,352.3 63.4,293.8 96.3,293.8 96.3,281.1 14.2,281.1 14.2,293.8 46.9,293.8 	"/>
	<path class="st0" d="M185.1,281.1h-52.4c-6.8,0-11.5,1.2-13.9,3.4c-2.5,2.3-3.7,6.8-3.7,13.4v37.5c0,6.6,1.2,11.1,3.7,13.4
		c2.5,2.3,7.1,3.4,13.9,3.4h52.4c6.8,0,11.5-1.1,13.9-3.4c2.5-2.3,3.7-6.8,3.7-13.4v-37.5c0-6.6-1.2-11.1-3.7-13.4
		C196.6,282.2,191.9,281.1,185.1,281.1z M186.2,338.9h-54.6v-45.1h54.6V338.9z"/>
	<path class="st0" d="M314.7,311.6V295c0-9.2-5.3-13.8-16-13.8h-61v71.1H254v-26.9h15.7l28.7,26.9h23.7l-32.8-26.9h9.4
		C309.4,325.4,314.7,320.8,314.7,311.6z M296.6,312.4c-1,0.6-2.8,0.8-5.4,0.8H254v-19.9h37.3c2.6,0,4.4,0.3,5.4,0.8
		c1.4,0.8,2.1,2.4,2.1,4.8v8.6C298.7,310,298,311.6,296.6,312.4z"/>
</g>
</svg>
