<?xml version="1.0" encoding="utf-8"?>
<!-- Generator: Adobe Illustrator 26.3.1, SVG Export Plug-In . SVG Version: 6.00 Build 0)  -->
<svg version="1.1" id="Layer_1" xmlns="http://www.w3.org/2000/svg" xmlns:xlink="http://www.w3.org/1999/xlink" x="0px" y="0px"
	 viewBox="0 0 566.9 566.9" style="enable-background:new 0 0 566.9 566.9;" xml:space="preserve">
<style type="text/css">
	.st0{fill:#FFFFFF;}
</style>
<g>
	<path d="M300.9,302.3c-105.6,0-148.1-15.7-190.5-38.4c-18.9-10.1-51.6-30.3-96.1,22.9c7.4,1.6,22.5,7.4,30.8,21.9
		c21.3,37.2,68.9,81.6,143.6,78.9c25.8-0.9,51.7-5.2,76.2-13.3L483,302.3H300.9z"/>
	<path class="st0" d="M336.9,423.2c-1.9-2.4-1.6-5.9,0.8-7.8l14.1-11.6c2.4-1.9,5.9-1.6,7.8,0.8l6.8,8.3c1.9,2.4,1.6,5.9-0.8,7.8
		l-12.1,9.9c5.8,2.3,11.6,4.7,17.4,7.1l5.2-4.2c2.4-1.9,5.9-1.6,7.8,0.8l6.8,8.3c0.9,1.1,1.3,2.4,1.2,3.7
		c22.3,9.1,39.7,16.1,39.7,16.1l-216-264.7l-97.5,81.2c-15.6,11.9-34.7,17.3-54.6,17.3c-20.3,0-44.1-7.9-42.1-7.1
		c6.9,2.7,17.2,8.4,23.7,19.7c21.3,37.2,68.9,81.6,143.6,78.9c36.6-1.3,73.1,5.6,107,19.5c1.1,0.4,19.3,7.8,42.1,17.1L336.9,423.2z
		 M197.6,253.5l-6.8-8.3c-1.9-2.4-1.6-5.9,0.8-7.8l14.1-11.6c2.4-1.9,5.9-1.6,7.8,0.8l6.8,8.3c1.9,2.4,1.6,5.9-0.8,7.8l-14.1,11.6
		C203.1,256.2,199.6,255.9,197.6,253.5z M222,283.2l-6.8-8.3c-1.9-2.4-1.6-5.9,0.8-7.8l14.1-11.6c2.4-1.9,5.9-1.6,7.8,0.8l6.8,8.3
		c1.9,2.4,1.6,5.9-0.8,7.8l-14.1,11.6C227.4,285.9,223.9,285.5,222,283.2z M246.3,312.8l-6.8-8.3c-1.9-2.4-1.6-5.9,0.8-7.8
		l14.1-11.6c2.4-1.9,5.9-1.6,7.8,0.8l6.8,8.3c1.9,2.4,1.6,5.9-0.8,7.8l-14.1,11.6C251.8,315.5,248.3,315.2,246.3,312.8z
		 M270.7,342.5l-6.8-8.3c-1.9-2.4-1.6-5.9,0.8-7.8l14.1-11.6c2.4-1.9,5.9-1.6,7.8,0.8l6.8,8.3c1.9,2.4,1.6,5.9-0.8,7.8l-14.1,11.6
		C276.1,345.2,272.6,344.9,270.7,342.5z M295,372.2l-6.8-8.3c-1.9-2.4-1.6-5.9,0.8-7.8l14.1-11.6c2.4-1.9,5.9-1.6,7.8,0.8l6.8,8.3
		c1.9,2.4,1.6,5.9-0.8,7.8l-14.1,11.6C300.5,374.9,297,374.5,295,372.2z M319.4,401.8l-6.8-8.3c-1.9-2.4-1.6-5.9,0.8-7.8l14.1-11.6
		c2.4-1.9,5.9-1.6,7.8,0.8l6.8,8.3c1.9,2.4,1.6,5.9-0.8,7.8l-14.1,11.6C324.8,404.5,321.3,404.2,319.4,401.8z"/>
	<g>
		<path d="M270.2,187.5c-0.3-0.2-0.3-0.5-0.1-0.8l2.6-3.5c0.2-0.3,0.5-0.3,0.9-0.1c2.7,1.8,5.3,1.7,8-0.4c2.9-2.2,3.6-4.9,2-7
			c-1.5-1.9-3.5-2.2-9.7,0c-6.9,2.4-10.8,1.5-13.6-2.2c-3.8-4.9-2.4-10.6,3-14.8c4.4-3.4,9.2-3.8,13.5-0.9c0.3,0.2,0.4,0.5,0.2,0.8
			l-2.5,3.6c-0.2,0.3-0.5,0.4-0.8,0.2c-2.5-1.4-4.6-1.2-7,0.6c-2.5,2-3.5,4.4-1.8,6.6c1.4,1.8,3.3,2,9.5-0.2
			c6.9-2.4,10.8-1.5,13.7,2.3c3.9,5.1,2.7,10.8-3.1,15.3C279.7,190.9,274.5,191.1,270.2,187.5z"/>
		<path d="M303.7,170.9l-17.3-22.4l-7.2,5.5c-0.3,0.2-0.6,0.2-0.9-0.1l-2.6-3.4c-0.2-0.3-0.2-0.6,0.1-0.9l19.1-14.7
			c0.3-0.2,0.6-0.2,0.9,0.1l2.6,3.4c0.2,0.3,0.2,0.6-0.1,0.9l-7.2,5.5l17.3,22.4c0.2,0.3,0.2,0.6-0.1,0.9l-3.8,2.9
			C304.3,171.2,304,171.2,303.7,170.9z"/>
		<path d="M313.6,149.4L300,131.8c-0.2-0.3-0.2-0.6,0.1-0.9l3.8-2.9c0.3-0.2,0.6-0.2,0.9,0.1l13.5,17.5c2.6,3.3,5.7,4.1,9.3,1.3
			c3.6-2.8,3.7-6,1.1-9.3l-13.5-17.5c-0.2-0.3-0.2-0.6,0.1-0.9l3.8-2.9c0.3-0.2,0.6-0.2,0.9,0.1l13.5,17.5
			c4.3,5.6,4.1,12.3-2.6,17.4C324.4,156.4,318.1,155.2,313.6,149.4z"/>
		<path d="M346.8,137.7l-20.3-26.3c-0.2-0.3-0.2-0.6,0.1-0.9l8.8-6.8c6.9-5.4,13.7-3.8,18.2,2l5.5,7.1c4.6,5.9,4.3,12.9-2.7,18.2
			l-8.8,6.8C347.3,138,347,138,346.8,137.7z M353.1,126.6c3.9-3,4-6.5,1.2-10.1l-5.4-7c-2.8-3.6-6.2-4.4-10.1-1.4l-4.6,3.5
			l14.3,18.5L353.1,126.6z"/>
		<path d="M372.4,117.9l-20.3-26.3c-0.2-0.3-0.2-0.6,0.1-0.9l3.8-2.9c0.3-0.2,0.6-0.2,0.9,0.1l20.3,26.3c0.2,0.3,0.2,0.6-0.1,0.9
			l-3.8,2.9C373,118.2,372.7,118.2,372.4,117.9z"/>
		<path d="M376,100.5l-6.2-8c-5-6.5-3.8-13.2,2.6-18.1c6.9-5.4,13.7-3.8,18.2,2l6.2,8c4.5,5.9,4.3,12.8-2.6,18.2
			C387.4,107.8,380.7,106.6,376,100.5z M390.8,98.1c3.9-3,4-6.5,1.2-10.1l-6.1-7.9c-2.7-3.5-6.2-4.4-10-1.4c-3.9,3-4,6.5-1.2,10.1
			l6.1,7.9C383.5,100.3,386.9,101.1,390.8,98.1z"/>
		<path d="M304.2,228.7l-20.3-26.3c-0.2-0.3-0.2-0.6,0.1-0.9l8.3-6.4c6-4.6,11.5-3.6,15.4,1.5l1.4,1.8c4,5.2,3.6,10.8-2.4,15.4
			l-4,3.1l6.3,8.2c0.2,0.3,0.2,0.6-0.1,0.9l-3.8,2.9C304.8,229,304.5,229,304.2,228.7z M303,209.7c3.4-2.6,3.3-5,1.1-8l-0.9-1.1
			c-2.2-2.9-4.6-3.5-7.9-1l-3.7,2.8l7.7,10L303,209.7z"/>
		<path d="M319.2,202.5l-6.2-8c-5-6.5-3.8-13.2,2.6-18.1c6.9-5.4,13.7-3.8,18.2,2l6.2,8c4.5,5.9,4.3,12.8-2.6,18.2
			C330.6,209.8,323.9,208.6,319.2,202.5z M334,200.1c3.9-3,4-6.5,1.2-10.1l-6.1-7.9c-2.7-3.5-6.2-4.4-10-1.4c-3.9,3-4,6.5-1.2,10.1
			l6.1,7.9C326.7,202.3,330.1,203.1,334,200.1z"/>
		<path d="M353,191l-20.3-26.3c-0.2-0.3-0.2-0.6,0.1-0.9l8.8-6.8c6.9-5.4,13.7-3.8,18.2,2l5.5,7.1c4.6,5.9,4.3,12.9-2.7,18.2
			l-8.8,6.8C353.6,191.4,353.3,191.3,353,191z M359.3,179.9c3.9-3,4-6.5,1.2-10.1l-5.4-7c-2.8-3.6-6.2-4.4-10.1-1.4l-4.6,3.5
			l14.3,18.5L359.3,179.9z"/>
		<path d="M328,265c-0.4-0.1-0.5-0.3-0.5-0.7l0.3-4.4c0.1-0.4,0.3-0.6,0.7-0.5c2.2,0.5,3.9,0.2,5.4-1c2.1-1.6,2.2-3.7,0.4-6
			l-14.9-19.3c-0.2-0.3-0.2-0.6,0.1-0.9l3.8-2.9c0.3-0.2,0.6-0.2,0.9,0.1l14.9,19.3c3.9,5.1,3.1,10.3-1.7,14
			C334.6,264.8,331.7,265.7,328,265z"/>
		<path d="M348.3,252.7L336.2,220c-0.2-0.4-0.1-0.6,0.2-0.8l5-3.9c0.3-0.2,0.5-0.2,0.8,0l28.7,19.9c0.4,0.2,0.4,0.6,0.1,0.8l-4,3.1
			c-0.3,0.2-0.5,0.2-0.8,0l-6.9-4.9l-9.3,7.1l2.9,8c0.2,0.4,0.1,0.6-0.2,0.8l-3.7,2.9C348.7,253.3,348.4,253.2,348.3,252.7z
			 M354.6,230.9l-3.5-2.5c-3.6-2.5-5.2-3.8-8.4-6.3l-0.1,0.1c1.1,2.6,2.8,6.5,4,9.8l1.4,3.9L354.6,230.9z"/>
		<path d="M369.1,227.6c-0.3-0.2-0.3-0.5-0.1-0.8l2.6-3.5c0.2-0.3,0.5-0.3,0.9-0.1c2.7,1.8,5.3,1.7,8-0.4c2.9-2.2,3.6-4.9,2-7
			c-1.5-1.9-3.5-2.2-9.7,0c-6.9,2.4-10.8,1.5-13.6-2.2c-3.8-4.9-2.4-10.6,3-14.8c4.4-3.4,9.2-3.8,13.5-0.9c0.3,0.2,0.4,0.5,0.2,0.8
			l-2.5,3.6c-0.2,0.3-0.5,0.4-0.8,0.2c-2.5-1.4-4.6-1.2-7,0.6c-2.5,2-3.5,4.4-1.8,6.6c1.4,1.8,3.3,2,9.5-0.2
			c6.9-2.4,10.8-1.5,13.7,2.3c3.9,5.1,2.7,10.8-3.1,15.3C378.5,231,373.3,231.1,369.1,227.6z"/>
		<path d="M397.5,214.8l-20.3-26.3c-0.2-0.3-0.2-0.6,0.1-0.9l3.8-2.9c0.3-0.2,0.6-0.2,0.9,0.1l9.5,12.3l0.1-20
			c0-0.3,0.1-0.6,0.4-0.8l4.3-3.3c0.4-0.3,0.8-0.1,0.7,0.4l-0.3,16.9l20.7,9.1c0.4,0.2,0.5,0.6,0.1,0.9l-4.3,3.3
			c-0.3,0.2-0.5,0.2-0.8,0.1l-15.8-7.2l-0.1,7l5.9,7.7c0.2,0.3,0.2,0.6-0.1,0.9l-3.8,2.9C398.1,215.2,397.8,215.1,397.5,214.8z"/>
		<path d="M413.2,188.2l-6.2-8c-5-6.5-3.8-13.2,2.6-18.1c6.9-5.4,13.7-3.8,18.2,2l6.2,8c4.5,5.9,4.3,12.8-2.6,18.2
			C424.5,195.5,417.8,194.2,413.2,188.2z M427.9,185.8c3.9-3,4-6.5,1.2-10.1l-6.1-7.9c-2.7-3.5-6.2-4.4-10-1.4
			c-3.9,3-4,6.5-1.2,10.1l6.1,7.9C420.6,188,424,188.8,427.9,185.8z"/>
		<path d="M447,176.7l-20.3-26.3c-0.2-0.3-0.2-0.6,0.1-0.9l3.8-2.9c0.3-0.2,0.6-0.2,0.9,0.1l17.3,22.4l10.6-8.2
			c0.3-0.2,0.6-0.2,0.9,0.1l2.6,3.4c0.2,0.3,0.2,0.6-0.1,0.9l-14.9,11.5C447.5,177,447.2,177,447,176.7z"/>
		<path d="M467.1,161.2l-20.3-26.3c-0.2-0.3-0.2-0.6,0.1-0.9l3.8-2.9c0.3-0.2,0.6-0.2,0.9,0.1l9.5,12.3l0.1-20
			c0-0.3,0.1-0.6,0.4-0.8l4.3-3.3c0.4-0.3,0.8-0.1,0.7,0.4l-0.3,16.9l20.7,9.1c0.4,0.2,0.5,0.6,0.1,0.9l-4.3,3.3
			c-0.3,0.2-0.5,0.2-0.8,0.1l-15.8-7.2l-0.1,7l5.9,7.7c0.2,0.3,0.2,0.6-0.1,0.9l-3.8,2.9C467.7,161.5,467.3,161.5,467.1,161.2z"/>
		<path d="M488.9,144.2l-12.1-32.7c-0.2-0.4-0.1-0.6,0.2-0.8l5-3.9c0.3-0.2,0.5-0.2,0.8,0l28.7,19.9c0.4,0.2,0.4,0.6,0.1,0.8l-4,3.1
			c-0.3,0.2-0.5,0.2-0.8,0l-6.9-4.9l-9.3,7.1l2.9,8c0.2,0.4,0.1,0.6-0.2,0.8l-3.7,2.9C489.4,144.7,489.1,144.6,488.9,144.2z
			 M495.3,122.4l-3.5-2.5c-3.6-2.5-5.2-3.8-8.4-6.3l-0.1,0.1c1.1,2.6,2.8,6.5,4,9.8l1.4,3.9L495.3,122.4z"/>
		<path d="M515.9,123.5l-20.3-26.3c-0.2-0.3-0.2-0.6,0.1-0.9l6-4.6c0.3-0.2,0.5-0.2,0.8,0l14.3,10.8c2.9,2.2,5.3,4,8.1,6.6l0.1-0.1
			c-1.8-3.3-3-6-4.4-9.5l-6.8-16.5c-0.2-0.4-0.1-0.6,0.2-0.8l5.9-4.5c0.3-0.2,0.6-0.2,0.9,0.1l20.3,26.3c0.2,0.3,0.2,0.6-0.1,0.9
			l-3.4,2.6c-0.3,0.2-0.6,0.2-0.9-0.1l-11.4-14.8c-1.6-2.1-4-5.4-5.4-7.6l-0.1,0.1L531,112c0.2,0.4,0.1,0.6-0.2,0.8l-3.7,2.8
			c-0.3,0.2-0.5,0.2-0.8,0l-23.3-17.6l-0.1,0.1c1.7,1.9,4.4,5,6,7.1l11.4,14.8c0.2,0.3,0.2,0.6-0.1,0.9l-3.4,2.6
			C516.5,123.8,516.2,123.8,515.9,123.5z"/>
		<path d="M547.8,98.9l-20.3-26.3c-0.2-0.3-0.2-0.6,0.1-0.9l3.8-2.9c0.3-0.2,0.6-0.2,0.9,0.1l20.3,26.3c0.2,0.3,0.2,0.6-0.1,0.9
			l-3.8,2.9C548.4,99.2,548.1,99.2,547.8,98.9z"/>
	</g>
	<circle cx="405.1" cy="157.1" r="4"/>
	<circle cx="446" cy="154.5" r="4"/>
</g>
</svg>
