<?xml version="1.0" encoding="utf-8"?>
<!-- Generator: Adobe Illustrator 26.3.1, SVG Export Plug-In . SVG Version: 6.00 Build 0)  -->
<svg version="1.1" id="Layer_1" xmlns="http://www.w3.org/2000/svg" xmlns:xlink="http://www.w3.org/1999/xlink" x="0px" y="0px"
	 viewBox="0 0 566.9 566.9" style="enable-background:new 0 0 566.9 566.9;" xml:space="preserve">
<style type="text/css">
	.st0{fill:#7F1B78;}
	.st1{fill:#EE7C00;}
	.st2{fill:none;}
</style>
<g>
	<path class="st0" d="M296.5,356.1c13.2,0,24,10.7,24,24c0,13.2-10.7,24-24,24V356.1z"/>
	<path class="st0" d="M375.7,356.1c13.3,0,24,10.7,24,24c0,13.2-10.7,24-24,24V356.1z"/>
	<path class="st0" d="M367.4,364.9c0-3.7-3-6.7-6.7-6.7c-3.7,0-6.7,3-6.7,6.7l0,19.5c0,3.4-2.7,6.1-6.1,6.1c-3.4,0-6.1-2.7-6.1-6.1
		v-19.5c0-3.7-3-6.7-6.7-6.7c-3.7,0-6.7,3-6.7,6.7v19.5c0,10.8,8.7,19.5,19.5,19.5c10.8,0,19.5-8.7,19.5-19.5V364.9z"/>
	<path class="st1" d="M214,364.9c0-3.7-3-6.7-6.7-6.7c-3.7,0-6.7,3-6.7,6.7l0,19.5c0,3.4-2.7,6.1-6.1,6.1c-3.4,0-6.1-2.7-6.1-6.1
		v-19.5c0-3.7-3-6.7-6.7-6.7c-3.7,0-6.7,3-6.7,6.7v19.5c0,10.8,8.7,19.5,19.5,19.5c10.8,0,19.5-8.7,19.5-19.5V364.9z"/>
	<path class="st1" d="M53.2,364.9c0-3.7-3-6.7-6.7-6.7c-3.7,0-6.7,3-6.7,6.7l0,19.5c0,3.4-2.7,6.1-6.1,6.1c-3.4,0-6.1-2.7-6.1-6.1
		v-19.5c0-3.7-3-6.7-6.7-6.7c-3.7,0-6.7,3-6.7,6.7v19.5c0,10.8,8.7,19.5,19.5,19.5c10.8,0,19.5-8.7,19.5-19.5V364.9z"/>
	<path class="st0" d="M446.8,364.9c0-3.7,3-6.7,6.7-6.7c3.7,0,6.7,3,6.7,6.7v32.4c0,3.7-3,6.7-6.7,6.7c-3.7,0-6.7-3-6.7-6.7V364.9z"
		/>
	<path class="st0" d="M539.4,381.2l10.8-11.2c2.6-2.7,2.5-6.9-0.2-9.5c-2.7-2.6-6.9-2.5-9.5,0.2l-13.4,13.9V365c0-3.7-3-6.7-6.7-6.7
		c-3.7,0-6.7,3-6.7,6.7v32.4c0,3.7,3,6.7,6.7,6.7c3.7,0,6.7-3,6.7-6.7v-9.6l13.4,13.9c2.6,2.7,6.8,2.7,9.5,0.2
		c2.7-2.6,2.7-6.8,0.2-9.5L539.4,381.2z"/>
	<path class="st1" d="M275.8,384.4v6.1h-6.1c-3.4,0-6.1-2.8-6.1-6.1v-6.7c0-3.4,2.7-6.1,6.1-6.1c3.4,0,6.1,2.8,6.1,6.1V384.4z
		 M289.2,377.7c0-10.8-8.7-19.5-19.5-19.5c-10.8,0-19.5,8.7-19.5,19.5v6.7c0,10.8,8.7,19.5,19.5,19.5h14.5c2.8,0,5-2.2,5-5v-14.5
		V377.7z"/>
	<path class="st0" d="M492.4,384.4v6.1h-6.1c-3.4,0-6.1-2.8-6.1-6.1v-6.7c0-3.4,2.7-6.1,6.1-6.1c3.4,0,6.1,2.8,6.1,6.1V384.4z
		 M505.8,377.7c0-10.8-8.7-19.5-19.5-19.5c-10.8,0-19.5,8.7-19.5,19.5v6.7c0,10.8,8.7,19.5,19.5,19.5h14.5c2.8,0,5-2.2,5-5v-14.5
		V377.7z"/>
	<path class="st1" d="M235,384.4c0,3.4,2.8,6.1,6.1,6.1c3.7,0,6.7,3,6.7,6.7c0,3.7-3,6.7-6.7,6.7c-10.8,0-19.5-8.8-19.5-19.5v-19.5
		c0-3.7,3-6.7,6.7-6.7c3.7,0,6.7,3,6.7,6.7L235,384.4z"/>
	<path class="st1" d="M72.7,377.7c0-3.4,2.8-6.1,6.1-6.1c3.7,0,6.7-3,6.7-6.7c0-3.7-3-6.7-6.7-6.7c-10.8,0-19.5,8.7-19.5,19.5v19.5
		c0,3.7,3,6.7,6.7,6.7c3.7,0,6.7-3,6.7-6.7L72.7,377.7z"/>
	<path class="st1" d="M163,390.6h-11.7l16.9-21.1c1.1-1.3,1.5-3,1.5-4.6c0-0.2,0-0.4-0.1-0.5c-0.3-3.4-3.1-6.1-6.6-6.1h-25.6
		c-3.7,0-6.7,3-6.7,6.7c0,3.7,3,6.7,6.7,6.7h12c-7.5,9.3-17.2,21.5-17.2,21.5c-0.9,1.1-1.5,2.6-1.5,4.2c0,3.7,3,6.7,6.7,6.7H163
		c3.7,0,6.7-3,6.7-6.7C169.7,393.6,166.7,390.6,163,390.6"/>
	<path class="st0" d="M434.4,390.6h-11.7l16.9-21.1c1.1-1.3,1.5-3,1.5-4.6c0-0.2,0-0.4-0.1-0.5c-0.3-3.4-3.1-6.1-6.6-6.1h-25.6
		c-3.7,0-6.7,3-6.7,6.7c0,3.7,3,6.7,6.7,6.7h12c-7.5,9.3-17.2,21.5-17.2,21.5c-0.9,1.1-1.5,2.6-1.5,4.2c0,3.7,3,6.7,6.7,6.7h25.6
		c3.7,0,6.7-3,6.7-6.7C441.1,393.6,438.1,390.6,434.4,390.6"/>
	<path class="st1" d="M112.2,374.4h-9.5c-0.8,0-1.4-0.6-1.4-1.4c0-0.8,0.6-1.4,1.4-1.4l21.7-0.1c-0.8-7.4-7.1-13.3-14.7-13.3h-7
		c-8.2,0-14.8,6.6-14.8,14.8c0,8.2,6.6,14.8,14.8,14.8h9.5c0.8,0,1.4,0.6,1.4,1.4c0,0.8-0.6,1.4-1.4,1.4l-24,0.1
		C89,398,95.3,404,102.9,404h9.3c8.2,0,14.8-6.6,14.8-14.8C127,381,120.3,374.4,112.2,374.4"/>
	<path class="st0" d="M330.6,162.5v56.6c12.6,0,22.8,10.2,22.8,22.8c0,12.6-10.2,22.8-22.8,22.8v56.6c43.9,0,79.4-35.6,79.4-79.4
		C410,198,374.4,162.5,330.6,162.5"/>
	<path class="st1" d="M259.6,241.9c0,12.6-10.2,22.8-22.8,22.8c-12.6,0-22.8-10.2-22.8-22.8h-56.6c0,43.9,35.6,79.4,79.4,79.4
		c43.9,0,79.4-35.6,79.4-79.4H259.6z"/>
	<rect x="14.2" y="162.5" class="st2" width="538.6" height="242"/>
</g>
</svg>
