<?xml version="1.0" encoding="utf-8"?>
<!-- Generator: Adobe Illustrator 26.3.1, SVG Export Plug-In . SVG Version: 6.00 Build 0)  -->
<svg version="1.1" id="Layer_1" xmlns="http://www.w3.org/2000/svg" xmlns:xlink="http://www.w3.org/1999/xlink" x="0px" y="0px"
	 viewBox="0 0 566.9 566.9" style="enable-background:new 0 0 566.9 566.9;" xml:space="preserve">
<style type="text/css">
	.st0{fill:#A72335;}
</style>
<g>
	<path class="st0" d="M251.8,212c-0.1,1.9-0.2,3.8-0.3,5.7c1.4-0.1,2.8-0.1,4.1-0.1h4.1h4.1c1.3,0,2.7,0,4,0.1
		c-0.1-0.3-0.1-0.7-0.1-1.2c0-0.2,0-0.4,0-0.7c0-0.3,0.1-0.5,0.1-0.7c-0.7,0.1-1.6,0.3-2.5,0.3c-1,0.1-2,0.1-3.1,0.2
		c-1.1,0-2.2,0.1-3.4,0.1h-3.1c0-0.6,0-1.4-0.1-2.5c0-1.1,0-2.5,0-4.2v-2.7v-1.7c0-0.5,0-0.9,0-1.2c0-0.3,0-0.6,0-0.9
		c0.5,0,1.3,0,2.2,0c0.9,0,1.9,0,2.9,0c1,0,2.1,0.1,3.1,0.1c1,0,1.9,0.1,2.7,0.2c-0.1-0.5-0.1-0.9-0.1-1.3c0-0.5,0.1-0.9,0.1-1.4
		c-0.7,0-1.3,0.1-2.1,0.1c-0.7,0.1-1.5,0.1-2.4,0.1c-0.9,0-1.8,0.1-2.9,0.1c-1,0-2.2,0.1-3.5,0.1c0-0.6,0-1.4,0-2.5
		c0-1.1,0-2.2,0-3.4c0-1.1,0-2.1,0.1-3c0-0.9,0.1-1.8,0.1-2.7c1.5,0,2.7,0,3.8,0.1c1.1,0,2,0.1,2.9,0.2c0.9,0.1,1.7,0.1,2.5,0.2
		c0.8,0.1,1.7,0.1,2.6,0.2c-0.1-0.5-0.1-0.9-0.1-1.4c0-0.5,0-0.9,0.1-1.3c-1.3,0.1-2.7,0.1-4,0.1c-1.3,0.1-2.7,0.1-4,0.1
		c-1.4,0-2.7,0-4-0.1c-1.3,0-2.7-0.1-4-0.1c0.1,1.9,0.2,3.8,0.3,5.7c0.1,1.9,0.1,3.8,0.1,5.8v7.7C251.9,208.2,251.8,210.1,251.8,212
		z"/>
	<path class="st0" d="M279.3,218.3c1.7,0,3.3-0.2,4.6-0.7c1.4-0.5,2.5-1.2,3.5-2.1c0.9-0.9,1.7-2,2.2-3.2c0.5-1.2,0.7-2.5,0.7-3.9
		c0-1.6-0.3-3-1.1-3.9c-0.7-1-1.6-1.8-2.6-2.4c-1.1-0.6-2.2-1.2-3.4-1.6c-1.2-0.4-2.3-0.9-3.4-1.5c-1.1-0.6-1.9-1.2-2.6-2
		c-0.7-0.8-1.1-1.9-1.1-3.3c0-0.8,0.1-1.6,0.4-2.3c0.3-0.7,0.7-1.3,1.2-1.8c0.5-0.5,1.1-0.9,1.8-1.1c0.7-0.3,1.5-0.4,2.3-0.4
		c0.8,0,1.6,0.1,2.2,0.4c0.6,0.3,1.1,0.7,1.5,1.1c0.4,0.4,0.8,0.9,1,1.4c0.2,0.5,0.5,1,0.6,1.4h0.5c0.2-0.9,0.4-1.6,0.6-2.2
		c0.2-0.6,0.4-1.1,0.7-1.6c-0.9-0.7-1.9-1.2-2.9-1.6c-1.1-0.3-2.3-0.5-3.7-0.5c-1.5,0-2.9,0.2-4,0.6c-1.2,0.4-2.2,1-3.1,1.8
		c-0.9,0.7-1.5,1.6-1.9,2.7c-0.5,1-0.7,2.2-0.7,3.4c0,1.8,0.4,3.2,1.1,4.2c0.7,1.1,1.6,1.9,2.6,2.6c1.1,0.7,2.2,1.2,3.4,1.7
		c1.2,0.5,2.3,1,3.4,1.5c1.1,0.5,1.9,1.2,2.6,2c0.7,0.8,1.1,1.9,1.1,3.3c0,0.9-0.2,1.8-0.5,2.5c-0.3,0.8-0.7,1.5-1.3,2.1
		c-0.6,0.6-1.2,1-2,1.4c-0.8,0.3-1.7,0.5-2.7,0.5c-1,0-1.8-0.1-2.6-0.4c-0.8-0.3-1.5-0.6-2-1.1c-0.6-0.5-1.1-1-1.5-1.5
		c-0.4-0.6-0.7-1.1-1-1.6h-0.5c-0.1,0.9-0.2,1.6-0.3,2.1c-0.1,0.5-0.3,1.2-0.6,1.9c0.8,0.6,1.7,1.2,2.9,1.7
		C276,218.1,277.5,218.3,279.3,218.3z"/>
	<path class="st0" d="M295.4,189.5c0.8-0.1,1.6-0.1,2.5-0.2c0.8,0,1.7-0.1,2.6-0.1c0.8,0,1.7,0,2.4,0c0.1,3.1,0.1,6.2,0.1,9.3v7.7
		c0,2,0,3.9-0.1,5.8c-0.1,1.9-0.2,3.8-0.3,5.7c0.7-0.1,1.4-0.1,2.2-0.1c0.8,0,1.5,0,2.2,0.1c-0.1-1.9-0.2-3.7-0.2-5.7
		c-0.1-1.9-0.1-3.9-0.1-5.8v-7.7c0-3.1,0.1-6.2,0.1-9.3c0.8,0,1.6,0,2.5,0c0.8,0,1.7,0,2.6,0.1c0.8,0.1,1.7,0.1,2.5,0.2
		c0.8,0.1,1.5,0.1,2.1,0.2c-0.1-0.5-0.2-1-0.2-1.4c0-0.4,0.1-0.8,0.2-1.4c-2,0.1-3.9,0.1-5.8,0.2c-1.9,0.1-3.8,0.1-5.8,0.1
		s-3.9,0-5.8-0.1c-1.9,0-3.8-0.1-5.8-0.2c0.2,0.6,0.2,1.1,0.2,1.4c0,0.4-0.1,0.9-0.2,1.4C293.9,189.6,294.6,189.6,295.4,189.5z"/>
	<path class="st0" d="M316.4,217.6c0.6,0,1.2,0,1.7,0.1c0.4-1.4,1-3.1,1.7-5.2c0.8-2.1,1.7-4.3,2.6-6.7c0.9,0,1.8-0.1,2.7-0.1
		c0.9,0,1.8,0,2.7,0c1,0,2,0,3,0c1,0,2,0,2.9,0.1c0.4,1,0.8,2,1.3,3.1c0.4,1.1,0.9,2.2,1.3,3.2c0.4,1.1,0.8,2.1,1.2,3.1
		c0.3,1,0.6,1.8,0.9,2.5c0.4-0.1,0.8-0.1,1.2-0.1h1.2h1.2c0.4,0,0.8,0,1.2,0.1c-0.4-0.7-0.9-1.8-1.5-3.1c-0.6-1.4-1.3-2.9-2.1-4.7
		c-0.8-1.8-1.6-3.6-2.4-5.7c-0.9-2-1.7-4.1-2.6-6.1c-0.9-2.1-1.7-4.1-2.6-6.1c-0.8-2-1.6-3.9-2.3-5.6h-0.8c-2.3,5.4-4.7,10.6-7,15.8
		c-2.3,5.2-4.7,10.4-7.1,15.6C315.3,217.7,315.8,217.6,316.4,217.6z M328.2,192.4l5,11.4c-0.9,0-1.7,0.1-2.5,0.1c-0.8,0-1.7,0-2.5,0
		c-0.8,0-1.6,0-2.4-0.1c-0.8,0-1.7,0-2.4,0L328.2,192.4z"/>
	<path class="st0" d="M371.8,186.9c0.2,2.6,0.3,5.4,0.3,8.4c0,3,0.1,6,0.1,9.2v6.1c-1.4-1.4-3-3-4.8-5c-1.8-2-3.8-4-5.8-6.2
		c-2.1-2.2-4.1-4.4-6.2-6.7c-2.1-2.3-4-4.4-5.8-6.3h-0.7c0.1,1,0.1,2.6,0.1,4.6c0,2.1,0,4.5,0,7.4c0,1,0,2.1,0,3.4
		c0,1.3-0.1,2.5-0.1,3.9c0,1.3-0.1,2.6-0.2,4c-0.1,1.3-0.1,2.5-0.2,3.7c-0.1,1.1-0.1,2.1-0.2,2.9c-0.1,0.8-0.1,1.4-0.2,1.7
		c0.5-0.1,1.1-0.1,1.7-0.1c0.6,0,1.1,0,1.6,0.1c0-0.2-0.1-0.7-0.1-1.4c0-0.7-0.1-1.5-0.1-2.4c0-0.9-0.1-1.9-0.1-2.9
		c0-1-0.1-2.1-0.1-3.1c0-1,0-2,0-2.9c0-0.9,0-1.7,0-2.3c0-2.4,0-4.3,0.1-5.7c0-1.4,0.1-2.5,0.1-3.4c3.9,4.1,7.8,8.3,11.7,12.5
		c3.9,4.2,7.6,8.2,11,12.2h0.6v-1.5c0-0.7,0-1.6,0-2.5c0-1,0-2,0-3.1c0-1.1,0-2.2,0-3.3c0-1.1,0-2.2,0-3.2v-2.7c0-0.9,0-2,0.1-3.5
		c0.1-1.4,0.1-2.9,0.2-4.4c0.1-1.5,0.2-2.9,0.2-4.2c0.1-1.3,0.1-2.3,0.2-3c-0.6,0.2-1.1,0.2-1.4,0.2
		C372.9,187.1,372.4,187.1,371.8,186.9z"/>
	<path class="st0" d="M403,217.4c0.8-0.2,1.5-0.5,2.1-0.8c0.6-0.3,1-0.6,1.3-0.8l0.4-2.7l-0.2-0.2c-0.4,0.3-0.9,0.7-1.6,1.1
		c-0.6,0.4-1.3,0.9-2.1,1.2c-0.8,0.4-1.6,0.7-2.5,1c-0.9,0.3-1.9,0.4-3,0.4c-1.8,0-3.4-0.3-4.9-0.9c-1.5-0.6-2.8-1.4-4-2.6
		c-1.1-1.2-2-2.7-2.6-4.5c-0.6-1.8-1-4-1-6.4c0-2.5,0.3-4.6,1-6.4c0.6-1.8,1.5-3.3,2.6-4.5c1.1-1.2,2.4-2.1,4-2.6
		c1.5-0.6,3.1-0.9,4.9-0.9c1.1,0,2.1,0.1,2.9,0.4c0.9,0.3,1.7,0.6,2.4,1.1c0.7,0.4,1.4,0.9,1.9,1.3c0.5,0.4,1,0.9,1.3,1.2l0.3-0.1
		c0.1-0.5,0.2-1.1,0.4-1.8c0.1-0.7,0.3-1.3,0.6-1.7c-1.3-0.6-2.7-1.1-4.3-1.5c-1.6-0.4-3.4-0.6-5.4-0.6c-2.5,0-4.8,0.4-6.8,1.1
		c-2.1,0.7-3.8,1.8-5.3,3.1c-1.5,1.4-2.6,3.1-3.5,5.1c-0.8,2-1.2,4.3-1.2,6.8c0,2.6,0.4,4.8,1.2,6.8c0.8,2,2,3.7,3.4,5
		c1.5,1.4,3.2,2.4,5.2,3.1c2,0.7,4.2,1,6.6,1c1.1,0,2.2-0.1,3.2-0.3C401.3,217.9,402.2,217.7,403,217.4z"/>
	<path class="st0" d="M413.1,212.1c-0.1,1.9-0.2,3.8-0.2,5.7c0.7-0.1,1.4-0.1,2.2-0.1c0.8,0,1.5,0,2.2,0.1c-0.1-1.9-0.2-3.7-0.2-5.7
		c-0.1-1.9-0.1-3.9-0.1-5.8v-7.7c0-2,0-3.9,0.1-5.8c0.1-1.9,0.2-3.8,0.2-5.8c-0.4,0.1-0.8,0.1-1.1,0.2c-0.4,0.1-0.7,0.1-1.1,0.1
		c-0.4,0-0.7,0-1.1-0.1c-0.4,0-0.7-0.1-1.1-0.2c0.1,2,0.2,3.9,0.2,5.8c0.1,1.9,0.1,3.8,0.1,5.8v7.7
		C413.2,208.2,413.1,210.2,413.1,212.1z"/>
	<path class="st0" d="M425.3,217.7c0.4-1.4,1-3.1,1.8-5.2c0.8-2.1,1.6-4.3,2.6-6.7c0.9,0,1.8-0.1,2.7-0.1c0.9,0,1.8,0,2.8,0
		c1,0,2,0,3,0c1,0,2,0,2.9,0.1c0.4,1,0.8,2,1.3,3.1c0.4,1.1,0.9,2.2,1.3,3.2c0.4,1.1,0.8,2.1,1.2,3.1c0.4,1,0.6,1.8,0.9,2.5
		c0.4-0.1,0.8-0.1,1.2-0.1h1.2h1.2c0.4,0,0.8,0,1.2,0.1c-0.4-0.7-0.9-1.8-1.5-3.1c-0.6-1.4-1.3-2.9-2.1-4.7
		c-0.8-1.8-1.6-3.6-2.4-5.7c-0.9-2-1.7-4.1-2.6-6.1c-0.9-2.1-1.7-4.1-2.6-6.1c-0.8-2-1.6-3.9-2.3-5.6h-0.9c-2.3,5.4-4.7,10.6-7,15.8
		c-2.3,5.2-4.7,10.4-7.1,15.6c0.5-0.1,1.1-0.1,1.7-0.1C424.3,217.6,424.8,217.7,425.3,217.7z M435.4,192.4l5,11.4
		c-0.8,0-1.7,0.1-2.5,0.1c-0.8,0-1.7,0-2.5,0c-0.8,0-1.6,0-2.4-0.1c-0.8,0-1.6,0-2.4,0L435.4,192.4z"/>
	<path class="st0" d="M467.1,212.1c-0.1,1.9-0.2,3.8-0.2,5.6c1-0.1,2-0.1,3-0.1h3c1,0,2,0,3,0.1c1,0,2,0,3,0c1.8,0,3.6-0.3,5.5-0.8
		c1.9-0.5,3.7-1.4,5.3-2.7c1.6-1.3,2.9-2.9,3.9-4.9c1-2,1.5-4.5,1.5-7.5c0-2.3-0.3-4.4-0.8-6.2c-0.6-1.8-1.4-3.4-2.6-4.6
		c-1.2-1.3-2.7-2.2-4.6-2.9c-1.9-0.7-4.1-1-6.7-1c-1.1,0-2.3,0-3.4,0.1c-1.1,0.1-2.2,0.1-3.4,0.1c-1.1,0-2.3,0-3.4-0.1
		c-1.1,0-2.2-0.1-3.4-0.2c0.1,2,0.2,3.9,0.2,5.8c0.1,1.9,0.1,3.8,0.1,5.8v7.7C467.2,208.3,467.1,210.2,467.1,212.1z M470.8,198.7
		c0-1.6,0-3.2,0.1-4.8c0-1.6,0.1-3.1,0.2-4.5c0.9-0.1,2-0.2,3.1-0.3c1.2-0.1,2.4-0.1,3.7-0.1c1.8,0,3.5,0.2,5.1,0.6
		c1.5,0.4,2.9,1.1,4,2c1.1,1,2,2.3,2.6,4c0.6,1.7,1,3.8,1,6.4c0,2.9-0.4,5.3-1.2,7.2c-0.8,1.9-1.9,3.3-3.2,4.4
		c-1.3,1.1-2.8,1.8-4.4,2.2c-1.6,0.4-3.3,0.6-4.9,0.6c-1.1,0-2.2,0-3.3-0.1c-1.1-0.1-1.9-0.2-2.5-0.3c-0.2-3.1-0.3-6.2-0.3-9.5
		V198.7z"/>
	<path class="st0" d="M501.8,212c-0.1,1.9-0.2,3.8-0.3,5.7c1.4-0.1,2.7-0.1,4.1-0.1h4.1h4c1.3,0,2.6,0,4,0.1
		c-0.1-0.3-0.1-0.7-0.1-1.2c0-0.2,0-0.4,0-0.7c0-0.3,0.1-0.5,0.1-0.7c-0.7,0.2-1.6,0.3-2.5,0.3c-1,0.1-2,0.1-3.1,0.2
		c-1.1,0.1-2.2,0.1-3.3,0.1h-3.1c0-0.6-0.1-1.4-0.1-2.5c0-1.1,0-2.5,0-4.2v-2.7v-1.7c0-0.5,0-0.9,0-1.2c0-0.3,0-0.6,0-0.9
		c0.5,0,1.3,0,2.2,0c0.9,0,1.9,0,2.9,0c1,0,2.1,0,3.1,0.1c1,0.1,1.9,0.1,2.7,0.2c-0.1-0.5-0.1-0.9-0.1-1.3c0-0.5,0-1,0.1-1.4
		c-0.6,0.1-1.3,0.1-2.1,0.2c-0.7,0-1.5,0.1-2.4,0.1c-0.9,0.1-1.8,0.1-2.8,0.1c-1,0-2.2,0-3.5,0c0-0.6,0-1.4,0-2.5c0-1.1,0-2.2,0-3.4
		c0-1.1,0-2.1,0.1-2.9c0.1-0.9,0.1-1.8,0.1-2.7c1.4,0,2.7,0,3.7,0.1c1,0,2,0.1,2.9,0.2c0.9,0.1,1.7,0.1,2.5,0.2
		c0.8,0.1,1.7,0.1,2.6,0.2c-0.1-0.4-0.1-0.9-0.1-1.3c0-0.5,0-0.9,0.1-1.3c-1.3,0.1-2.7,0.1-4,0.2c-1.3,0-2.6,0.1-4,0.1
		c-1.3,0-2.7,0-4-0.1c-1.3,0-2.7-0.1-4-0.2c0.1,1.9,0.2,3.8,0.3,5.7c0.1,1.9,0.1,3.8,0.1,5.8v7.7C501.9,208.2,501.8,210.2,501.8,212
		z"/>
	<path class="st0" d="M524,212.1c-0.1,1.9-0.2,3.8-0.2,5.6c1.4-0.1,2.8-0.1,4.1-0.1h4.1h4.1c1.4,0,2.7,0,4.1,0.1
		c-0.2-0.5-0.2-0.9-0.2-1.2c0-0.4,0.1-0.8,0.2-1.4c-2.2,0.3-4.3,0.5-6.3,0.5c-1.9,0.1-4,0.1-6.1,0.1c0-2.2-0.1-4.6-0.1-7.4
		c0-2.8,0-6,0-9.7c0-2,0-3.9,0.1-5.8c0.1-1.9,0.2-3.8,0.3-5.8c-0.4,0.1-0.8,0.1-1.1,0.2c-0.4,0.1-0.7,0.1-1.1,0.1
		c-0.4,0-0.7,0-1.1-0.1c-0.3,0-0.7-0.1-1.1-0.2c0.1,2,0.2,3.9,0.2,5.8c0.1,1.9,0.1,3.8,0.1,5.8v7.7
		C524.2,208.3,524.1,210.2,524,212.1z"/>
	<path class="st0" d="M129.3,237.1c-1.5,4.5-3.4,9.9-5.6,16.1c-2.2,6.2-4.6,12.8-7.3,20c-2.7,7.1-5.5,14.6-8.3,22.3
		c-2.9,7.8-5.8,15.4-8.7,22.9c-3,7.5-5.9,14.7-8.8,21.6c-2.9,6.9-5.6,13.2-8,18.8c-4.4-10.4-8.7-20.9-13-31.5
		c-4.3-10.6-8.4-21-12.5-31.3c-4.1-10.3-7.9-20.4-11.5-30.4c-3.6-10-7-19.5-10-28.5c-1.9,0.3-3.8,0.5-5.5,0.7
		c-1.8,0.2-3.5,0.3-5.2,0.3c-1.6,0-3.4-0.1-5.2-0.3c-1.8-0.2-3.6-0.4-5.6-0.7c4.9,11.8,10.1,24.3,15.5,37.5
		c5.4,13.2,10.7,26.1,15.9,38.7c5.1,12.6,10,24.7,14.5,36.1c4.5,11.4,8.4,21.1,11.5,29.2c1.8-0.3,4.1-0.4,6.8-0.4
		c2.3,0,4.6,0.1,6.8,0.4c9.1-23.5,18.5-47,28.4-70.5c9.9-23.5,20.2-47.1,30.9-71c-3,0.7-5.6,1-7.6,1
		C134.9,238.1,132.3,237.8,129.3,237.1z"/>
	<path class="st0" d="M360.3,237.1c0.7,12.1,1.1,25,1.3,38.6c0.2,13.7,0.3,27.7,0.3,42.1v28c-6.3-6.3-13.7-14-22.1-23
		c-8.4-9-17.4-18.5-26.8-28.6c-9.4-10.1-18.9-20.3-28.4-30.7c-9.5-10.4-18.5-20.1-26.9-29.1h-3.3c0.3,4.7,0.4,11.7,0.5,21.2
		c0.1,9.5,0.1,20.8,0.1,34c0,4.5-0.1,9.7-0.2,15.5c-0.1,5.8-0.3,11.7-0.5,17.7c-0.2,6-0.5,12.1-0.8,18.1c-0.3,6-0.7,11.6-0.9,16.8
		c-0.3,5.1-0.6,9.6-0.9,13.3c-0.4,3.7-0.7,6.2-0.9,7.6c2.3-0.3,4.9-0.4,7.6-0.4c2.6,0,5,0.1,7.2,0.4c-0.1-1.1-0.3-3.2-0.4-6.3
		c-0.1-3.1-0.3-6.7-0.4-10.8c-0.1-4.1-0.3-8.6-0.4-13.4c-0.2-4.8-0.2-9.5-0.3-14.2c-0.1-4.7-0.1-9.1-0.2-13.4
		c-0.1-4.3-0.1-7.8-0.1-10.7c0-11.1,0.1-19.9,0.2-26.4c0.1-6.4,0.3-11.6,0.4-15.4c17.8,18.9,35.7,38,53.5,57.2
		c17.9,19.1,34.7,37.9,50.5,56.1h2.9v-6.8c0-3.3,0-7.2-0.1-11.6c-0.1-4.5-0.1-9.3-0.2-14.4c-0.1-5.1-0.1-10.3-0.2-15.3
		c-0.1-5.1-0.1-10-0.1-14.6v-12.4c0-4,0.1-9.3,0.4-15.9c0.3-6.6,0.6-13.3,0.9-20.2c0.4-6.9,0.7-13.3,1-19.4c0.3-6,0.6-10.6,0.9-13.6
		c-2.8,0.7-4.9,1-6.6,1C365.4,238.1,363,237.8,360.3,237.1z"/>
	<path class="st0" d="M547.1,276.9c-3.8-9.1-9.1-16.8-15.9-23.2c-6.8-6.3-14.9-11.1-24.4-14.4c-9.5-3.3-19.9-4.9-31.3-4.9
		c-11.2,0-21.6,1.7-31.1,4.9c-9.5,3.3-17.6,8.1-24.4,14.4c-6.8,6.3-12.1,14-15.9,23.2c-3.8,9.1-5.7,19.5-5.7,31.2
		c0,11.7,1.9,22.1,5.7,31.2c3.8,9.1,9.1,16.9,15.9,23.2c6.8,6.3,14.9,11,24.4,14.1c9.5,3.1,19.9,4.6,31.1,4.6
		c11.4,0,21.8-1.5,31.3-4.6c9.5-3.1,17.6-7.8,24.4-14.1c6.8-6.3,12.1-14,15.9-23.2c3.8-9.1,5.7-19.5,5.7-31.2
		C552.8,296.5,550.9,286.1,547.1,276.9z M528.3,337.7c-2.9,8.3-6.9,15.2-12.1,20.6c-5.1,5.4-11.2,9.4-18.1,12
		c-6.9,2.6-14.5,3.9-22.6,3.9c-8,0-15.4-1.3-22.3-3.9c-6.9-2.6-13-6.6-18.1-12c-5.2-5.4-9.2-12.3-12-20.6
		c-2.9-8.3-4.3-18.1-4.3-29.6c0-11.4,1.4-21.2,4.3-29.5c2.9-8.3,6.9-15.2,12-20.6c5.2-5.4,11.2-9.4,18.1-12.1
		c6.9-2.6,14.4-3.9,22.3-3.9c8.1,0,15.6,1.3,22.6,3.9c6.9,2.6,13,6.6,18.1,12.1c5.1,5.4,9.2,12.3,12.1,20.6
		c2.9,8.3,4.3,18.2,4.3,29.5C532.6,319.6,531.1,329.4,528.3,337.7z"/>
	<path class="st0" d="M197.9,227.2v-41.5c-2.6,0.5-5.2,0.8-7.9,0.8c-2.7,0-5.4-0.3-7.9-0.8v41.5c-10.5,2.7-18.3,11.9-18.3,22.8
		l3,129.4c7.5-1.3,15.3-2.1,23.2-2.1c7.9,0,15.7,0.7,23.2,2.1l3-129.4C216.1,239,208.4,229.9,197.9,227.2z"/>
</g>
</svg>
