<?xml version="1.0" encoding="utf-8"?>
<!-- Generator: Adobe Illustrator 26.3.1, SVG Export Plug-In . SVG Version: 6.00 Build 0)  -->
<svg version="1.1" id="Layer_1" xmlns="http://www.w3.org/2000/svg" xmlns:xlink="http://www.w3.org/1999/xlink" x="0px" y="0px"
	 viewBox="0 0 566.9 566.9" style="enable-background:new 0 0 566.9 566.9;" xml:space="preserve">
<style type="text/css">
	.st0{fill:#9A8479;}
	.st1{fill:#FFFFFF;}
	.st2{fill:#4A352A;}
	.st3{fill:#3A8DDE;}
</style>
<polygon class="st0" points="101.1,552.6 101.2,14.1 465.2,14.1 465.1,552.6 "/>
<g>
	<rect x="114" y="97.2" class="st1" width="338.4" height="442.5"/>
	<rect x="114" y="26.9" class="st1" width="57.4" height="57.4"/>
	<rect x="184.2" y="26.9" class="st1" width="57.4" height="57.4"/>
	<rect x="254.4" y="26.9" class="st1" width="57.4" height="57.4"/>
	<rect x="324.7" y="26.9" class="st1" width="57.4" height="57.4"/>
	<rect x="394.9" y="26.9" class="st1" width="57.4" height="57.4"/>
</g>
<path class="st2" d="M269.6,289.1c-15.3,1.3-34.7,4.3-49.9,10.7c8.1-2.1,24.7-4.7,33.8-5.5c48.5-4.2,89.7,14.6,92.1,41.9
	c2.4,27.3-35.4,51.9-83.9,56.1c-21,1.8-61.9-2-67.4-26.9c-3.5-16.1,14.7-31.4,42.9-33c2.1,0,10.8-3.9-0.1-2.8
	c-29.4,2.5-51.9,18.7-50.4,36.2c1.5,17.4,27.4,42.9,98.3,36.8c52.7-4.5,87.6-34,84.9-65.2C367.2,306.2,322.3,284.6,269.6,289.1z"/>
<path class="st3" d="M295.2,259.2c11.7,3.2,18.2-4.6,27.7-7.6c12.4-3.9,27.2,5.9,27.2,5.9s-18.3-13.8-28.3-21.3
	c-9.8,10.7-14.3,17.1-21.9,15.9c-14.7-2.3-28.1-13.2-43.5-23.8c-6.9,11-13.5,25.2-50.1,73.9c30.5-29.6,37.7-45.8,53.6-48.9
	C275.8,250.2,284.3,256.2,295.2,259.2z"/>
<path class="st2" d="M261.8,145.7c-1,0-2,0.4-2.7,1.1c-0.7,0.7-1.1,1.6-1.1,2.7v44.2c0,0,7.6-1.3,7.6-7.9l0.1-36.3
	c0-1-0.4-2-1.2-2.7C263.8,146.1,262.8,145.7,261.8,145.7z M235.3,130.5c-1,0-2,0.4-2.7,1.1c-0.8,0.7-1.2,1.7-1.2,2.7v41.6
	c0,2.9-0.9,5.1-2.8,7c-2,2-4.3,2.9-7.2,2.9c-2.9,0-5.1-1-7.1-2.9c-1.7-1.6-2.6-3.5-2.9-5.9v-34.5c0-1-0.4-2-1.1-2.7
	c-0.7-0.8-1.6-1.2-2.8-1.2c-1.2,0-2.1,0.4-2.8,1.2c-0.7,0.7-1.1,1.7-1.1,2.7l0,34.5c-0.2,2.3-1.1,4.2-2.8,5.8c-1.9,2-4.2,3-7.1,3
	c-2.9,0-5.2-1-7.2-2.9c-2-2-3-4.3-3-7v-41.6c0-1-0.4-2-1.1-2.7c-0.7-0.7-1.6-1.1-2.7-1.1c-1,0-2,0.4-2.7,1.1
	c-0.8,0.7-1.2,1.7-1.2,2.7l0,41.6c0,4.7,1.8,8.9,5.2,12.4c3.4,3.5,7.6,5.2,12.4,5.2h0c4.8,0,9-1.8,12.5-5.2c0,0,1.4-1.4,1.4-1.4
	s1,1.2,1.3,1.4c3.5,3.5,7.7,5.2,12.5,5.2c4.8,0,9.1-1.8,12.4-5.2c3.5-3.4,5.4-7.6,5.3-12.4v-41.6c0-1-0.4-2-1.2-2.7
	C237.3,130.9,236.3,130.5,235.3,130.5z M385.1,135.7c-3.4-3.5-7.6-5.2-12.5-5.2c-4.7,0-8.9,1.8-12.5,5.2c-2.5,2.5-4.3,5.4-4.8,8.1
	c-0.3,1.9,0.1,4,2.3,4.8c2.3,0.8,4.1-0.3,4.7-1.7c0.8-1.9,1.7-5.7,5.8-7.7c1.5-0.7,3.1-1.1,4.6-1.1c2.8,0,5.2,1,7.2,2.9
	c1.9,1.9,2.8,4.2,2.8,7.1l0,10.1h-10c-4.7,0-8.9,1.8-12.5,5.2c-3.5,3.5-5.3,7.7-5.3,12.4c0,4.7,1.8,8.9,5.3,12.4
	c3.6,3.5,7.8,5.2,12.5,5.2h0c11.8,0,17.6-8,17.6-17.6v-27.7C390.2,143.3,388.5,139.1,385.1,135.7z M382.6,175.8c0,2.8-0.9,5.1-2.8,7
	c-2.1,2-4.5,2.9-7.2,2.9c-2.9,0-5.2-0.9-7.1-2.8c-2.1-2.1-3.1-4.4-3.1-7.1c0-2.8,1-5.2,3-7.2c2-2,4.3-2.9,7.2-2.9h10V175.8z
	 M341.8,185.7c0,0-4.6,0-4.6,0c-2.7-0.1-4.9-1.1-6.7-3c-2.1-2.1-3.1-4.4-3.1-7.2v-41.1c0-1-0.4-2-1.1-2.7c-0.7-0.7-1.4-1.2-2.7-1.2
	c-1.3,0-2,0.4-2.7,1.1c-0.7,0.7-1.2,1.7-1.2,2.7v41.1c0,4.9,1.8,9.2,5.2,12.7c3.7,3.5,7.9,5.2,12.6,5.2h4.1c1,0,2-0.4,2.7-1.1
	c0.7-0.7,1.2-1.7,1.1-2.7c0-1-0.4-2-1.1-2.7C343.7,186.1,342.8,185.7,341.8,185.7z M306.7,185.7h-4.6c-2.7-0.1-4.9-1.1-6.7-3
	c-2.1-2.1-3.1-4.4-3.1-7.2v-41.1c0-1-0.4-2-1.1-2.7c-0.7-0.7-1.7-1.2-2.7-1.2c-1,0-2,0.4-2.7,1.1c-0.7,0.7-1.2,1.7-1.1,2.7v41.1
	c0,4.9,1.8,9.2,5.2,12.7c3.7,3.5,7.9,5.2,12.6,5.2h4.1c1,0,2-0.4,2.7-1.1c0.7-0.7,1.2-1.7,1.1-2.7c0-1-0.4-2-1.1-2.7
	C308.7,186.1,307.7,185.7,306.7,185.7z M261.9,130.3c-2.7,0-5,2.2-5,5s2.2,5,5,5s5-2.2,5-5S264.7,130.3,261.9,130.3z"/>
<path class="st2" d="M193.7,441.9l-13.8,0c-1,0-1.9,0.3-2.7,0.9c-0.8,0.7-1.2,1.7-1.2,2.8l0,55.5c0,1.1,0.4,2.2,1.2,2.8
	c0.7,0.6,1.7,0.9,2.6,0.9h13.8c4.8,0,9.1-1.8,12.5-5.2c3.5-3.3,5.3-7.4,5.3-12.2l0-28.3C211.7,448.3,204,441.9,193.7,441.9z
	 M203.9,487.6c0,2.8-1,5.1-3,7c-2.1,2-4.4,2.9-7.2,2.9h-10l0-48.2h10c2.8,0,5.1,1,7.2,3c2,2,2.9,4.3,3,7h0L203.9,487.6z
	 M250.4,441.9l-2.5,0c-4.8,0-9,1.8-12.6,5.2c-3.5,3.5-5.3,7.7-5.3,12.5c0,0,0,0,0,0l0,27.6c0,4.7,1.8,9,5.2,12.6
	c3.5,3.4,7.7,5.1,12.7,5.1l2.8,0c4.8-0.1,8.9-1.8,12.2-5.1c3.5-3.5,5.3-7.7,5.2-12.6v-27.6c0-4.9-1.8-9.1-5.3-12.5
	C259.5,443.7,255.3,441.9,250.4,441.9z M260.6,487.2c0,2.9-1,5.2-2.9,7.1c-1.9,1.9-4.2,2.8-7.2,2.8c0,0-2.4,0-2.5,0
	c-2.9,0-5.2-0.9-7.2-2.8c-2-1.9-2.9-4.2-2.9-7.2l0-27.6c0-2.9,1-5.2,2.9-7.1c2.1-1.9,4.4-2.8,7.2-2.8l2.5,0c2.9,0,5.2,0.9,7.2,2.8
	c2,1.9,2.9,4.2,2.9,7.1V487.2z M326.3,457.2c-1,0-2,0.4-2.7,1.1c-0.7,0.7-1.1,1.6-1.1,2.7v44.2c0,0,7.6-1.4,7.6-7.9l0.1-36.3
	c0-1-0.4-2-1.2-2.7C328.3,457.6,327.3,457.2,326.3,457.2z M372.5,441.9c-3.1,0-6.2,0.8-9.2,2.5l-0.9,0.6l-0.4-0.9
	c-0.6-1.4-2.2-2.2-3.5-2.2c-1.3,0-2,0.4-2.8,1.1c-0.8,0.8-1.2,1.8-1.2,2.8l0,59.4c0,0,7.7-1.4,7.7-8v-37.5c0-2.8,1-5.2,3-7.2
	c1.9-1.9,4.2-2.8,7.1-2.8c2.9,0,5.3,0.9,7.2,2.8c2,1.9,2.9,4.2,3,7.2v45.5c0,0,7.8-1.6,7.8-8v-37.5
	C390.3,445.4,377.2,441.9,372.5,441.9z M307.8,497.2L307.8,497.2l-4.6,0c-2.7-0.1-4.9-1.1-6.7-3c-2.1-2.1-3.1-4.4-3.1-7.2l0-41.4
	c0-0.9-0.4-1.8-1.1-2.4c-0.3-0.4-1.5-1.1-2.7-1.1c-1.2,0-2.4,0.7-2.8,1.1c-0.7,0.7-1.2,1.7-1.2,2.7V487c0,4.9,1.8,9.2,5.3,12.7
	c3.7,3.5,7.9,5.2,12.6,5.2h4.1c0,0,0,0,0,0c1,0,2-0.4,2.7-1.1c0.7-0.7,1.2-1.7,1.1-2.7c0-1-0.4-2-1.2-2.7
	C309.8,497.6,308.8,497.2,307.8,497.2z M326.3,441.6c-2.7,0-5,2.2-5,5s2.2,5,5,5c2.7,0,5-2.2,5-5S329,441.6,326.3,441.6z"/>
<g>
	<path class="st0" d="M130.2,78.2c3.8-1.7,8-2.7,12.5-2.7c4.5,0,8.7,1,12.5,2.7c-3.4-2.3-6.5-5.2-8.7-8.9c-2.2-3.7-3.4-7.6-3.8-11.6
		c-0.3,4-1.5,7.9-3.8,11.6C136.7,72.9,133.7,75.9,130.2,78.2z M155.1,33.1c-3.8,1.7-8,2.7-12.5,2.7c-4.5,0-8.7-1-12.5-2.7
		c3.4,2.3,6.5,5.2,8.7,8.9c2.2,3.7,3.4,7.6,3.8,11.6c0.3-4,1.5-7.9,3.8-11.6C148.7,38.3,151.7,35.3,155.1,33.1z M152.6,65.7
		c2.1,3.8,3.1,7.9,3.4,12c0.4-4.1,1.7-8.3,3.9-12.1c2.2-3.9,5.2-7,8.6-9.4c-3.7,1.9-7.8,3-12,3.1c-4.3,0.1-8.3-0.8-11.9-2.5
		C147.7,58.9,150.5,61.9,152.6,65.7z M132.7,45.5c-2.1-3.8-3.1-7.9-3.4-12c-0.4,4.1-1.7,8.3-3.9,12.1c-2.2,3.9-5.2,7-8.6,9.4
		c3.7-1.9,7.8-3,12.1-3.1c4.3-0.1,8.3,0.8,11.9,2.5C137.6,52.3,134.8,49.3,132.7,45.5z M129,59.2c-4.3-0.1-8.4-1.2-12.1-3.1
		c3.4,2.4,6.3,5.6,8.6,9.4c2.2,3.9,3.5,8,3.9,12.1c0.2-4.1,1.3-8.2,3.4-12c2.1-3.8,4.9-6.8,8.2-9.1C137.3,58.3,133.3,59.3,129,59.2z
		 M156.4,52.1c4.3,0.1,8.4,1.2,12,3.1c-3.4-2.4-6.3-5.6-8.6-9.4c-2.2-3.9-3.5-8-3.9-12.1c-0.2,4.1-1.3,8.2-3.4,12
		c-2.1,3.8-4.9,6.8-8.2,9.1C148,52.9,152.1,52,156.4,52.1z"/>
	<path class="st0" d="M200.4,78.2c3.8-1.7,8-2.7,12.5-2.7c4.5,0,8.7,1,12.5,2.7c-3.4-2.3-6.5-5.2-8.7-8.9c-2.2-3.7-3.4-7.6-3.8-11.6
		c-0.3,4-1.5,7.9-3.8,11.6C206.9,72.9,203.9,75.9,200.4,78.2z M225.4,33.1c-3.8,1.7-8,2.7-12.5,2.7c-4.5,0-8.7-1-12.5-2.7
		c3.4,2.3,6.5,5.2,8.7,8.9c2.2,3.7,3.4,7.6,3.8,11.6c0.3-4,1.5-7.9,3.8-11.6C218.9,38.3,221.9,35.3,225.4,33.1z M222.8,65.7
		c2.1,3.8,3.1,7.9,3.4,12c0.4-4.1,1.7-8.3,3.9-12.1c2.2-3.9,5.2-7,8.6-9.4c-3.7,1.9-7.8,3-12,3.1c-4.3,0.1-8.3-0.8-11.9-2.5
		C217.9,58.9,220.8,61.9,222.8,65.7z M203,45.5c-2.1-3.8-3.1-7.9-3.4-12c-0.4,4.1-1.7,8.3-3.9,12.1c-2.2,3.9-5.2,7-8.6,9.4
		c3.7-1.9,7.8-3,12.1-3.1c4.3-0.1,8.3,0.8,11.9,2.5C207.9,52.3,205,49.3,203,45.5z M199.2,59.2c-4.3-0.1-8.4-1.2-12.1-3.1
		c3.4,2.4,6.3,5.6,8.6,9.4c2.2,3.9,3.5,8,3.9,12.1c0.2-4.1,1.3-8.2,3.4-12c2.1-3.8,4.9-6.8,8.2-9.1
		C207.5,58.3,203.5,59.3,199.2,59.2z M226.6,52.1c4.3,0.1,8.4,1.2,12,3.1c-3.4-2.4-6.3-5.6-8.6-9.4c-2.2-3.9-3.5-8-3.9-12.1
		c-0.2,4.1-1.3,8.2-3.4,12c-2.1,3.8-4.9,6.8-8.2,9.1C218.3,52.9,222.3,52,226.6,52.1z"/>
	<path class="st0" d="M270.7,78.2c3.8-1.7,8-2.7,12.5-2.7c4.5,0,8.7,1,12.5,2.7c-3.4-2.3-6.5-5.2-8.7-8.9c-2.2-3.7-3.4-7.6-3.8-11.6
		c-0.3,4-1.5,7.9-3.8,11.6C277.1,72.9,274.1,75.9,270.7,78.2z M295.6,33.1c-3.8,1.7-8,2.7-12.5,2.7c-4.5,0-8.7-1-12.5-2.7
		c3.4,2.3,6.5,5.2,8.7,8.9c2.2,3.7,3.4,7.6,3.8,11.6c0.3-4,1.5-7.9,3.8-11.6C289.1,38.3,292.1,35.3,295.6,33.1z M293.1,65.7
		c2.1,3.8,3.1,7.9,3.4,12c0.4-4.1,1.7-8.3,3.9-12.1c2.2-3.9,5.2-7,8.6-9.4c-3.7,1.9-7.8,3-12,3.1c-4.3,0.1-8.3-0.8-11.9-2.5
		C288.2,58.9,291,61.9,293.1,65.7z M273.2,45.5c-2.1-3.8-3.1-7.9-3.4-12c-0.4,4.1-1.7,8.3-3.9,12.1c-2.2,3.9-5.2,7-8.6,9.4
		c3.7-1.9,7.8-3,12.1-3.1c4.3-0.1,8.3,0.8,11.9,2.5C278.1,52.3,275.3,49.3,273.2,45.5z M269.4,59.2c-4.3-0.1-8.4-1.2-12.1-3.1
		c3.4,2.4,6.3,5.6,8.6,9.4c2.2,3.9,3.5,8,3.9,12.1c0.2-4.1,1.3-8.2,3.4-12c2.1-3.8,4.9-6.8,8.2-9.1
		C277.8,58.3,273.7,59.3,269.4,59.2z M296.8,52.1c4.3,0.1,8.4,1.2,12,3.1c-3.4-2.4-6.3-5.6-8.6-9.4c-2.2-3.9-3.5-8-3.9-12.1
		c-0.2,4.1-1.3,8.2-3.4,12c-2.1,3.8-4.9,6.8-8.2,9.1C288.5,52.9,292.5,52,296.8,52.1z"/>
	<path class="st0" d="M340.9,78.2c3.8-1.7,8-2.7,12.5-2.7c4.5,0,8.7,1,12.5,2.7c-3.4-2.3-6.5-5.2-8.7-8.9c-2.2-3.7-3.4-7.6-3.8-11.6
		c-0.3,4-1.5,7.9-3.8,11.6C347.4,72.9,344.4,75.9,340.9,78.2z M365.8,33.1c-3.8,1.7-8,2.7-12.5,2.7c-4.5,0-8.7-1-12.5-2.7
		c3.4,2.3,6.5,5.2,8.7,8.9c2.2,3.7,3.4,7.6,3.8,11.6c0.3-4,1.5-7.9,3.8-11.6C359.4,38.3,362.4,35.3,365.8,33.1z M363.3,65.7
		c2.1,3.8,3.1,7.9,3.4,12c0.4-4.1,1.7-8.3,3.9-12.1c2.2-3.9,5.2-7,8.6-9.4c-3.7,1.9-7.8,3-12,3.1c-4.3,0.1-8.3-0.8-11.9-2.5
		C358.4,58.9,361.2,61.9,363.3,65.7z M343.4,45.5c-2.1-3.8-3.1-7.9-3.4-12c-0.4,4.1-1.7,8.3-3.9,12.1c-2.2,3.9-5.2,7-8.6,9.4
		c3.7-1.9,7.8-3,12.1-3.1c4.3-0.1,8.3,0.8,11.9,2.5C348.3,52.3,345.5,49.3,343.4,45.5z M339.7,59.2c-4.3-0.1-8.4-1.2-12.1-3.1
		c3.4,2.4,6.3,5.6,8.6,9.4c2.2,3.9,3.5,8,3.9,12.1c0.2-4.1,1.3-8.2,3.4-12c2.1-3.8,4.9-6.8,8.2-9.1C348,58.3,344,59.3,339.7,59.2z
		 M367.1,52.1c4.3,0.1,8.4,1.2,12,3.1c-3.4-2.4-6.3-5.6-8.6-9.4c-2.2-3.9-3.5-8-3.9-12.1c-0.2,4.1-1.3,8.2-3.4,12
		c-2.1,3.8-4.9,6.8-8.2,9.1C358.7,52.9,362.8,52,367.1,52.1z"/>
	<path class="st0" d="M411.1,78.2c3.8-1.7,8-2.7,12.5-2.7c4.5,0,8.7,1,12.5,2.7c-3.4-2.3-6.5-5.2-8.7-8.9c-2.2-3.7-3.4-7.6-3.8-11.6
		c-0.3,4-1.5,7.9-3.8,11.6C417.6,72.9,414.6,75.9,411.1,78.2z M436,33.1c-3.8,1.7-8,2.7-12.5,2.7c-4.5,0-8.7-1-12.5-2.7
		c3.4,2.3,6.5,5.2,8.7,8.9c2.2,3.7,3.4,7.6,3.8,11.6c0.3-4,1.5-7.9,3.8-11.6C429.6,38.3,432.6,35.3,436,33.1z M433.5,65.7
		c2.1,3.8,3.1,7.9,3.4,12c0.4-4.1,1.7-8.3,3.9-12.1c2.2-3.9,5.2-7,8.6-9.4c-3.7,1.9-7.8,3-12,3.1c-4.3,0.1-8.3-0.8-11.9-2.5
		C428.6,58.9,431.5,61.9,433.5,65.7z M413.7,45.5c-2.1-3.8-3.1-7.9-3.4-12c-0.4,4.1-1.7,8.3-3.9,12.1c-2.2,3.9-5.2,7-8.6,9.4
		c3.7-1.9,7.8-3,12.1-3.1c4.3-0.1,8.3,0.8,11.9,2.5C418.6,52.3,415.7,49.3,413.7,45.5z M409.9,59.2c-4.3-0.1-8.4-1.2-12.1-3.1
		c3.4,2.4,6.3,5.6,8.6,9.4c2.2,3.9,3.5,8,3.9,12.1c0.2-4.1,1.3-8.2,3.4-12c2.1-3.8,4.9-6.8,8.2-9.1
		C418.2,58.3,414.2,59.3,409.9,59.2z M437.3,52.1c4.3,0.1,8.4,1.2,12,3.1c-3.4-2.4-6.3-5.6-8.6-9.4c-2.2-3.9-3.5-8-3.9-12.1
		c-0.2,4.1-1.3,8.2-3.4,12c-2.1,3.8-4.9,6.8-8.2,9.1C429,52.9,433,52,437.3,52.1z"/>
</g>
</svg>
