<?xml version="1.0" encoding="utf-8"?>
<!-- Generator: Adobe Illustrator 26.3.1, SVG Export Plug-In . SVG Version: 6.00 Build 0)  -->
<svg version="1.1" id="Layer_1" xmlns="http://www.w3.org/2000/svg" xmlns:xlink="http://www.w3.org/1999/xlink" x="0px" y="0px"
	 viewBox="0 0 566.9 566.9" style="enable-background:new 0 0 566.9 566.9;" xml:space="preserve">
<style type="text/css">
	.st0{fill:#231F20;}
</style>
<g>
	<path class="st0" d="M154.1,119.2c3.3,6.7,14.3,33.1,15.3,36.1c1.5,4.1,3.8,10.5,4.1,11.2c0.6,1.8,1.8,2.3,2.9,2.3
		c1.7,0,4.1-5.8,4.7-7.3c3.9-9.4,9-19.7,13.4-28.4c0.2-0.5,1.1-0.3,1.1,0c3.2,7.3,5.9,14.4,8.8,21.3c1.5,3.8,3.6,10.2,4.1,11.2
		c0.9,1.1,2.3,2.9,4.1,2.9c0.8,0,1.8-1.4,2.3-2.9c1.1-2.6,3.5-9,6.1-15.3c3.8-8.8,10.5-24.5,14.9-32.8c2.4-4.2,4.3-6.1,7.4-7.1
		c2.4-0.6,4.4-1.4,4.4-2.9c0-0.9-1.4-1.5-3.3-1.5c-2.7,0-7,0.8-11.5,0.8c-3.3,0-8-0.6-9.9-0.6c-1.8,0-3.6,0.8-3.6,1.8
		c0,1.4,1.7,2,3.6,2.6c5.5,1.4,6.2,3.2,6.2,4.7c0,2.1-1.4,6.2-3.2,11.1c-2.7,6.8-5.8,14.7-7.6,19.1c-0.5,0.6-0.9,0.6-1.2,0
		c-2.4-5.2-10.3-25.5-11.2-27.5c-0.8-1.8-1.2-3.2-1.2-4.3c0-0.8,0.6-2.3,4.3-3.3c2-0.5,3-1.5,3-2.6c0-0.9-1.1-1.7-3.5-1.7
		c-3.5,0-10.2,0.6-12.9,0.6c-3.8,0-9.7-0.6-11.8-0.6c-2.7,0-3.8,0.8-3.8,1.5c0,1.4,1.1,2.1,3.3,2.9c2.9,1.1,4,2.6,5.6,5.5
		c1.2,2.6,2.9,7.1,3.3,9c0,0.6,0,1.5-0.5,2.6c-2.6,6.1-6.7,14.7-8.4,18.2c-0.3,0.5-0.9,0.5-1.4-0.2c-1.1-2.3-9.6-23.7-11.7-29.9
		c-1.1-2.9-0.5-4.4,2.3-5c2.6-0.8,3.5-1.8,3.5-2.6c0-0.8-1.1-1.8-3.8-1.8c-2.9,0-6.5,0.5-10.3,0.5c-3.5,0-12-0.6-14.9-0.6
		c-3.2,0-4.4,1.1-4.4,2.1c0,0.9,1.4,1.7,3.6,2.3C150.9,111.9,152,114.5,154.1,119.2z"/>
	<path class="st0" d="M252.6,167.1c2.6,0,9.9-0.6,14.7-0.6c3.3,0,11.5,0.5,12.6,0.5c2.1,0,4.3-0.8,4.3-2c0-1.2-1.1-2.1-3.3-2.9
		c-3.9-1.2-5.8-1.8-5.9-6.4c-0.2-5.3-0.3-10.6-0.3-15.3c0-8.8,0.5-29.2,0.8-34.3c0-0.5-0.8-1.7-1.5-1.7c-2.4,0.6-12,4.3-18.2,5.5
		c-2.4,0.5-4.1,1.7-4.1,2.9c0,0.8,0.9,1.5,1.8,2.4c3.2,2.7,5,4.3,5.2,5.5c0.3,1.8,0.3,10.5,0.3,13.7c0,10.8-0.3,21.6-0.9,23.7
		c-0.3,1.5-2,3.3-5.6,4.4c-2.9,0.9-3.9,1.7-3.9,2.7C248.3,166.2,250.1,167.1,252.6,167.1z"/>
	<path class="st0" d="M266.5,91.6c3.8,0,9.1-4.3,9.1-9.3c0-3.5-2.7-9.4-8-9.4c-2.9,0-5.8,1.1-7.6,2.7c-1.7,1.8-2.4,4.9-2.4,6.7
		c0,3,1.4,5.2,2.9,6.7C262.1,90.7,265.2,91.6,266.5,91.6z"/>
	<path class="st0" d="M363.7,164.6c0-1.2-1.1-2-4-2.7c-3.9-1.1-5-2.9-5.3-5.2c-0.2-2.1-0.5-24.4-0.5-27.6c0-7.7-2-14.4-5.5-18.4
		c-2.1-2.4-6.5-6.1-14-6.1c-6.8,0-13.2,3.6-19.3,8.2c0,0-1.1,0.2-1.1-0.8c0-1.4,0.2-5,0.2-6.7c0-0.6-1.1-2.3-1.7-2.3
		c-0.8,0-2.7,1.1-5.2,2.3c-2.4,1.2-9.3,3.6-12.3,4.6c-1.1,0.5-2.7,2.4-2.7,3.3c0,0.5,0.5,0.9,1.7,2.1c3.3,3,4.4,4.6,4.4,6.2
		c0,15.3-0.3,27.5-0.8,32c-0.5,5.6-1.2,6.8-6.2,8.5c-1.7,0.5-3.2,1.2-3.2,2.4c0,1.4,1.5,2.3,4.1,2.3c2.6,0,8.5-0.5,14.1-0.5
		c3.2,0,8.8,0.3,11.7,0.3c2.6,0,4.3-1.1,4.3-2.1c0-0.9-1.2-2-2.6-2.6c-4.7-1.5-5.2-2.6-5.3-4.7c-0.1-1.8-0.5-34.5-0.3-37.1
		c0.1-0.9,0.9-2.9,1.5-3.3c2.1-1.5,4.7-3,10-3c3.2,0,7,1.7,8.7,3.2c2.1,2,3.3,6.1,3.3,9.1c0,4.4,0,23.2-0.3,28.2
		c-0.3,5-1.1,6.4-4.6,7.7c-2,0.6-3.6,1.5-3.6,2.6c0,1.7,2,2.1,4.1,2.1c2.1,0,8.2-0.5,12-0.5c4.3,0,10.2,0.3,13.8,0.3
		C361.9,166.8,363.7,165.8,363.7,164.6z"/>
	<path class="st0" d="M398.5,168.1c12.5,0,19.6-5.9,24.3-13.2c0.8-1.2,1.2-2.9,1.2-3.8c0-0.9-0.8-2-1.4-2c-0.6,0-1.4,0.9-2,1.8
		c-2.9,3.8-7.3,5.3-13.7,5.3c-6.7,0-13.1-2.7-16.9-7.6c-2.9-3.8-4.7-10.8-4.7-14.1c0-1.8,0.2-4.3,0.6-5.5c0.2-0.6,0.9-1.1,1.7-1.1
		c7.1,0,31.3,0,33.1,0c1.8,0,3.3-2.6,3.3-3.6c0-5.3-2.3-10-5.8-13.4c-3.9-3.9-10.2-6.4-16.3-6.4c-4.1,0-8.7,1.1-12.5,2.9
		c-12.6,5.8-19.3,17.9-19.3,30.1C370.4,154.9,381.1,168.1,398.5,168.1z M387,121.8c1.8-6.8,7.7-12.9,14.1-12.9c4.3,0,8.5,5,8.5,9.3
		c0,3.6-2.9,5.2-5.3,5.2c-7.6,0-12.3,0.2-16.3,0C387.4,123.3,386.8,122.6,387,121.8z"/>
	<path class="st0" d="M66.9,231.8c-5.2,3.2-10.2,5-14.6,5c-8.2,0-13.7-4.3-16.6-8.2c-0.8-0.9-4.9-5.9-4.9-15.9
		c0-7,2.1-14.6,5.9-18.5c2.3-2.4,4.9-3.3,6.5-3.3c4.7,0,7.9,3.2,12,6.5c3.2,2.7,5.6,3.8,7,3.8c0.9,0,5.9-4.4,5.9-7.1
		c0-2-0.6-4.1-2.6-5.5c-2.7-2.1-10.3-3.3-14.9-3.3c-6.1,0-16.1,2.9-21.4,6.5c-9.1,5.9-15.2,14.6-15.2,26.4c0,6.2,2,12.9,5,17.6
		c4.3,6.4,12.8,12.2,23.8,12.2c9.4,0,18.2-4.7,23.4-10.2c1.2-1.2,2.4-3.2,2.4-4.7C68.8,231.8,67.6,231.3,66.9,231.8z"/>
	<path class="st0" d="M111.8,184.4c-11.2,0-19.7,4.9-24.3,8.8c-5.8,4.9-10.5,12.9-10.5,23.5c0,8.5,4.9,18.1,11.4,23.4
		c5.6,4.7,14.1,7.9,21,7.9c7,0,14.7-1.8,21-6.2c5.6-3.6,13.5-12.9,13.5-25.8C143.9,196.3,127,184.4,111.8,184.4z M120.3,239.2
		c-2.3,2.6-5.2,3.8-6.7,3.8c-6.4,0-13.4-5.2-16.6-15.8c-1.2-3.8-1.8-9.6-1.8-14.6c0-10,2.7-16.7,6.2-19.9c2.4-2.3,4.9-3.3,7.4-3.3
		c4.3,0,8.2,2.6,10.9,6.1c4.7,6.7,6.1,16.6,6.1,22.9C126,227.1,123.5,235.1,120.3,239.2z"/>
	<path class="st0" d="M313.1,184.7c-4.4,0-7.9,1.1-10.5,2.1c-2.1,0.9-6.2,3-9,4.9c-0.5,0.2-1.2-0.5-1.2-1.1c0.2-2.4,0.2-4.4,0.5-7.1
		c0-0.8-1.2-2.1-1.8-2.1c-0.3,0-1.5,0.5-3,1.4c-4.1,2.4-12.5,5-15.5,5.9c-1.7,0.6-3.2,2.7-3.2,3.5c0,0.8,3,3.3,5.6,5.5
		c0.6,0.5,1.1,1.1,1.2,4.3c0.3,5.8,0.2,22.8,0.2,33l-1.1,30c0,19.8-28.7,24.6-28.7,44.3c0,21.5,32.5,24.8,32.5,33.2
		c0,6.6-29.8,15.1-29.8,34.2c0,21.4,32.2,29.2,32.5,33.9c0.3,4.7-31.2,16.4-31.2,33.6c0,27.8,40,31.5,40,37.6
		c0,6.1-7.1,12.4-7.1,12.4s15.3-6.3,15.3-16.9c0-11.4-34.9-20.5-34.9-32.7c0-9.2,33.4-17.1,33.4-34.6c0-14.6-34.1-23.4-34.1-32.6
		c0-9.2,32.2-17.5,32.2-35.6c0-14.9-34.2-22.4-34.2-31.9c0-9.5,31.5-13.5,31.5-44.9V249c0-0.8,0.6-2.3,1.2-2.1
		c1.8,0.3,4.7,0.5,7.4,0.5c5.3,0,14.9-1.1,23.4-7.7c8.2-6.4,13.1-15.3,13.1-26.4c0-8.2-3.3-15.2-7.4-19.9
		C326.1,188.5,319.2,184.7,313.1,184.7z M292,471.4c3.1,1.3,5.2,4.1,5.2,7.3c0,3.2-2.1,6-5.2,7.3c2.3-1.8,3.8-4.4,3.8-7.3
		C295.8,475.7,294.3,473.1,292,471.4z M286,400.8c4.8,1.8,8.1,5.6,8.1,10.1c0,4.4-3.3,8.2-8.1,10.1c3.6-2.5,5.9-6,5.9-10.1
		C291.9,406.8,289.6,403.3,286,400.8z M284.1,332.1c4.8,2,8.1,6.1,8.1,11c0,4.8-3.3,9-8.1,11c3.6-2.7,5.9-6.6,5.9-11
		C290,338.6,287.7,334.7,284.1,332.1z M282,284.3c4.9-3.7,6.8-15.3,7.2-22.9C290.9,272.3,288.5,279.8,282,284.3z M311.3,240.3
		c-1.7,1.4-3.3,1.8-5,1.8c-3.2,0-9.3-3-12.5-8.7c-0.9-1.7-1.5-4.3-1.5-7c-0.3-8.1-0.3-20.4,0.6-27c0.2-1.7,1.2-3.5,1.7-3.9
		c2-1.1,5.3-1.8,8.1-1.8c2.6,0,8.2,2,11.5,5.6c5.6,6.2,6.4,14.9,6.4,18.1C320.5,219.8,319.3,234.5,311.3,240.3z"/>
	<path class="st0" d="M405.3,235.6c-1.5,0.6-4.6,1.8-5.3,1.8c-2.6,0-5.6-1.8-5.6-6.1c0-1.7,0.6-19.7,0.6-25.7
		c0-6.8-1.5-10.6-3.3-13.1c-2.3-3.3-6.5-8.2-15.8-8.2c-2.1,0-9.6,2-15.2,5.6c-9.4,6.1-12.8,10.2-12.8,14.6c0,0.9,1.1,2.1,2,2.1
		c0.9,0,12.3-5,13.4-6.1c0.3-0.3,0.6-0.8,0.6-1.4c0-5.2,0.3-6.7,0.9-7c1.1-0.8,2.7-1.1,4.9-1.1c6.8,0,10,6.1,10.2,9.7
		c0.2,2-0.2,10.3-0.3,11.7c0,0.6-0.9,1.7-2.7,2.3c-3.5,1.1-17.3,4.9-20.7,6.2c-1.4,0.6-4,1.5-5.5,3.6c-1.5,2.1-2.7,5-2.7,7.7
		c0,8.5,6.1,15.3,11.7,15.3c2,0,5-0.6,6.7-1.2c2-0.9,8.2-3.6,12-6.4c0.3-0.3,1.2,0,1.4,0.6c2.3,5.9,7,7.3,11.4,7.3
		c8.5,0,15.6-7.4,15.6-10.3c0-0.5-0.2-1.5-0.5-2.1C405.9,235.4,405.7,235.3,405.3,235.6z M378.7,234.1c0,0.6-0.6,2.4-1.4,2.9
		c-1.4,0.9-4.4,1.8-5.8,1.8c-2.9,0-8.4-3-8.4-9.7c0-4,0.9-4.7,2.7-6.1c2.7-1.7,9.7-4,12.3-4c0.5,0,1.1,0.9,1.1,1.5
		C379.3,225.6,379,231.9,378.7,234.1z"/>
	<path class="st0" d="M480.9,241.7c-3.9-1.1-5-2.9-5.3-5.2c-0.2-2.1-0.5-24.5-0.5-27.6c0-7.7-2-14.4-5.5-18.4
		c-2.1-2.4-6.5-6.1-14-6.1c-6.8,0-13.2,3.6-19.3,8.2c0,0-1.1,0.2-1.1-0.8c0-1.4,0.1-5,0.1-6.7c0-0.6-1.1-2.3-1.7-2.3
		c-0.8,0-2.7,1.1-5.2,2.3c-2.4,1.2-9.3,3.6-12.3,4.6c-1.1,0.5-2.7,2.4-2.7,3.3c0,0.5,0.5,0.9,1.7,2.1c3.3,3,4.4,4.6,4.4,6.2
		c0,15.3-0.3,27.5-0.8,32c-0.5,5.6-1.2,6.8-6.2,8.5c-1.7,0.5-3.2,1.2-3.2,2.4c0,1.4,1.5,2.3,4.1,2.3c2.6,0,8.5-0.5,14.1-0.5
		c3.2,0,8.8,0.3,11.7,0.3c2.6,0,4.3-1.1,4.3-2.1c0-0.9-1.2-2-2.6-2.6c-4.7-1.5-5.2-2.6-5.3-4.7c-0.1-1.8-0.5-34.5-0.3-37.1
		c0.2-0.9,0.9-2.9,1.5-3.3c2.1-1.5,4.7-3,10-3c3.2,0,7,1.7,8.7,3.2c2.1,2,3.3,6.1,3.3,9.1c0,4.4,0,23.2-0.3,28.2
		c-0.3,5-1.1,6.4-4.6,7.7c-2,0.6-3.6,1.5-3.6,2.6c0,1.7,2,2.1,4.1,2.1c2.1,0,8.2-0.5,12-0.5c4.3,0,10.2,0.3,13.8,0.3
		c2.6,0,4.4-0.9,4.4-2.1C484.9,243.2,483.8,242.4,480.9,241.7z"/>
	<path class="st0" d="M549.6,185.9c-3.9,0-8.4,0.6-10.6,0.6c-2.1,0-6.1-0.3-9-0.3c-2,0-3.8,0.6-3.8,2c0,0.6,1.2,1.8,3.2,2.4
		c5.5,1.5,6.8,3.5,5.8,7.1c-1.2,3.6-9.1,23.1-10.9,27.5c-0.5,0.9-1.2,0.9-1.5,0.5c-2.1-4.1-9.4-21.1-11.7-28.7
		c-1.4-3.9-1.2-4.9,2.9-6.1c2.7-0.9,3.6-1.7,3.6-2.9c0-1.2-2.3-1.8-3.6-1.8c-2.1,0-7.8,0.3-12.3,0.3c-4.6,0-9.7-0.6-15-0.6
		c-2.4,0-3.6,1.2-3.6,1.8c0,1.5,1.4,2.3,3.5,3c4.2,1.4,5,2.6,6.7,5.6c4.1,8.5,14.9,34,18.7,43.6c0.6,1.8,2,5.5,2.6,6.5
		c0.3,0.6,0.2,2.1-0.2,3.2c-1.1,3-5.3,14.7-6.7,17.2c-0.6,1.5-1.4,2.6-2.7,2.6c-1.7,0-6.1-0.2-7-0.2c-4.7,0-6.8,5-6.8,7.4
		c0,3.6,2.4,8.4,8.1,8.4c2.9,0,7.4-1.8,8.7-5.2c4.9-12.3,11.4-28.7,16.4-41.3c2.7-6.8,13.8-33.7,17.2-40.7c2.6-4.4,4.7-6.5,7.9-7.4
		c2-0.6,3.6-1.5,3.6-2.7C552.8,186.7,551.7,185.9,549.6,185.9z"/>
	<path class="st0" d="M262.8,244.9c0-0.9-1.1-1.8-3-2.4c-3.9-1.2-5.2-3.5-5.3-6.1c-0.2-9.7-0.5-25.5-0.8-30.5
		c-0.3-5.8-1.7-11.2-5.8-15.2c-3-3.2-6.8-5.5-13.1-5.5c-2.6,0-5.3,0.5-8.8,2.3c-3,1.5-9.3,5.3-11.1,6.5c-0.2,0-0.9,0-1.2-0.5
		c-0.8-1.2-2.4-4.1-5-6.1c-2.4-1.8-6.4-3-11.1-3c-7.4,0-14.6,3.9-20.5,8.8c-0.5,0.5-1.1-0.6-1.1-0.9c0-1.5,0.5-4.4,0.5-6.5
		c0-0.3-0.6-1.5-1.4-2c-0.3-0.2-0.6-0.3-1.4,0c-3.6,2-12.6,5.8-16.4,7c-1.1,0.3-2.9,1.8-2.9,2.7c0,0.9,1.8,2.7,5.5,6.4
		c0.9,0.8,0.9,2,0.9,3.3c0,13.4-0.5,25.2-0.8,29.3c-0.6,6.5-1.1,8.5-6.4,9.7c-2.7,0.8-3.8,1.7-3.8,2.6c0,1.4,2.1,2,4.3,2
		c3.2,0,7.7-0.6,12.8-0.6c5.8,0,14.3,0.3,14.9,0.3c2.1,0,4.1-1.1,4.1-2c0-1.2-0.8-1.8-3.6-2.7c-4.1-1.4-5.3-3.3-5.3-6.5
		c0-11.5,0-25.4,0.2-35.2c0-1.2,0.6-2.9,1.4-3.5c2.1-1.7,5.8-3.2,9.3-3.2c4.4,0,7.9,2.1,9.9,4.9c0.8,0.9,2,3.5,1.8,9.6l-0.1,26.1
		c0,5.5-1.4,7-5.5,8.2c-2,0.6-3,1.7-3,2.1c0,1.2,0.6,2.3,4.4,2.3c3.2,0,9.3-0.3,12.5-0.3c3.5,0,10.3,0.5,13.7,0.5
		c2.4,0,3.9-1.1,3.9-2.1c0-1.1-1.5-1.8-3.2-2.3c-5.3-1.5-5.9-2.9-6.4-7.7c-0.3-3.3-0.2-31.3-0.2-32.3c0-1.5,0.5-4.1,1.2-4.7
		c1.5-1.2,3.9-3,9.3-3c4.7,0,7.9,2.3,9.7,5.2c1.8,2.9,2.1,5.8,2.1,8.2c0,5,0.3,21.9,0.2,25.8c-0.3,5.9-0.9,7.3-4.9,8.5
		c-1.7,0.6-3,1.4-3,2.3c0,1.1,0.9,2.3,3.8,2.3c3.5,0,7.3-0.5,12.5-0.5c4.1,0,9.1,0.6,12.1,0.6C261.3,246.8,262.8,245.9,262.8,244.9z
		"/>
</g>
</svg>
