<?xml version="1.0" encoding="utf-8"?>
<!-- Generator: Adobe Illustrator 26.3.1, SVG Export Plug-In . SVG Version: 6.00 Build 0)  -->
<svg version="1.1" id="Layer_1" xmlns="http://www.w3.org/2000/svg" xmlns:xlink="http://www.w3.org/1999/xlink" x="0px" y="0px"
	 viewBox="0 0 566.9 566.9" style="enable-background:new 0 0 566.9 566.9;" xml:space="preserve">
<style type="text/css">
	.st0{fill:#E37100;}
</style>
<g>
	<g>
		<path class="st0" d="M68.3,330.1c-1.5,0-2.8,0.5-3.8,1.6c-1,1-1.6,2.3-1.6,3.8v42.6H49.7v-42.6c0-1.5-0.5-2.7-1.6-3.8
			c-1-1-2.3-1.6-3.8-1.6c-1.5,0-2.8,0.5-3.8,1.6c-1.1,1-1.6,2.3-1.6,3.8v42.6H25.7v-42.6c0-1.5-0.5-2.7-1.6-3.8
			c-1-1-2.3-1.6-3.8-1.6c-1.5,0-2.8,0.5-3.8,1.6c-1.1,1-1.6,2.3-1.6,3.8v48c0,1.5,0.5,2.7,1.6,3.8c1,1.1,2.3,1.6,3.8,1.6h48
			c1.5,0,2.8-0.5,3.8-1.6c1-1,1.6-2.3,1.6-3.8v-48c0-1.5-0.5-2.8-1.6-3.8C71.1,330.7,69.8,330.1,68.3,330.1z"/>
		<path class="st0" d="M188.1,378.1h-18.7v-42.6c0-1.5-0.5-2.7-1.5-3.8c-1-1-2.3-1.6-3.8-1.6c-1.5,0-2.8,0.5-3.8,1.6
			c-1,1-1.6,2.3-1.6,3.8v42.6h-18.6c-1.5,0-2.8,0.5-3.8,1.6c-1,1-1.6,2.3-1.6,3.8c0,1.6,0.6,2.9,1.9,3.9c1.1,0.9,2.3,1.4,3.8,1.4
			h47.7c1.5,0,2.8-0.5,3.8-1.6c1-1,1.6-2.3,1.6-3.8c0-1.5-0.5-2.8-1.6-3.8C190.9,378.6,189.6,378.1,188.1,378.1z"/>
		<path class="st0" d="M307.9,378.1h-18.7v-42.6c0-1.5-0.5-2.7-1.6-3.8c-1-1-2.3-1.6-3.8-1.6h-24c-1.5,0-2.8,0.5-3.8,1.6
			c-1,1-1.6,2.3-1.6,3.8c0,1.5,0.5,2.8,1.6,3.8c1,1,2.3,1.6,3.8,1.6h18.7v42.6c0,1.5,0.5,2.7,1.6,3.8c1,1.1,2.3,1.6,3.8,1.6h24
			c1.5,0,2.8-0.5,3.8-1.6c1-1,1.6-2.3,1.6-3.8c0-1.5-0.5-2.8-1.6-3.8C310.6,378.6,309.4,378.1,307.9,378.1z"/>
		<path class="st0" d="M427.7,330.1c-1.5,0-2.8,0.5-3.8,1.6c-1,1-1.6,2.3-1.6,3.8v42.6h-42.7c-1.5,0-2.8,0.5-3.8,1.6
			c-1,1-1.6,2.3-1.6,3.8c0,1.5,0.5,2.8,1.6,3.8c1,1,2.3,1.6,3.8,1.6h48c1.5,0,2.8-0.5,3.8-1.6c1-1,1.6-2.3,1.6-3.8v-48
			c0-1.5-0.5-2.8-1.6-3.8C430.4,330.7,429.1,330.1,427.7,330.1z"/>
		<path class="st0" d="M551.2,331.7c-1-1-2.3-1.6-3.8-1.6h-48c-1.5,0-2.8,0.5-3.8,1.6c-1,1-1.6,2.3-1.6,3.8c0,1.5,0.5,2.8,1.6,3.8
			c1,1,2.3,1.6,3.8,1.6H542v13.3h-42.6c-1.4,0-2.7,0.5-3.8,1.5c-1.1,1-1.6,2.3-1.6,3.8v24.1c0,1.5,0.5,2.8,1.6,3.8
			c1,1.1,2.3,1.6,3.8,1.6h48c1.5,0,2.8-0.5,3.8-1.6c1-1,1.5-2.3,1.5-3.8v-48C552.8,334,552.3,332.7,551.2,331.7z M542,378.1h-37.3
			v-13.3H542V378.1z"/>
		<path class="st0" d="M44.8,413.5c-3.8,0-6.9,1.9-9.1,5.6c-1.6-3.7-4.3-5.6-8-5.6c-3.4,0-6.3,1.5-8.3,4.5v-3.9h-5.3v43.2h5.3v-28.8
			c0-7.1,2.2-10.8,6.4-10.8c4.2,0,5.3,2.6,5.3,8.8v30.8h5.3v-28.8c0-7.1,2.2-10.8,6.4-10.8c4.2,0,5.3,2.6,5.3,8.8v30.8h5.3v-29.9
			C53.6,418.1,51.3,413.5,44.8,413.5z"/>
		<path class="st0" d="M92.1,413.2c-8.2,0-12.4,7.5-12.4,22.4c0,15,4.2,22.4,12.4,22.4c8,0,12.2-7.5,12.2-22.4
			C104.4,420.8,100.1,413.2,92.1,413.2z M92,453.6c-5,0-6.8-5.9-6.8-18c0-12.1,1.9-17.8,6.8-17.8c4.7,0,6.8,5.9,6.8,17.9
			C98.9,447.7,96.8,453.6,92,453.6z"/>
		<path class="st0" d="M144.6,413.5c-3.4,0-6.3,1.5-8.3,4.5v-3.9H131v43.2h5.3v-28.8c0-7.1,2.2-10.8,6.4-10.8c4.2,0,5.3,2.6,5.3,8.8
			v30.8h5.3v-29.9C153.4,418.1,151.1,413.5,144.6,413.5z"/>
		<path class="st0" d="M184.4,397.3c-2.3,0-4,1.7-4,3.9c0,2.2,1.8,4.1,4,4.1c2.2,0,4-1.9,4-4C188.4,399.1,186.7,397.3,184.4,397.3z"
			/>
		<rect x="181.6" y="414.1" class="st0" width="5.4" height="43.2"/>
		<rect x="216" y="389" class="st0" width="5.3" height="68.3"/>
		<polygon class="st0" points="238.3,414.1 232.4,414.1 221.4,433.2 236,457.3 242.2,457.3 226.8,432.9 		"/>
		<path class="st0" d="M280.2,418.2c-1.7-3-4.2-4.6-7.5-4.6c-7.4,0-10.5,7-10.5,21.2c0,15.8,2.7,23.4,10.5,23.4
			c3.4,0,6.3-1.7,7.7-4.7v3.9h5.1v-43.2h-5.3V418.2z M274.1,453.7c-5.3,0-6.6-5.6-6.6-17.7c0-12.2,1.3-17.9,6.6-17.9
			c5.1,0,6.4,5.9,6.4,17.9C280.5,448,279.1,453.7,274.1,453.7z"/>
		<polygon class="st0" points="372.8,414.1 366.8,414.1 355.8,433.2 370.4,457.3 376.6,457.3 361.2,432.9 		"/>
		<rect x="350.4" y="389" class="st0" width="5.3" height="68.3"/>
		<path class="st0" d="M415.3,442.4c0,7.5-1.3,10.9-6,10.9c-4.6,0-6-3.4-6-10.9v-28.3h-5.3v29.2c0,10,3.3,14.7,11.3,14.7
			c8,0,11.3-4.7,11.3-14.7v-29.2h-5.3V442.4z"/>
		<rect x="448.9" y="389" class="st0" width="5.4" height="68.3"/>
		<polygon class="st0" points="505.6,414.1 499.7,414.1 488.7,433.2 503.2,457.3 509.5,457.3 494.1,432.9 		"/>
		<rect x="483.3" y="389" class="st0" width="5.3" height="68.3"/>
		<path class="st0" d="M547.4,418.2c-1.7-3-4.2-4.6-7.5-4.6c-7.5,0-10.5,7-10.5,21.2c0,15.8,2.6,23.4,10.5,23.4
			c3.4,0,6.3-1.7,7.7-4.7v3.9h5.1v-43.2h-5.3V418.2z M541.3,453.7c-5.3,0-6.6-5.6-6.6-17.7c0-12.2,1.3-17.9,6.6-17.9
			c5,0,6.4,5.9,6.4,17.9C547.8,448,546.4,453.7,541.3,453.7z"/>
	</g>
	<g>
		<path class="st0" d="M544.7,46.8c-2.9-0.9-2.9-3.1-5.1-3.2c-2.3-0.2-4.6,0.2-7.3,2.5c-2.7,2.3-8.4,5.9-25,14.5
			c-16.6,8.6-48.9,36.8-54.6,42.1c-5.7,5.3-5.7,7.3-6.8,10.3c-1,3-3.4,2.4-7,2.8c-3.6,0.4-10.7,8.8-24.8,24.4
			c-14.1,15.7-33.4,35.9-34.9,36.9c-1.5,1-1.2-1.9-21.6-11.5c-20.4-9.6-45.1-12-70.7-12.4c-25.6-0.4-30.3,1.1-48.8,6.9
			c-18.5,5.7-30.4,16.2-34.2,18.7c-3.8,2.5-15.1,7.6-18.5,10.3c-3.4,2.7-5,3.6-8.6,1.3c-3.6-2.3-0.8-6.9-1.2-9.4
			c-0.4-2.5-10.7-14.7-17.6-22.7c-6.9-8-10.3-11.3-16.1-17.8c-5.7-6.5-12.2-12.2-15.5-15.7c-3.2-3.4-8.6-8-13.9-12.8
			c-5.3-4.8-10.5-10.9-12-12c-1.5-1.1-4-1.7-9.3-6.9c-5.3-5.2-3.6,0.6-6.9-4.4c-3.2-5-6.7-5-12-8.5c-5.3-3.6-14.6-7.5-16.9-8.5
			c-2.3-1-5.6-1.7-7.1-1.9c-1.5-0.2-2.7-1.7-4.4-2.9c-1.7-1.1-5.1-2.9-6.6-2.9c-1.5,0-2.4,1.4-3.6,1.8c-1.2,0.4-1.4,0.9-3.7,1.1
			c-2.3,0.2-3.1,0-3.8,1.3c-0.8,1.3-1.2,1.5-2.7,1.9c-1.5,0.4-1.4,1-1.4,1l-6.3-0.9l0.1,0.4c0,1.7,0.6,2.5,1.7,2.7
			c1.1,0.2,0,3.6,1.1,10.3c1.1,6.7,5.5,8,11.5,11.1c5.9,3.1,16.2,8.6,21,11.3c4.8,2.7,14.5,7.9,22.9,15c8.4,7.1,19.3,17.8,24.6,22.6
			c5.3,4.8,16.1,16.9,21.3,21.3c5.1,4.4,11.8,11.8,22.7,23.9c10.9,12,11.1,8.4,18.3,16.6c7.3,8.2,18.2,19.7,21.4,22.1
			c3.2,2.5,9.7,2.7,16,1.9c6.3-0.8,7.6-0.2,9.9-3.2c2.3-3.1,5.2-3.8,9-5.3c3.8-1.5,5-2.3,11.6-4.4c6.7-2.1,7.9-3.1,13.5-6.1
			c5.7-3.1,6.2-3.3,9.3-4.8c3.1-1.5,3.7-1.9,10.6-4.4c6.1-2.2,8.7-2.8,17.8-5.1c9.2-2.3,18.5-2.5,24-2.9c5.1-0.4,9.4,0.6,12.8,0.9
			c3.4,0.4,7.1-0.4,9.7,1.2c1,0.7,9.4,1.7,8.2,1.8c-3.1,0.2,9.2,1.9,14.1,2.4c5,0.5,15.1,4.6,18.5,6c3.4,1.3,20.2,7.3,26.3,7.8
			c6.1,0.6,9.2-4,13.2-5.3c4-1.3,8.8-2.9,15.3-9.4c6.5-6.5,17.4-19.3,27.9-31.8c10.6-12.5,16.2-18.4,20.1-22.9
			c4-4.4,5.2-5.7,9.2-14.1c4-8.4,6.9-8,8.4-10.5c1.5-2.5,2.3-3.2,4.6-7.1c2.3-3.8,4.2-2.3,10.3-10.3c6.1-8,12.8-11.8,15.5-13.6
			c2.7-1.7,2.9-2.1-0.9-4c-3.8-1.9,0.9-4.9,3.5-9c2.7-4,7.7-8.2,10.7-9.7c3.1-1.5,3.8-2.3,3.6-4.4c-0.2-2.1,3.3-4.4,7.2-8.3
			c3.9-3.9,8.9-6.7,8.9-6.7S547.6,47.7,544.7,46.8z"/>
		<path class="st0" d="M395.6,268.5c3.2-3.8,0.8-5.3-0.2-9.2c-1-3.8,2.1-4,3.9-6.1c1.9-2.1,4.5-3.6,2.7-3.8c-1.7-0.2-2.3-1.3-3.6-7
			c-1.3-5.6-3.5-3.7-6.9-3.9c-3.4-0.2-10.3,1.1-14.7,1.9c-4.4,0.8-3.6,1.9-7.1,1.6c-3.4-0.4-4.5,2.7-4.5,2.7s-15.2,4.9-24,8.5
			c-8.8,3.6-18.9,3.6-24.2,4c-5.4,0.4-6.3-1.9-10.9-0.9c-4.6,0.9-8.6,2.7-12.6,1.4c-4-1.3-6-1.8-13.2,0c-7.3,1.7-18.9,0.9-26.2,0.9
			c-7.3,0-21.1-5-25.7-6.7c-4.6-1.7-4.2-4.2-7.9-5.4c-3.7-1.2-4.2-1.8-4.9-3.2c-0.7-1.3-5-0.4-5,2.1c0,2.5-1.1,1-3.1,2
			c-2,1-4.5-2-4.5-2s-1.9,1.5-4.6,5.7c-2.7,4.2-0.4,6.5,1.9,8.8c2.3,2.3,1.5,2.7,1.5,6.3c0,3.6,1.7,7.1,3.9,8c2.2,1,3.8,4,5.4,5
			c1.6,0.9,4.3,1.7,4.3,1.7c6.9,4.2,11.3,7.8,18.1,9.5c6.8,1.6,8.3,3.3,13.4,4.5c5.2,1.2,12.2,3.4,19.5,3.2c7.2-0.2,10.1,1,14.6,0.3
			c4.5-0.6,8.7,2,14.4,2c5.7,0,17.6-1,24.5-2.3c6.9-1.3,9.2,0,17.6-1.9c8.4-1.9,7.8-1.9,12.1-3.6c4.3-1.7,6-1.4,10.3-2.7
			c4.3-1.3,13.5-4.1,21.9-9.2C390.2,275.6,392.3,272.3,395.6,268.5z"/>
		<path class="st0" d="M322.7,225.2c0-14.5-11.7-26.2-26.2-26.2c-14.5,0-26.2,11.7-26.2,26.2c0,14.5,11.7,26.2,26.2,26.2
			C311,251.4,322.7,239.7,322.7,225.2z"/>
	</g>
</g>
</svg>
